SplineFontDB: 3.0
FontName: Garuda-Oblique
FullName: Garuda Oblique
FamilyName: Garuda
Weight: Regular
Copyright: Generated by NECTEC for Public Domain\n\nModified under GNU General Public License by TLWG
Version: 003.011
ItalicAngle: -12
UnderlinePosition: -27
UnderlineWidth: 10
Ascent: 840
Descent: 160
InvalidEm: 0
LayerCount: 3
Layer: 0 0 "Back" 1
Layer: 1 0 "Fore" 0
Layer: 2 1 "Quad" 0
FSType: 0
OS2Version: 4
OS2_WeightWidthSlopeOnly: 0
OS2_UseTypoMetrics: 0
CreationTime: 1153661469
ModificationTime: 1537419457
PfmFamily: 33
TTFWeight: 400
TTFWidth: 5
LineGap: 0
VLineGap: 0
Panose: 2 11 6 4 2 2 2 2 2 4
OS2TypoAscent: 0
OS2TypoAOffset: 1
OS2TypoDescent: 0
OS2TypoDOffset: 1
OS2TypoLinegap: 0
OS2WinAscent: 1284
OS2WinAOffset: 0
OS2WinDescent: 591
OS2WinDOffset: 0
HheadAscent: 1284
HheadAOffset: 0
HheadDescent: -591
HheadDOffset: 0
OS2Vendor: 'PfEd'
Lookup: 6 0 0 "'ccmp' Thai Tone Tilde Reordering" { "'ccmp' Thai Tone Tilde Reordering"  } ['ccmp' ('DFLT' <'dflt' > 'latn' <'dflt' > 'thai' <'KUY ' 'MLY ' 'PAL ' 'SAN ' 'THA ' 'dflt' > ) ]
Lookup: 6 0 0 "'ccmp' Thai Tone Macron Reordering" { "'ccmp' Thai Tone Macron Reordering"  } ['ccmp' ('DFLT' <'dflt' > 'latn' <'dflt' > 'thai' <'KUY ' 'MLY ' 'PAL ' 'SAN ' 'THA ' 'dflt' > ) ]
Lookup: 6 0 0 "'ccmp' Thai Below Vowel Macron Reordering" { "'ccmp' Thai Below Vowel Macron Reordering"  } ['ccmp' ('DFLT' <'dflt' > 'latn' <'dflt' > 'thai' <'KUY ' 'MLY ' 'PAL ' 'SAN ' 'THA ' 'dflt' > ) ]
Lookup: 4 0 0 "'ccmp' Patani Malay Ligatures" { "'ccmp' Patani Malay Ligatures"  } ['ccmp' ('DFLT' <'dflt' > 'thai' <'KUY ' 'MLY ' 'PAL ' 'SAN ' 'THA ' 'dflt' > ) ]
Lookup: 6 0 0 "'ccmp' Thai Conditional Descender Removal" { "'ccmp' Thai Conditional Descender Removal"  } ['ccmp' ('DFLT' <'dflt' > 'thai' <'KUY ' 'MLY ' 'THA ' 'dflt' > ) ]
Lookup: 1 0 0 "'ccmp' Pali-Sanskrit Descender Removal" { "'ccmp' Pali-Sanskrit Descender Removal" ("descless") } ['ccmp' ('thai' <'PAL ' 'SAN ' > ) ]

StartChar: .notdef
Encoding: 65536 -1 0
Width: 766
VWidth: 2048
Flags: W
HStem: 0 95<212 595> 1193 95<445 828>
DStem2: 95 0 191.807 0 0.207912 0.978148<117.25 1239.7> 574.807 0 671 0 0.207912 0.978148<97.1224 1219.57>
LayerCount: 3
Fore
SplineSet
95 0 m 1
 369 1288 l 1
 946 1288 l 1
 671 0 l 1
 95 0 l 1
212 95 m 1
 595 95 l 1
 828 1193 l 1
 445 1193 l 1
 212 95 l 1
EndSplineSet
Validated: 1
Layer: 2
SplineSet
95 0 m 1,0,-1
 369 1288 l 1,1,-1
 946 1288 l 1,2,-1
 671 0 l 1,3,-1
 95 0 l 1,0,-1
212 95 m 1,4,-1
 595 95 l 1,5,-1
 828 1193 l 1,6,-1
 445 1193 l 1,7,-1
 212 95 l 1,4,-1
EndSplineSet
EndChar

StartChar: exclam
Encoding: 33 33 2
Width: 277
VWidth: 2048
Flags: W
HStem: 0 100<111 192> 696 20G<233.823 347>
VStem: 151 57<178 203.094>
DStem2: 90 0 192 0 0.207912 0.978148<21.207 102.181 569.716 731.125>
LayerCount: 3
Fore
SplineSet
151 178 m 1
 205 558 l 1
 238 716 l 1
 347 716 l 1
 314 558 l 1
 208 178 l 1
 151 178 l 1
90 0 m 1
 111 100 l 1
 213 100 l 1
 192 0 l 1
 90 0 l 1
EndSplineSet
Validated: 1
Layer: 2
SplineSet
151 178 m 1,0,-1
 205 558 l 1,1,-1
 238 716 l 1,2,-1
 347 716 l 1,3,-1
 314 558 l 1,4,-1
 208 178 l 1,5,-1
 151 178 l 1,0,-1
90 0 m 1,6,-1
 111 100 l 1,7,-1
 213 100 l 1,8,-1
 192 0 l 1,9,-1
 90 0 l 1,6,-1
EndSplineSet
EndChar

StartChar: quotedbl
Encoding: 34 34 3
Width: 354
VWidth: 2048
Flags: W
HStem: 463 253<298 322 460 483>
VStem: 169 291
LayerCount: 3
Fore
SplineSet
169 463 m 1
 173 599 l 1
 198 716 l 1
 298 716 l 1
 273 599 l 1
 222 463 l 1
 169 463 l 1
329 463 m 1
 335 599 l 1
 360 716 l 1
 460 716 l 1
 435 599 l 1
 383 463 l 1
 329 463 l 1
EndSplineSet
Validated: 1
Layer: 2
SplineSet
169 463 m 1,0,-1
 173 599 l 1,1,-1
 198 716 l 1,2,-1
 298 716 l 1,3,-1
 273 599 l 1,4,-1
 222 463 l 1,5,-1
 169 463 l 1,0,-1
329 463 m 1,6,-1
 335 599 l 1,7,-1
 360 716 l 1,8,-1
 460 716 l 1,9,-1
 435 599 l 1,10,-1
 383 463 l 1,11,-1
 329 463 l 1,6,-1
EndSplineSet
EndChar

StartChar: numbersign
Encoding: 35 35 4
Width: 556
VWidth: 2048
Flags: W
HStem: -12 21G<48 129.365 274 356.462> 196 72<68 136 238 361 465 586> 446 72<121 239 341 466 570 639> 708 20G<347.714 429 574.619 656>
DStem2: 48 -12 121 -12 0.384261 0.923225<28.0511 225.846 331.512 496.231 601.897 801.539> 274 -12 348 -12 0.385324 0.922782<28.5139 225.462 331.976 496.616 603.13 801.923>
LayerCount: 3
Fore
SplineSet
48 -12 m 1
 136 196 l 1
 53 196 l 1
 68 268 l 1
 164 268 l 1
 239 446 l 1
 106 446 l 1
 121 518 l 1
 269 518 l 1
 356 728 l 1
 429 728 l 1
 341 518 l 1
 495 518 l 1
 583 728 l 1
 656 728 l 1
 570 518 l 1
 654 518 l 1
 639 446 l 1
 540 446 l 1
 465 268 l 1
 601 268 l 1
 586 196 l 1
 436 196 l 1
 348 -12 l 1
 274 -12 l 1
 361 196 l 1
 208 196 l 1
 121 -12 l 1
 48 -12 l 1
238 268 m 1
 391 268 l 1
 466 446 l 1
 313 446 l 1
 238 268 l 1
EndSplineSet
Validated: 1
Layer: 2
SplineSet
48 -12 m 1,0,-1
 136 196 l 1,1,-1
 53 196 l 1,2,-1
 68 268 l 1,3,-1
 164 268 l 1,4,-1
 239 446 l 1,5,-1
 106 446 l 1,6,-1
 121 518 l 1,7,-1
 269 518 l 1,8,-1
 356 728 l 1,9,-1
 429 728 l 1,10,-1
 341 518 l 1,11,-1
 495 518 l 1,12,-1
 583 728 l 1,13,-1
 656 728 l 1,14,-1
 570 518 l 1,15,-1
 654 518 l 1,16,-1
 639 446 l 1,17,-1
 540 446 l 1,18,-1
 465 268 l 1,19,-1
 601 268 l 1,20,-1
 586 196 l 1,21,-1
 436 196 l 1,22,-1
 348 -12 l 1,23,-1
 274 -12 l 1,24,-1
 361 196 l 1,25,-1
 208 196 l 1,26,-1
 121 -12 l 1,27,-1
 48 -12 l 1,0,-1
238 268 m 1,28,-1
 391 268 l 1,29,-1
 466 446 l 1,30,-1
 313 446 l 1,31,-1
 238 268 l 1,28,-1
EndSplineSet
EndChar

StartChar: dollar
Encoding: 36 36 5
Width: 556
VWidth: 2048
Flags: W
HStem: -15 75<211.052 247 313 376.612> 667 73<334.988 392 457 485.11>
VStem: 74 95<100.512 199> 161 90<462.929 591.093> 463 96<154.203 283.664> 519 94<564 635.155>
DStem2: 228 -103 278 -103 0.207912 0.978148<10.3956 90.0273 177.111 448.941 537.792 787.271 872.19 904.748>
LayerCount: 3
Fore
SplineSet
559 250 m 0xc8
 559 135 464 -6 297 -14 c 1
 278 -103 l 1
 228 -103 l 1
 247 -15 l 1
 131 0 74 57 74 156 c 0
 74 169 75 184 77 199 c 1
 170 216 l 1
 169 206 169 197 169 188 c 0xe8
 169 111 200 68 263 60 c 1
 322 339 l 1
 214 364 161 415 161 495 c 0
 161 552 193 719 407 740 c 1
 416 782 l 1
 466 782 l 1
 457 740 l 1
 562 731 613 677 613 584 c 0
 613 577 612 571 612 564 c 1
 519 550 l 1
 519 560 l 2xd4
 519 620 494 656 442 667 c 1
 388 412 l 1
 502 387 559 333 559 250 c 0xc8
392 667 m 1
 301 655 251 581 251 520 c 0xd0
 251 474 281 442 340 423 c 1
 392 667 l 1
313 60 m 1
 416 71 463 165 463 225 c 0xc8
 463 272 432 306 369 326 c 1
 313 60 l 1
EndSplineSet
Validated: 1
Layer: 2
SplineSet
559 250 m 0,0,1
 559 155 559 155 487 73.5 c 128,-1,2
 415 -8 415 -8 297 -14 c 1,3,-1
 278 -103 l 1,4,-1
 228 -103 l 1,5,-1
 247 -15 l 1,6,7
 74 7 74 7 74 156 c 0,8,9
 74 176 74 176 77 199 c 1,10,-1
 170 216 l 1,11,12
 169 206 169 206 169 188 c 0,13,14
 169 72 169 72 263 60 c 1,15,-1
 322 339 l 1,16,17
 161 376 161 376 161 495 c 0,18,19
 161 516 161 516 165.5 540.5 c 128,-1,20
 170 565 170 565 186 599.5 c 128,-1,21
 202 634 202 634 227.5 661.5 c 128,-1,22
 253 689 253 689 299.5 711.5 c 128,-1,23
 346 734 346 734 407 740 c 1,24,-1
 416 782 l 1,25,-1
 466 782 l 1,26,-1
 457 740 l 1,27,28
 613 727 613 727 613 584 c 0,29,30
 613 580 613 580 612.5 574 c 128,-1,31
 612 568 612 568 612 564 c 2,32,-1
 519 550 l 1,33,-1
 519 560 l 2,34,35
 519 651 519 651 442 667 c 1,36,-1
 388 412 l 1,37,38
 559 374.5 559 374.5 559 250 c 0,0,1
392 667 m 1,39,40
 328 659 328 659 289.5 614.5 c 128,-1,41
 251 570 251 570 251 520 c 0,42,43
 251 452 251 452 340 423 c 1,44,-1
 392 667 l 1,39,40
313 60 m 1,45,46
 384 68 384 68 423.5 120 c 128,-1,47
 463 172 463 172 463 225 c 0,48,49
 463 296 463 296 369 326 c 1,50,-1
 313 60 l 1,45,46
EndSplineSet
EndChar

StartChar: percent
Encoding: 37 37 6
Width: 889
VWidth: 2048
Flags: W
HStem: -26 60<636.638 734.163> 291 62<684.686 782.091> 349 62<252.659 350.134> 668 60<301.099 397.944>
VStem: 166 76<421.584 585.521> 410 77<493.753 656.922> 549 76<45.2932 208.631> 793 76<116.126 281.276>
DStem2: 206 -26 279 -26 0.59141 0.806371<43.1729 935.053>
LayerCount: 3
Fore
SplineSet
487 599 m 0xbf
 487 482 409 349 284 349 c 0
 204 349 166 401 166 479 c 0
 166 589 231 728 363 728 c 0
 442 728 487 681 487 599 c 0xbf
299 411 m 0
 388 411 410 557 410 598 c 0
 410 644 391 668 354 668 c 0
 264 668 242 522 242 478 c 0
 242 433 260 411 299 411 c 0
206 -26 m 1
 759 728 l 1
 829 728 l 1
 279 -26 l 1
 206 -26 l 1
869 221 m 0
 869 112 799 -26 667 -26 c 0
 590 -26 549 22 549 103 c 0
 549 234 632 353 746 353 c 0xdf
 829 353 869 300 869 221 c 0
681 34 m 0
 771 34 793 181 793 224 c 0
 793 269 775 291 736 291 c 0
 647 291 625 145 625 104 c 0
 625 58 644 34 681 34 c 0
EndSplineSet
Validated: 1
Layer: 2
SplineSet
487 599 m 0,0,1
 487 505 487 505 430 427 c 128,-1,2
 373 349 373 349 284 349 c 0,3,4
 226 349 226 349 196 384 c 128,-1,5
 166 419 166 419 166 479 c 0,6,7
 166 537 166 537 187 592.5 c 128,-1,8
 208 648 208 648 254.5 688 c 128,-1,9
 301 728 301 728 363 728 c 0,10,11
 422 728 422 728 454.5 694.5 c 128,-1,12
 487 661 487 661 487 599 c 0,0,1
299 411 m 0,13,14
 330 411 330 411 353.5 434 c 128,-1,15
 377 457 377 457 388.5 490 c 128,-1,16
 400 523 400 523 405 551 c 128,-1,17
 410 579 410 579 410 598 c 0,18,19
 410 668 410 668 354 668 c 0,20,21
 323 668 323 668 299 645 c 128,-1,22
 275 622 275 622 263.5 588.5 c 128,-1,23
 252 555 252 555 247 526.5 c 128,-1,24
 242 498 242 498 242 478 c 0,25,26
 242 411 242 411 299 411 c 0,13,14
206 -26 m 1,27,-1
 759 728 l 1,28,-1
 829 728 l 1,29,-1
 279 -26 l 1,30,-1
 206 -26 l 1,27,-1
869 221 m 0,31,32
 869 130 869 130 814 52 c 128,-1,33
 759 -26 759 -26 667 -26 c 0,34,35
 610 -26 610 -26 579.5 8 c 128,-1,36
 549 42 549 42 549 103 c 0,37,38
 549 204 549 204 605.5 278.5 c 128,-1,39
 662 353 662 353 746 353 c 0,40,41
 807 353 807 353 838 317.5 c 128,-1,42
 869 282 869 282 869 221 c 0,31,32
681 34 m 0,43,44
 712 34 712 34 736 57 c 128,-1,45
 760 80 760 80 771.5 113.5 c 128,-1,46
 783 147 783 147 788 175.5 c 128,-1,47
 793 204 793 204 793 224 c 0,48,49
 793 291 793 291 736 291 c 0,50,51
 705 291 705 291 681.5 268 c 128,-1,52
 658 245 658 245 646.5 212 c 128,-1,53
 635 179 635 179 630 151 c 128,-1,54
 625 123 625 123 625 104 c 0,55,56
 625 34 625 34 681 34 c 0,43,44
EndSplineSet
EndChar

StartChar: ampersand
Encoding: 38 38 7
Width: 666
VWidth: 2048
Flags: W
HStem: -12 76<219.047 369.491> 656 72<383.75 496.859>
VStem: 81 97<105.111 243.098> 251 94<500.611 617.328> 512 92<534.303 640.979>
DStem2: 393 458 301 412 0.509068 -0.860726<-111.013 -7.24082 65.509 255.03>
LayerCount: 3
Fore
SplineSet
251 544 m 0
 251 628 340 728 466 728 c 0
 561 728 604 672 604 608 c 0
 604 526 540 455 427 402 c 1
 522 238 l 1
 543 267 561 299 576 337 c 1
 663 317 l 1
 635 254 602 204 567 162 c 1
 591 120 619 83 655 54 c 1
 582 -17 l 1
 551 6 522 40 493 84 c 1
 421 20 346 -12 267 -12 c 0
 131 -12 81 77 81 158 c 0
 81 311 246 388 301 412 c 1
 268 462 251 506 251 544 c 0
393 458 m 1
 474 500 512 545 512 594 c 0
 512 634 484 656 446 656 c 0
 385 656 345 607 345 560 c 0
 345 530 365 503 393 458 c 1
334 354 m 1
 225 296 178 240 178 172 c 0
 178 108 224 64 285 64 c 0
 347 64 402 95 453 155 c 1
 334 354 l 1
EndSplineSet
Validated: 1
Layer: 2
SplineSet
251 544 m 0,0,1
 251 611 251 611 313.5 669.5 c 128,-1,2
 376 728 376 728 466 728 c 0,3,4
 534 728 534 728 569 694 c 128,-1,5
 604 660 604 660 604 608 c 0,6,7
 604 485 604 485 427 402 c 1,8,-1
 522 238 l 1,9,10
 555 283 555 283 576 337 c 1,11,-1
 663 317 l 1,12,13
 625 232 625 232 567 162 c 1,14,15
 606 93 606 93 655 54 c 1,16,-1
 582 -17 l 1,17,18
 538 16 538 16 493 84 c 1,19,20
 385 -12 385 -12 267 -12 c 0,21,22
 173 -12 173 -12 127 38.5 c 128,-1,23
 81 89 81 89 81 158 c 0,24,25
 81 316 81 316 301 412 c 1,26,27
 251 488 251 488 251 544 c 0,0,1
393 458 m 1,28,29
 512 520 512 520 512 594 c 0,30,31
 512 623 512 623 493.5 639.5 c 128,-1,32
 475 656 475 656 446 656 c 0,33,34
 402 656 402 656 373.5 626.5 c 128,-1,35
 345 597 345 597 345 560 c 0,36,37
 345 554 345 554 346 547.5 c 128,-1,38
 347 541 347 541 350 534 c 128,-1,39
 353 527 353 527 355 522 c 128,-1,40
 357 517 357 517 362.5 507.5 c 128,-1,41
 368 498 368 498 371 493 c 128,-1,42
 374 488 374 488 381.5 476 c 128,-1,43
 389 464 389 464 393 458 c 1,28,29
334 354 m 1,44,45
 253 311 253 311 215.5 267 c 128,-1,46
 178 223 178 223 178 172 c 0,47,48
 178 124 178 124 208.5 94 c 128,-1,49
 239 64 239 64 285 64 c 0,50,51
 376 64 376 64 453 155 c 1,52,-1
 334 354 l 1,44,45
EndSplineSet
EndChar

StartChar: quotesingle
Encoding: 39 39 8
Width: 190
VWidth: 2048
Flags: W
HStem: 463 253<196 219>
VStem: 164 132
LayerCount: 3
Fore
SplineSet
164 463 m 1
 171 596 l 1
 196 716 l 1
 296 716 l 1
 271 596 l 1
 219 463 l 1
 164 463 l 1
EndSplineSet
Validated: 1
Layer: 2
SplineSet
164 463 m 1,0,-1
 171 596 l 1,1,-1
 196 716 l 1,2,-1
 296 716 l 1,3,-1
 271 596 l 1,4,-1
 219 463 l 1,5,-1
 164 463 l 1,0,-1
EndSplineSet
EndChar

StartChar: parenleft
Encoding: 40 40 9
Width: 332
VWidth: 2048
Flags: W
HStem: -210 21G<160 252> 708 20G<296 452>
VStem: 100 90<-47.3224 275.75>
LayerCount: 3
Fore
SplineSet
452 728 m 1
 315 563 190 349 190 96 c 0
 190 -6 210 -108 252 -210 c 1
 190 -210 l 1
 130 -107 100 0 100 113 c 0
 100 329 202 536 390 728 c 1
 452 728 l 1
EndSplineSet
Validated: 1
Layer: 2
SplineSet
452 728 m 1,0,1
 190 412 190 412 190 96 c 0,2,3
 190 -59 190 -59 252 -210 c 1,4,-1
 190 -210 l 1,5,6
 100 -55 100 -55 100 113 c 0,7,8
 100 432 100 432 390 728 c 1,9,-1
 452 728 l 1,0,1
EndSplineSet
EndChar

StartChar: parenright
Encoding: 41 41 10
Width: 332
VWidth: 2048
Flags: W
HStem: -210 21G<16 213> 708 20G<216 308.5>
VStem: 281 86<249.545 563.399>
LayerCount: 3
Fore
SplineSet
16 -210 m 1
 190 -1 281 214 281 428 c 0
 281 539 253 626 216 728 c 1
 279 728 l 1
 338 619 367 509 367 397 c 0
 367 303 347 58 79 -210 c 1
 16 -210 l 1
EndSplineSet
Validated: 1
Layer: 2
SplineSet
16 -210 m 1,0,1
 281 108 281 108 281 428 c 0,2,3
 281 504 281 504 265 570.5 c 128,-1,4
 249 637 249 637 216 728 c 1,5,-1
 279 728 l 1,6,7
 367 565 367 565 367 397 c 0,8,9
 367 360 367 360 363 323 c 128,-1,10
 359 286 359 286 342 220.5 c 128,-1,11
 325 155 325 155 296.5 92 c 128,-1,12
 268 29 268 29 211.5 -52.5 c 128,-1,13
 155 -134 155 -134 79 -210 c 1,14,-1
 16 -210 l 1,0,1
EndSplineSet
EndChar

StartChar: asterisk
Encoding: 42 42 11
Width: 387
VWidth: 2048
Flags: W
HStem: 584 71<410.363 470.789> 708 20G<311 382>
VStem: 313 69<654.381 728>
LayerCount: 3
Fore
SplineSet
156 584 m 1
 193 655 l 1
 241 636 276 621 296 607 c 1
 302 665 309 707 313 728 c 1
 382 728 l 1
 375 696 361 656 345 607 c 1
 383 624 424 639 470 655 c 1
 478 584 l 1
 434 572 393 563 352 558 c 1
 368 540 390 509 416 464 c 1
 348 423 l 1
 335 449 318 484 304 529 c 1
 269 483 241 448 217 423 c 1
 168 464 l 1
 216 512 251 543 271 558 c 1
 230 566 191 575 156 584 c 1
EndSplineSet
Validated: 1
Layer: 2
SplineSet
156 584 m 1,0,-1
 193 655 l 1,1,2
 272 624 272 624 296 607 c 1,3,4
 303 676 303 676 313 728 c 1,5,-1
 382 728 l 1,6,7
 377 705 377 705 345 607 c 1,8,9
 390 627 390 627 470 655 c 1,10,-1
 478 584 l 1,11,12
 407 565 407 565 352 558 c 1,13,14
 380 527 380 527 416 464 c 1,15,-1
 348 423 l 1,16,17
 319 481 319 481 304 529 c 1,18,19
 248 455 248 455 217 423 c 1,20,-1
 168 464 l 1,21,22
 235 531 235 531 271 558 c 1,23,24
 213 569 213 569 156 584 c 1,0,-1
EndSplineSet
EndChar

StartChar: plus
Encoding: 43 43 12
Width: 583
VWidth: 2048
Flags: W
HStem: 313 81<139 318 418 596> 569 20G<371.795 459>
DStem2: 276 116 359 116 0.207912 0.978148<17.2567 201.427 301.449 483.455>
LayerCount: 3
Fore
SplineSet
276 116 m 1
 318 313 l 1
 122 313 l 1
 139 394 l 1
 335 394 l 1
 376 589 l 1
 459 589 l 1
 418 394 l 1
 613 394 l 1
 596 313 l 1
 401 313 l 1
 359 116 l 1
 276 116 l 1
EndSplineSet
Validated: 1
Layer: 2
SplineSet
276 116 m 1,0,-1
 318 313 l 1,1,-1
 122 313 l 1,2,-1
 139 394 l 1,3,-1
 335 394 l 1,4,-1
 376 589 l 1,5,-1
 459 589 l 1,6,-1
 418 394 l 1,7,-1
 613 394 l 1,8,-1
 596 313 l 1,9,-1
 401 313 l 1,10,-1
 359 116 l 1,11,-1
 276 116 l 1,0,-1
EndSplineSet
EndChar

StartChar: comma
Encoding: 44 44 13
Width: 277
VWidth: 2048
Flags: W
HStem: -141 241
VStem: 61 150
LayerCount: 3
Fore
SplineSet
89 0 m 1
 110 100 l 1
 211 100 l 1
 190 0 l 2
 175 -71 137 -118 77 -141 c 1
 61 -104 l 1
 99 -89 125 -54 138 0 c 1
 89 0 l 1
EndSplineSet
Validated: 1
Layer: 2
SplineSet
89 0 m 1,0,-1
 110 100 l 1,1,-1
 211 100 l 1,2,-1
 190 0 l 2,3,4
 168 -106 168 -106 77 -141 c 1,5,-1
 61 -104 l 1,6,7
 118 -81 118 -81 138 0 c 1,8,-1
 89 0 l 1,0,-1
EndSplineSet
EndChar

StartChar: hyphen
Encoding: 45 45 14
AltUni2: 002010.ffffffff.0
Width: 332
VWidth: 2048
Flags: W
HStem: 215 88<96 348>
VStem: 78 288
LayerCount: 3
Fore
SplineSet
78 215 m 1
 96 303 l 1
 366 303 l 1
 348 215 l 1
 78 215 l 1
EndSplineSet
Validated: 1
Layer: 2
SplineSet
78 215 m 1,0,-1
 96 303 l 1,1,-1
 366 303 l 1,2,-1
 348 215 l 1,3,-1
 78 215 l 1,0,-1
EndSplineSet
EndChar

StartChar: period
Encoding: 46 46 15
Width: 277
VWidth: 2048
Flags: W
HStem: 0 100<111 192>
VStem: 90 123
LayerCount: 3
Fore
SplineSet
90 0 m 1
 111 100 l 1
 213 100 l 1
 192 0 l 1
 90 0 l 1
EndSplineSet
Validated: 1
Layer: 2
SplineSet
90 0 m 1,0,-1
 111 100 l 1,1,-1
 213 100 l 1,2,-1
 192 0 l 1,3,-1
 90 0 l 1,0,-1
EndSplineSet
EndChar

StartChar: slash
Encoding: 47 47 16
Width: 277
VWidth: 2048
Flags: W
HStem: -12 21G<-3 77.8378> 708 20G<352.135 432>
DStem2: -3 -12 68 -12 0.442359 0.896838<31.4075 825.121>
LayerCount: 3
Fore
SplineSet
-3 -12 m 1
 362 728 l 1
 432 728 l 1
 68 -12 l 1
 -3 -12 l 1
EndSplineSet
Validated: 1
Layer: 2
SplineSet
-3 -12 m 1,0,-1
 362 728 l 1,1,-1
 432 728 l 1,2,-1
 68 -12 l 1,3,-1
 -3 -12 l 1,0,-1
EndSplineSet
EndChar

StartChar: zero
Encoding: 48 48 17
Width: 556
VWidth: 2048
Flags: W
HStem: -12 72<226.991 352.763> 658 72<349.759 476.168>
VStem: 98 89<105.459 369.525> 515 90<350.488 613.722>
LayerCount: 3
Fore
SplineSet
431 730 m 0
 547 730 605 659 605 521 c 0
 605 387 539 -12 273 -12 c 0
 156 -12 98 59 98 198 c 0
 98 336 165 730 431 730 c 0
414 658 m 0
 244 658 187 312 187 207 c 0
 187 110 221 60 289 60 c 0
 453 60 515 389 515 510 c 0
 515 607 482 658 414 658 c 0
EndSplineSet
Validated: 1
Layer: 2
SplineSet
431 730 m 0,0,1
 605 730 605 730 605 521 c 0,2,3
 605 475 605 475 596.5 414 c 128,-1,4
 588 353 588 353 564.5 276 c 128,-1,5
 541 199 541 199 505.5 136.5 c 128,-1,6
 470 74 470 74 409 31 c 128,-1,7
 348 -12 348 -12 273 -12 c 0,8,9
 98 -12 98 -12 98 198 c 0,10,11
 98 246 98 246 106.5 307 c 128,-1,12
 115 368 115 368 139 444.5 c 128,-1,13
 163 521 163 521 198.5 583 c 128,-1,14
 234 645 234 645 295 687.5 c 128,-1,15
 356 730 356 730 431 730 c 0,0,1
414 658 m 0,16,17
 366 658 366 658 325.5 621 c 128,-1,18
 285 584 285 584 260.5 529.5 c 128,-1,19
 236 475 236 475 218.5 410.5 c 128,-1,20
 201 346 201 346 194 294 c 128,-1,21
 187 242 187 242 187 207 c 0,22,23
 187 60 187 60 289 60 c 0,24,25
 346 60 346 60 392.5 112.5 c 128,-1,26
 439 165 439 165 464 241 c 128,-1,27
 489 317 489 317 502 388 c 128,-1,28
 515 459 515 459 515 510 c 0,29,30
 515 658 515 658 414 658 c 0,16,17
EndSplineSet
EndChar

StartChar: one
Encoding: 49 49 18
Width: 556
VWidth: 2048
Flags: W
HStem: 0 21G<285 378.246> 696 20G<443 526>
VStem: 468 58<689.564 716>
DStem2: 285 0 374 0 0.207912 0.978148<18.5041 570.548>
LayerCount: 3
Fore
SplineSet
374 0 m 1
 285 0 l 1
 404 558 l 1
 347 512 281 477 205 451 c 1
 223 537 l 1
 336 584 418 644 468 716 c 1
 526 716 l 1
 374 0 l 1
EndSplineSet
Validated: 1
Layer: 2
SplineSet
374 0 m 1,0,-1
 285 0 l 1,1,-1
 404 558 l 1,2,3
 320 490 320 490 205 451 c 1,4,-1
 223 537 l 1,5,6
 393 608 393 608 468 716 c 1,7,-1
 526 716 l 1,8,-1
 374 0 l 1,0,-1
EndSplineSet
EndChar

StartChar: two
Encoding: 50 50 19
Width: 556
VWidth: 2048
Flags: W
HStem: 0 72<154 501> 658 72<328.804 491.285>
VStem: 528 91<489.678 620.437>
LayerCount: 3
Fore
SplineSet
619 577 m 0
 619 358 269 213 154 72 c 1
 516 72 l 1
 501 0 l 1
 28 0 l 1
 59 145 309 290 382 353 c 0
 508 460 528 519 528 561 c 0
 528 621 482 658 416 658 c 0
 329 658 263 604 244 514 c 1
 155 523 l 1
 197 661 290 730 432 730 c 0
 546 730 619 673 619 577 c 0
EndSplineSet
Validated: 1
Layer: 2
SplineSet
619 577 m 0,0,1
 619 515 619 515 582.5 455 c 128,-1,2
 546 395 546 395 487.5 344 c 128,-1,3
 429 293 429 293 368.5 248.5 c 128,-1,4
 308 204 308 204 246 156 c 128,-1,5
 184 108 184 108 154 72 c 1,6,-1
 516 72 l 1,7,-1
 501 0 l 1,8,-1
 28 0 l 1,9,10
 39 50 39 50 88 108.5 c 128,-1,11
 137 167 137 167 187.5 206.5 c 128,-1,12
 238 246 238 246 302 292.5 c 128,-1,13
 366 339 366 339 382 353 c 0,14,15
 528 477 528 477 528 561 c 0,16,17
 528 605 528 605 497 631.5 c 128,-1,18
 466 658 466 658 416 658 c 0,19,20
 350 658 350 658 304 619.5 c 128,-1,21
 258 581 258 581 244 514 c 1,22,-1
 155 523 l 1,23,24
 218 730 218 730 432 730 c 0,25,26
 518 730 518 730 568.5 689.5 c 128,-1,27
 619 649 619 649 619 577 c 0,0,1
EndSplineSet
EndChar

StartChar: three
Encoding: 51 51 20
Width: 556
VWidth: 2048
Flags: W
HStem: -12 72<216.242 365.828> 344 76<314 351.246> 354 66<314 419.711> 526 21G<166 266> 658 72<332.424 474.652>
VStem: 81 92<107.094 193> 466 92<165.928 315.899> 503 91<499.003 629.631>
LayerCount: 3
Fore
SplineSet
558 269 m 0xde
 558 130 442 -12 267 -12 c 0
 138 -12 81 63 81 166 c 0
 81 175 81 184 82 193 c 1
 173 204 l 1
 173 110 209 60 283 60 c 0
 392 60 466 160 466 248 c 0
 466 312 424 354 352 354 c 0xbe
 336 354 315 350 289 344 c 1
 314 420 l 1
 336 420 l 2
 432 420 503 494 503 571 c 0
 503 626 464 658 408 658 c 0
 335 658 282 612 250 526 c 1
 166 541 l 1
 216 666 301 730 422 730 c 0
 532 730 594 669 594 583 c 0xdd
 594 524 568 439 458 393 c 1
 526 377 558 334 558 269 c 0xde
EndSplineSet
Validated: 1
Layer: 2
SplineSet
558 269 m 0,0,1
 558 159 558 159 475.5 73.5 c 128,-1,2
 393 -12 393 -12 267 -12 c 0,3,4
 174 -12 174 -12 127.5 36.5 c 128,-1,5
 81 85 81 85 81 166 c 0,6,7
 81 184 81 184 82 193 c 1,8,-1
 173 204 l 1,9,10
 173 60 173 60 283 60 c 0,11,12
 361 60 361 60 413.5 119 c 128,-1,13
 466 178 466 178 466 248 c 0,14,15
 466 297 466 297 435.5 325.5 c 128,-1,16
 405 354 405 354 352 354 c 0,17,18
 332 354 332 354 289 344 c 1,19,-1
 314 420 l 1,20,-1
 336 420 l 2,21,22
 406 420 406 420 454.5 466 c 128,-1,23
 503 512 503 512 503 571 c 0,24,25
 503 612 503 612 477 635 c 128,-1,26
 451 658 451 658 408 658 c 0,27,28
 299 658 299 658 250 526 c 1,29,-1
 166 541 l 1,30,31
 242 730 242 730 422 730 c 0,32,33
 503 730 503 730 548.5 689.5 c 128,-1,34
 594 649 594 649 594 583 c 0,35,36
 594 549 594 549 584 517 c 128,-1,37
 574 485 574 485 541.5 449.5 c 128,-1,38
 509 414 509 414 458 393 c 1,39,40
 558 369 558 369 558 269 c 0,0,1
EndSplineSet
EndChar

StartChar: four
Encoding: 52 52 21
Width: 556
VWidth: 2048
Flags: W
HStem: 0 21G<323 416.199> 181 72<154 361 466 547> 696 20G<473.598 564>
DStem2: 66 253 154 253 0.677091 0.735899<59.584 493.577> 323 0 412 0 0.207912 0.978148<18.5041 184.945 277.203 587.8>
LayerCount: 3
Fore
SplineSet
323 0 m 1
 361 181 l 1
 50 181 l 1
 66 253 l 1
 492 716 l 1
 564 716 l 1
 466 253 l 1
 563 253 l 1
 547 181 l 1
 450 181 l 1
 412 0 l 1
 323 0 l 1
377 253 m 1
 445 575 l 1
 154 253 l 1
 377 253 l 1
EndSplineSet
Validated: 1
Layer: 2
SplineSet
323 0 m 1,0,-1
 361 181 l 1,1,-1
 50 181 l 1,2,-1
 66 253 l 1,3,-1
 492 716 l 1,4,-1
 564 716 l 1,5,-1
 466 253 l 1,6,-1
 563 253 l 1,7,-1
 547 181 l 1,8,-1
 450 181 l 1,9,-1
 412 0 l 1,10,-1
 323 0 l 1,0,-1
377 253 m 1,11,-1
 445 575 l 1,12,-1
 154 253 l 1,13,-1
 377 253 l 1,11,-1
EndSplineSet
EndChar

StartChar: five
Encoding: 53 53 22
Width: 556
VWidth: 2048
Flags: W
HStem: -12 72<211.214 365.078> 404 72<291.687 434.952> 644 72<335 620>
VStem: 80 94<99.9205 189> 478 93<193.151 360.764>
DStem2: 130 343 251 433 0.370961 0.928648<19.4618 66.7027 128.465 355.57>
LayerCount: 3
Fore
SplineSet
284 60 m 0
 395 60 478 173 478 284 c 0
 478 343 452 404 356 404 c 0
 299 404 251 378 210 332 c 1
 130 343 l 1
 279 716 l 1
 635 716 l 1
 620 644 l 1
 335 644 l 1
 251 433 l 1
 301 464 348 476 394 476 c 0
 512 476 571 407 571 307 c 0
 571 157 453 -12 268 -12 c 0
 150 -12 80 51 80 161 c 0
 80 170 80 179 81 189 c 1
 174 195 l 1
 174 190 174 185 174 180 c 0
 174 101 211 60 284 60 c 0
EndSplineSet
Validated: 1
Layer: 2
SplineSet
284 60 m 0,0,1
 365 60 365 60 421.5 129 c 128,-1,2
 478 198 478 198 478 284 c 0,3,4
 478 336 478 336 450 370 c 128,-1,5
 422 404 422 404 356 404 c 0,6,7
 274 404 274 404 210 332 c 1,8,-1
 130 343 l 1,9,-1
 279 716 l 1,10,-1
 635 716 l 1,11,-1
 620 644 l 1,12,-1
 335 644 l 1,13,-1
 251 433 l 1,14,15
 320 476 320 476 394 476 c 0,16,17
 480 476 480 476 525.5 430 c 128,-1,18
 571 384 571 384 571 307 c 256,19,20
 571 230 571 230 535 158 c 128,-1,21
 499 86 499 86 427.5 37 c 128,-1,22
 356 -12 356 -12 268 -12 c 0,23,24
 179 -12 179 -12 129.5 33.5 c 128,-1,25
 80 79 80 79 80 161 c 0,26,27
 80 179 80 179 81 189 c 1,28,-1
 174 195 l 1,29,-1
 174 180 l 2,30,31
 174 60 174 60 284 60 c 0,0,1
EndSplineSet
EndChar

StartChar: six
Encoding: 54 54 23
Width: 556
VWidth: 2048
Flags: W
HStem: -12 72<229.143 370.533> 394 72<295.736 435.789> 658 72<351.877 493.001>
VStem: 93 90<107.175 281.152> 475 91<185.318 353.498> 526 89<549 622.038>
LayerCount: 3
Fore
SplineSet
566 296 m 0xf8
 566 162 463 -12 284 -12 c 0
 156 -12 93 60 93 199 c 0
 93 240 98 288 109 341 c 0
 163 597 278 730 449 730 c 0
 596 730 615 629 615 567 c 2
 615 549 l 1
 526 543 l 1xf4
 525 617 494 658 428 658 c 0
 309 658 237 524 205 374 c 1
 260 439 324 466 398 466 c 0
 505 466 566 396 566 296 c 0xf8
298 60 m 0
 407 60 475 182 475 281 c 0xf8
 475 366 417 394 366 394 c 0
 250 394 183 281 183 187 c 0
 183 113 225 60 298 60 c 0
EndSplineSet
Validated: 1
Layer: 2
SplineSet
566 296 m 0,0,1
 566 226 566 226 534 157 c 128,-1,2
 502 88 502 88 435.5 38 c 128,-1,3
 369 -12 369 -12 284 -12 c 0,4,5
 93 -12 93 -12 93 199 c 0,6,7
 93 264 93 264 109 341 c 0,8,9
 191 730 191 730 449 730 c 0,10,11
 501 730 501 730 536.5 714 c 128,-1,12
 572 698 572 698 587.5 671 c 128,-1,13
 603 644 603 644 609 619.5 c 128,-1,14
 615 595 615 595 615 567 c 2,15,-1
 615 549 l 1,16,-1
 526 543 l 1,17,18
 524 658 524 658 428 658 c 0,19,20
 371 658 371 658 324.5 617 c 128,-1,21
 278 576 278 576 250 514.5 c 128,-1,22
 222 453 222 453 205 374 c 1,23,24
 283 466 283 466 398 466 c 0,25,26
 477 466 477 466 521.5 419.5 c 128,-1,27
 566 373 566 373 566 296 c 0,0,1
298 60 m 0,28,29
 375 60 375 60 425 130 c 128,-1,30
 475 200 475 200 475 281 c 0,31,32
 475 340 475 340 442.5 367 c 128,-1,33
 410 394 410 394 366 394 c 0,34,35
 284 394 284 394 233.5 329 c 128,-1,36
 183 264 183 264 183 187 c 0,37,38
 183 130 183 130 213.5 95 c 128,-1,39
 244 60 244 60 298 60 c 0,28,29
EndSplineSet
EndChar

StartChar: seven
Encoding: 55 55 24
Width: 556
VWidth: 2048
Flags: W
HStem: 0 21G<147 274.5> 644 72<200 536>
VStem: 147 91<0 62.0117>
LayerCount: 3
Fore
SplineSet
147 0 m 1
 205 240 385 509 536 644 c 1
 185 644 l 1
 200 716 l 1
 662 716 l 1
 650 661 l 1
 498 528 311 265 238 0 c 1
 147 0 l 1
EndSplineSet
Validated: 1
Layer: 2
SplineSet
147 0 m 1,0,1
 189 172 189 172 302.5 354.5 c 128,-1,2
 416 537 416 537 536 644 c 1,3,-1
 185 644 l 1,4,-1
 200 716 l 1,5,-1
 662 716 l 1,6,-1
 650 661 l 1,7,8
 526 553 526 553 408 370.5 c 128,-1,9
 290 188 290 188 238 0 c 1,10,-1
 147 0 l 1,0,1
EndSplineSet
EndChar

StartChar: eight
Encoding: 56 56 25
Width: 556
VWidth: 2048
Flags: W
HStem: -12 72<216.095 371.998> 356 72<301.3 424.619> 658 72<341.759 479.904>
VStem: 80 91<103.974 256.272> 181 91<457.222 591.038> 471 91<158.962 311.192> 511 91<495.46 628.478>
LayerCount: 3
Fore
SplineSet
562 259 m 0xfc
 562 120 441 -12 273 -12 c 0
 154 -12 80 56 80 159 c 0
 80 232 117 358 260 393 c 1
 208 415 181 452 181 504 c 0
 181 604 270 730 431 730 c 0
 541 730 602 669 602 583 c 0xfa
 602 521 573 433 463 393 c 1
 530 370 562 324 562 259 c 0xfc
368 428 m 0
 451 428 511 495 511 569 c 0
 511 625 471 658 416 658 c 0
 357 658 272 610 272 517 c 0
 272 463 308 428 368 428 c 0
290 60 m 0
 396 60 471 152 471 242 c 0xfc
 471 311 422 356 350 356 c 0
 252 356 171 266 171 173 c 0
 171 100 224 60 290 60 c 0
EndSplineSet
Validated: 1
Layer: 2
SplineSet
562 259 m 0,0,1
 562 151 562 151 479 69.5 c 128,-1,2
 396 -12 396 -12 273 -12 c 0,3,4
 184 -12 184 -12 132 34.5 c 128,-1,5
 80 81 80 81 80 159 c 0,6,7
 80 190 80 190 88.5 222.5 c 128,-1,8
 97 255 97 255 116 290 c 128,-1,9
 135 325 135 325 172 353 c 128,-1,10
 209 381 209 381 260 393 c 1,11,12
 181 426 181 426 181 504 c 0,13,14
 181 587 181 587 249.5 658.5 c 128,-1,15
 318 730 318 730 431 730 c 0,16,17
 512 730 512 730 557 689.5 c 128,-1,18
 602 649 602 649 602 583 c 0,19,20
 602 558 602 558 595.5 532.5 c 128,-1,21
 589 507 589 507 574 480 c 128,-1,22
 559 453 559 453 530.5 430 c 128,-1,23
 502 407 502 407 463 393 c 1,24,25
 562 359 562 359 562 259 c 0,0,1
368 428 m 0,26,27
 429 428 429 428 470 470 c 128,-1,28
 511 512 511 512 511 569 c 0,29,30
 511 610 511 610 484.5 634 c 128,-1,31
 458 658 458 658 416 658 c 0,32,33
 365 658 365 658 318.5 619.5 c 128,-1,34
 272 581 272 581 272 517 c 0,35,36
 272 476 272 476 297.5 452 c 128,-1,37
 323 428 323 428 368 428 c 0,26,27
290 60 m 0,38,39
 367 60 367 60 419 116 c 128,-1,40
 471 172 471 172 471 242 c 0,41,42
 471 294 471 294 437.5 325 c 128,-1,43
 404 356 404 356 350 356 c 0,44,45
 278 356 278 356 224.5 300 c 128,-1,46
 171 244 171 244 171 173 c 0,47,48
 171 120 171 120 204.5 90 c 128,-1,49
 238 60 238 60 290 60 c 0,38,39
EndSplineSet
EndChar

StartChar: nine
Encoding: 57 57 26
Width: 556
VWidth: 2048
Flags: W
HStem: -12 72<206.691 348.561> 250 72<274.121 405.74> 658 72<342.058 482.241>
VStem: 90 86<91.4242 168.625> 138 90<369.266 532.112> 524 86<438.714 613.754>
LayerCount: 3
Fore
SplineSet
138 425 m 0xec
 138 561 240 730 422 730 c 0
 538 730 610 671 610 524 c 0
 610 482 604 433 592 377 c 0
 538 121 425 -12 253 -12 c 0
 149 -12 90 46 90 145 c 0
 90 153 90 161 91 169 c 1
 176 176 l 1
 176 169 l 2xf4
 176 98 207 60 271 60 c 0
 410 60 474 237 486 295 c 2
 496 342 l 1
 443 279 381 250 307 250 c 0
 202 250 138 321 138 425 c 0xec
417 658 m 0
 308 658 228 537 228 442 c 0xec
 228 366 279 322 344 322 c 0
 452 322 524 437 524 536 c 0
 524 605 488 658 417 658 c 0
EndSplineSet
Validated: 1
Layer: 2
SplineSet
138 425 m 0,0,1
 138 496 138 496 170 564.5 c 128,-1,2
 202 633 202 633 269 681.5 c 128,-1,3
 336 730 336 730 422 730 c 0,4,5
 610 730 610 730 610 524 c 0,6,7
 610 461 610 461 592 377 c 0,8,9
 510 -12 510 -12 253 -12 c 0,10,11
 175 -12 175 -12 132.5 29.5 c 128,-1,12
 90 71 90 71 90 145 c 0,13,14
 90 161 90 161 91 169 c 1,15,-1
 176 176 l 1,16,-1
 176 169 l 2,17,18
 176 60 176 60 271 60 c 0,19,20
 310 60 310 60 345 79 c 128,-1,21
 380 98 380 98 403.5 125.5 c 128,-1,22
 427 153 427 153 445 187.5 c 128,-1,23
 463 222 463 222 472.5 248 c 128,-1,24
 482 274 482 274 486 295 c 2,25,-1
 496 342 l 1,26,27
 419 250 419 250 307 250 c 0,28,29
 229 250 229 250 183.5 298 c 128,-1,30
 138 346 138 346 138 425 c 0,0,1
417 658 m 0,31,32
 339 658 339 658 283.5 588 c 128,-1,33
 228 518 228 518 228 442 c 0,34,35
 228 387 228 387 261 354.5 c 128,-1,36
 294 322 294 322 344 322 c 0,37,38
 421 322 421 322 472.5 389 c 128,-1,39
 524 456 524 456 524 536 c 0,40,41
 524 590 524 590 496 624 c 128,-1,42
 468 658 468 658 417 658 c 0,31,32
EndSplineSet
EndChar

StartChar: colon
Encoding: 58 58 27
Width: 277
VWidth: 2048
Flags: W
HStem: 0 100<111 192> 418 100<200 281>
VStem: 90 212
DStem2: 90 0 192 0 0.207912 0.978148<21.207 102.181 448.577 529.551>
LayerCount: 3
Fore
SplineSet
179 418 m 1
 200 518 l 1
 302 518 l 1
 281 418 l 1
 179 418 l 1
90 0 m 1
 111 100 l 1
 213 100 l 1
 192 0 l 1
 90 0 l 1
EndSplineSet
Validated: 1
Layer: 2
SplineSet
179 418 m 1,0,-1
 200 518 l 1,1,-1
 302 518 l 1,2,-1
 281 418 l 1,3,-1
 179 418 l 1,0,-1
90 0 m 1,4,-1
 111 100 l 1,5,-1
 213 100 l 1,6,-1
 192 0 l 1,7,-1
 90 0 l 1,4,-1
EndSplineSet
EndChar

StartChar: semicolon
Encoding: 59 59 28
Width: 277
VWidth: 2048
Flags: W
HStem: 418 100<199 279>
VStem: 61 239
DStem2: 59.0295 -141 160.03 -141 0.207912 0.978148<155.068 246.331 592.519 673.701>
LayerCount: 3
Fore
SplineSet
178 418 m 1
 199 518 l 1
 300 518 l 1
 279 418 l 1
 178 418 l 1
89 0 m 1
 110 100 l 1
 211 100 l 1
 190 0 l 2
 175 -71 137 -118 77 -141 c 1
 61 -104 l 1
 99 -89 125 -54 138 0 c 1
 89 0 l 1
EndSplineSet
Validated: 1
Layer: 2
SplineSet
178 418 m 1,0,-1
 199 518 l 1,1,-1
 300 518 l 1,2,-1
 279 418 l 1,3,-1
 178 418 l 1,0,-1
89 0 m 1,4,-1
 110 100 l 1,5,-1
 211 100 l 1,6,-1
 190 0 l 2,7,8
 168 -106 168 -106 77 -141 c 1,9,-1
 61 -104 l 1,10,11
 118 -81 118 -81 138 0 c 1,12,-1
 89 0 l 1,4,-1
EndSplineSet
EndChar

StartChar: less
Encoding: 60 60 29
Width: 583
VWidth: 2048
Flags: W
HStem: 576 20G<604.557 651.632>
DStem2: 228 354 122 313 0.904294 -0.426911<0 376.771> 139 395 228 354 0.932038 0.362359<68.0947 505.464>
LayerCount: 3
Fore
SplineSet
122 313 m 1
 139 395 l 1
 656 596 l 1
 637 509 l 1
 228 354 l 1
 571 198 l 1
 552 110 l 1
 122 313 l 1
EndSplineSet
Validated: 1
Layer: 2
SplineSet
122 313 m 1,0,-1
 139 395 l 1,1,-1
 656 596 l 1,2,-1
 637 509 l 1,3,-1
 228 354 l 1,4,-1
 571 198 l 1,5,-1
 552 110 l 1,6,-1
 122 313 l 1,0,-1
EndSplineSet
EndChar

StartChar: equal
Encoding: 61 61 30
Width: 583
VWidth: 2048
Flags: W
HStem: 215 72<116 575> 431 72<162 621>
LayerCount: 3
Fore
SplineSet
621 431 m 1
 147 431 l 1
 162 503 l 1
 636 503 l 1
 621 431 l 1
575 215 m 1
 101 215 l 1
 116 287 l 1
 590 287 l 1
 575 215 l 1
EndSplineSet
Validated: 1
Layer: 2
SplineSet
621 431 m 1,0,-1
 147 431 l 1,1,-1
 162 503 l 1,2,-1
 636 503 l 1,3,-1
 621 431 l 1,0,-1
575 215 m 1,4,-1
 101 215 l 1,5,-1
 116 287 l 1,6,-1
 590 287 l 1,7,-1
 575 215 l 1,4,-1
EndSplineSet
EndChar

StartChar: greater
Encoding: 62 62 31
Width: 583
VWidth: 2048
Flags: W
HStem: 576 20G<177.632 224.886>
DStem2: 97 198 78 110 0.931057 0.364874<0 437.723> 182 596 163 509 0.906291 -0.422655<19.5515 395.921>
LayerCount: 3
Fore
SplineSet
596 313 m 1
 78 110 l 1
 97 198 l 1
 506 354 l 1
 163 509 l 1
 182 596 l 1
 613 395 l 1
 596 313 l 1
EndSplineSet
Validated: 1
Layer: 2
SplineSet
596 313 m 1,0,-1
 78 110 l 1,1,-1
 97 198 l 1,2,-1
 506 354 l 1,3,-1
 163 509 l 1,4,-1
 182 596 l 1,5,-1
 613 395 l 1,6,-1
 596 313 l 1,0,-1
EndSplineSet
EndChar

StartChar: question
Encoding: 63 63 32
Width: 556
VWidth: 2048
Flags: W
HStem: 0 100<246 325> 656 72<334.61 490.06>
VStem: 531 92<493.316 616.069>
DStem2: 225 0 325 0 0.207912 0.978148<20.7912 102.181 199.39 308.768>
LayerCount: 3
Fore
SplineSet
353 349 m 0
 420 408 531 463 531 555 c 0
 531 617 482 656 416 656 c 0
 337 656 279 609 243 510 c 1
 155 521 l 1
 201 659 293 728 431 728 c 0
 542 728 623 676 623 577 c 0
 623 443 489 387 418 308 c 0
 390 277 370 236 356 176 c 1
 267 176 l 1
 276 217 l 2
 289 276 330 329 353 349 c 0
225 0 m 1
 246 100 l 1
 346 100 l 1
 325 0 l 1
 225 0 l 1
EndSplineSet
Validated: 1
Layer: 2
SplineSet
353 349 m 0,0,1
 369 363 369 363 407.5 392.5 c 128,-1,2
 446 422 446 422 468.5 441 c 128,-1,3
 491 460 491 460 511 491.5 c 128,-1,4
 531 523 531 523 531 555 c 0,5,6
 531 601 531 601 498.5 628.5 c 128,-1,7
 466 656 466 656 416 656 c 0,8,9
 296 656 296 656 243 510 c 1,10,-1
 155 521 l 1,11,12
 224 728 224 728 431 728 c 0,13,14
 517 728 517 728 570 688.5 c 128,-1,15
 623 649 623 649 623 577 c 0,16,17
 623 530 623 530 600 488.5 c 128,-1,18
 577 447 577 447 548.5 422.5 c 128,-1,19
 520 398 520 398 479 364 c 128,-1,20
 438 330 438 330 418 308 c 0,21,22
 376 261 376 261 356 176 c 1,23,-1
 267 176 l 1,24,-1
 276 217 l 2,25,26
 285 257 285 257 308.5 293.5 c 128,-1,27
 332 330 332 330 353 349 c 0,0,1
225 0 m 1,28,-1
 246 100 l 1,29,-1
 346 100 l 1,30,-1
 325 0 l 1,31,-1
 225 0 l 1,28,-1
EndSplineSet
EndChar

StartChar: at
Encoding: 64 64 33
Width: 1014
VWidth: 2048
Flags: W
HStem: -210 72<358.701 672.046> -2 72<397.099 498.542 646.297 760.619> 458 72<527.886 657.383> 498 20G<760.282 856> 658 72<537.947 805.271>
VStem: 91 76<26.3675 268.229> 280 91<97.8857 264.414> 965 74<310.829 515.88>
LayerCount: 3
Fore
SplineSet
675 658 m 0xdf
 370 658 167 383 167 143 c 0
 167 -15 266 -138 518 -138 c 0
 679 -138 804 -89 894 9 c 1
 981 9 l 1
 890 -128 696 -210 504 -210 c 0
 190 -210 91 -51 91 121 c 0
 91 366 293 730 693 730 c 0
 903 730 1039 615 1039 434 c 0
 1039 212 835 -2 662 -2 c 0
 609 -2 582 18 582 59 c 0
 582 65 583 73 584 80 c 1
 527 26 471 -2 417 -2 c 0
 329 -2 280 62 280 154 c 0
 280 333 459 530 607 530 c 0xef
 669 530 712 500 735 440 c 1
 769 518 l 1
 856 518 l 1
 714 189 l 2
 698 153 683 117 683 99 c 0
 683 83 691 70 709 70 c 0
 797 70 965 236 965 418 c 0
 965 566 851 658 675 658 c 0xdf
450 70 m 0
 581 70 685 255 685 360 c 0
 685 420 653 458 597 458 c 0
 478 458 371 276 371 169 c 0
 371 111 400 70 450 70 c 0
EndSplineSet
Validated: 1
Layer: 2
SplineSet
675 658 m 0,0,1
 586 658 586 658 505.5 627.5 c 128,-1,2
 425 597 425 597 364.5 545.5 c 128,-1,3
 304 494 304 494 258.5 428 c 128,-1,4
 213 362 213 362 190 288.5 c 128,-1,5
 167 215 167 215 167 143 c 0,6,7
 167 16 167 16 253 -61 c 128,-1,8
 339 -138 339 -138 518 -138 c 0,9,10
 759 -138 759 -138 894 9 c 1,11,-1
 981 9 l 1,12,13
 914 -92 914 -92 782.5 -151 c 128,-1,14
 651 -210 651 -210 504 -210 c 0,15,16
 391 -210 391 -210 308 -183 c 128,-1,17
 225 -156 225 -156 179 -108.5 c 128,-1,18
 133 -61 133 -61 112 -4 c 128,-1,19
 91 53 91 53 91 121 c 0,20,21
 91 196 91 196 114.5 278 c 128,-1,22
 138 360 138 360 188 441 c 128,-1,23
 238 522 238 522 307.5 586 c 128,-1,24
 377 650 377 650 477.5 690 c 128,-1,25
 578 730 578 730 693 730 c 0,26,27
 851 730 851 730 945 650 c 128,-1,28
 1039 570 1039 570 1039 434 c 0,29,30
 1039 327 1039 327 981 224.5 c 128,-1,31
 923 122 923 122 835.5 60 c 128,-1,32
 748 -2 748 -2 662 -2 c 0,33,34
 582 -2 582 -2 582 59 c 0,35,36
 582 66 582 66 584 80 c 1,37,38
 497 -2 497 -2 417 -2 c 0,39,40
 352 -2 352 -2 316 40.5 c 128,-1,41
 280 83 280 83 280 154 c 0,42,43
 280 241 280 241 330.5 329.5 c 128,-1,44
 381 418 381 418 457.5 474 c 128,-1,45
 534 530 534 530 607 530 c 0,46,47
 700 530 700 530 735 440 c 1,48,-1
 769 518 l 1,49,-1
 856 518 l 1,50,-1
 714 189 l 2,51,52
 683 119 683 119 683 99 c 0,53,54
 683 70 683 70 709 70 c 0,55,56
 742 70 742 70 786 99.5 c 128,-1,57
 830 129 830 129 870 175.5 c 128,-1,58
 910 222 910 222 937.5 287.5 c 128,-1,59
 965 353 965 353 965 418 c 0,60,61
 965 529 965 529 886.5 593.5 c 128,-1,62
 808 658 808 658 675 658 c 0,0,1
450 70 m 0,63,64
 511 70 511 70 567.5 121 c 128,-1,65
 624 172 624 172 654.5 239 c 128,-1,66
 685 306 685 306 685 360 c 0,67,68
 685 405 685 405 662 431.5 c 128,-1,69
 639 458 639 458 597 458 c 0,70,71
 541 458 541 458 487 408 c 128,-1,72
 433 358 433 358 402 291 c 128,-1,73
 371 224 371 224 371 169 c 0,74,75
 371 125 371 125 392 97.5 c 128,-1,76
 413 70 413 70 450 70 c 0,63,64
EndSplineSet
EndChar

StartChar: A
Encoding: 65 65 34
Width: 666
VWidth: 2048
Flags: W
HStem: 0 21G<-2 111.869 562.542 668> 214 84<277 515> 696 20G<426.682 534.827>
DStem2: -2 0 100 0 0.524429 0.851454<53.4918 302.305 400.049 400.049 639.429 790.546> 531 716 481 504 0.187931 -0.982182<62.2268 407.545>
LayerCount: 3
Fore
SplineSet
439 716 m 1
 531 716 l 1
 668 0 l 1
 566 0 l 1
 529 214 l 1
 227 214 l 1
 100 0 l 1
 -2 0 l 1
 439 716 l 1
277 298 m 1
 515 298 l 1
 481 504 l 2
 475 545 469 587 469 627 c 2
 469 641 l 1
 451 596 426 550 399 504 c 2
 277 298 l 1
EndSplineSet
Validated: 1
Layer: 2
SplineSet
439 716 m 1,0,-1
 531 716 l 1,1,-1
 668 0 l 1,2,-1
 566 0 l 1,3,-1
 529 214 l 1,4,-1
 227 214 l 1,5,-1
 100 0 l 1,6,-1
 -2 0 l 1,7,-1
 439 716 l 1,0,-1
277 298 m 1,8,-1
 515 298 l 1,9,-1
 481 504 l 2,10,11
 469 586 469 586 469 627 c 2,12,-1
 469 641 l 1,13,14
 447 585 447 585 399 504 c 2,15,-1
 277 298 l 1,8,-1
EndSplineSet
EndChar

StartChar: B
Encoding: 66 66 35
Width: 666
VWidth: 2048
Flags: W
HStem: 0 84<187 476.074> 331 84<257 525.382> 632 84<303 571.381>
VStem: 565 96<159.312 295.563> 600 98<485.611 604.82>
DStem2: 74 0 169.145 0 0.207912 0.978148<105.658 358.072 443.979 665.801>
LayerCount: 3
Fore
SplineSet
698 575 m 0xe8
 698 519 674 431 559 382 c 1
 628 359 661 318 661 255 c 0xf0
 661 170 618 0 346 0 c 2
 74 0 l 1
 226 716 l 1
 494 716 l 2
 586 716 698 686 698 575 c 0xe8
411 415 m 2
 511 415 600 443 600 554 c 0xe8
 600 622 538 632 445 632 c 2
 303 632 l 1
 257 415 l 1
 411 415 l 2
565 241 m 0xf0
 565 296 526 331 404 331 c 2
 239 331 l 1
 187 84 l 1
 364 84 l 2
 535 84 565 178 565 241 c 0xf0
EndSplineSet
Validated: 1
Layer: 2
SplineSet
698 575 m 0,0,1
 698 521 698 521 667 468 c 128,-1,2
 636 415 636 415 559 382 c 1,3,4
 661 348 661 348 661 255 c 0,5,6
 661 225 661 225 655 195.5 c 128,-1,7
 649 166 649 166 628.5 129 c 128,-1,8
 608 92 608 92 575 65 c 128,-1,9
 542 38 542 38 483 19 c 128,-1,10
 424 0 424 0 346 0 c 2,11,-1
 74 0 l 1,12,-1
 226 716 l 1,13,-1
 494 716 l 2,14,15
 532 716 532 716 565.5 709 c 128,-1,16
 599 702 599 702 630 687 c 128,-1,17
 661 672 661 672 679.5 643.5 c 128,-1,18
 698 615 698 615 698 575 c 0,0,1
411 415 m 2,19,20
 600 415 600 415 600 554 c 0,21,22
 600 601 600 601 562 616.5 c 128,-1,23
 524 632 524 632 445 632 c 2,24,-1
 303 632 l 1,25,-1
 257 415 l 1,26,-1
 411 415 l 2,19,20
565 241 m 0,27,28
 565 285 565 285 528 308 c 128,-1,29
 491 331 491 331 404 331 c 2,30,-1
 239 331 l 1,31,-1
 187 84 l 1,32,-1
 364 84 l 2,33,34
 425 84 425 84 467 99 c 128,-1,35
 509 114 509 114 529 139.5 c 128,-1,36
 549 165 549 165 557 189.5 c 128,-1,37
 565 214 565 214 565 241 c 0,27,28
EndSplineSet
EndChar

StartChar: C
Encoding: 67 67 36
Width: 721
VWidth: 2048
Flags: W
HStem: -12 84<297.824 499.653> 646 84<411.884 614.53>
VStem: 116 97<157.579 401.382> 684 98<519.429 569.889>
LayerCount: 3
Fore
SplineSet
116 247 m 0
 116 456 241 730 543 730 c 0
 691 730 771 660 782 521 c 1
 684 499 l 1
 673 599 618 646 523 646 c 0
 271 646 213 378 213 262 c 0
 213 146 268 72 394 72 c 0
 507 72 590 130 642 251 c 1
 732 227 l 1
 656 67 540 -12 383 -12 c 0
 206 -12 116 85 116 247 c 0
EndSplineSet
Validated: 1
Layer: 2
SplineSet
116 247 m 0,0,1
 116 312 116 312 131 377.5 c 128,-1,2
 146 443 146 443 179.5 507 c 128,-1,3
 213 571 213 571 261.5 620 c 128,-1,4
 310 669 310 669 383 699.5 c 128,-1,5
 456 730 456 730 543 730 c 0,6,7
 765 730 765 730 782 521 c 1,8,-1
 684 499 l 1,9,10
 668 646 668 646 523 646 c 0,11,12
 451 646 451 646 394.5 617 c 128,-1,13
 338 588 338 588 305 545 c 128,-1,14
 272 502 272 502 250 447 c 128,-1,15
 228 392 228 392 220.5 347 c 128,-1,16
 213 302 213 302 213 262 c 0,17,18
 213 172 213 172 257.5 122 c 128,-1,19
 302 72 302 72 394 72 c 0,20,21
 565 72 565 72 642 251 c 1,22,-1
 732 227 l 1,23,24
 618 -12 618 -12 383 -12 c 0,25,26
 252 -12 252 -12 184 56 c 128,-1,27
 116 124 116 124 116 247 c 0,0,1
EndSplineSet
EndChar

StartChar: D
Encoding: 68 68 37
Width: 721
VWidth: 2048
Flags: W
HStem: 0 84<190 457.291> 632 84<306 582.029>
VStem: 663 97<329.168 557.266>
DStem2: 77 0 172.145 0 0.207912 0.978148<105.658 665.801>
LayerCount: 3
Fore
SplineSet
77 0 m 1
 229 716 l 1
 475 716 l 2
 674 716 760 637 760 485 c 0
 760 344 695 0 336 0 c 2
 77 0 l 1
190 84 m 1
 343 84 l 2
 640 84 663 391 663 466 c 0
 663 578 603 632 456 632 c 2
 306 632 l 1
 190 84 l 1
EndSplineSet
Validated: 1
Layer: 2
SplineSet
77 0 m 1,0,-1
 229 716 l 1,1,-1
 475 716 l 2,2,3
 622 716 622 716 691 658.5 c 128,-1,4
 760 601 760 601 760 485 c 0,5,6
 760 451 760 451 755.5 413.5 c 128,-1,7
 751 376 751 376 738.5 327.5 c 128,-1,8
 726 279 726 279 706.5 234.5 c 128,-1,9
 687 190 687 190 653.5 146.5 c 128,-1,10
 620 103 620 103 577.5 71 c 128,-1,11
 535 39 535 39 472.5 19.5 c 128,-1,12
 410 0 410 0 336 0 c 2,13,-1
 77 0 l 1,0,-1
190 84 m 1,14,-1
 343 84 l 2,15,16
 404 84 404 84 454 101.5 c 128,-1,17
 504 119 504 119 536.5 146 c 128,-1,18
 569 173 569 173 593.5 211 c 128,-1,19
 618 249 618 249 631 284 c 128,-1,20
 644 319 644 319 651.5 358 c 128,-1,21
 659 397 659 397 661 421 c 128,-1,22
 663 445 663 445 663 466 c 0,23,24
 663 551 663 551 614 591.5 c 128,-1,25
 565 632 565 632 456 632 c 2,26,-1
 306 632 l 1,27,-1
 190 84 l 1,14,-1
EndSplineSet
EndChar

StartChar: E
Encoding: 69 69 38
Width: 666
VWidth: 2048
Flags: W
HStem: 0 84<193 613> 328 84<263 640> 632 84<309 732>
DStem2: 80 0 175.145 0 0.207912 0.978148<105.658 355.138 441.045 665.801>
LayerCount: 3
Fore
SplineSet
80 0 m 1
 232 716 l 1
 750 716 l 1
 732 632 l 1
 309 632 l 1
 263 412 l 1
 658 412 l 1
 640 328 l 1
 245 328 l 1
 193 84 l 1
 631 84 l 1
 613 0 l 1
 80 0 l 1
EndSplineSet
Validated: 1
Layer: 2
SplineSet
80 0 m 1,0,-1
 232 716 l 1,1,-1
 750 716 l 1,2,-1
 732 632 l 1,3,-1
 309 632 l 1,4,-1
 263 412 l 1,5,-1
 658 412 l 1,6,-1
 640 328 l 1,7,-1
 245 328 l 1,8,-1
 193 84 l 1,9,-1
 631 84 l 1,10,-1
 613 0 l 1,11,-1
 80 0 l 1,0,-1
EndSplineSet
EndChar

StartChar: F
Encoding: 70 70 39
Width: 610
VWidth: 2048
Flags: W
HStem: 0 21G<83 182.281> 327 84<265 582> 632 84<312 700>
DStem2: 83 0 178 0 0.207912 0.978148<19.7516 354.16 439.859 665.801>
LayerCount: 3
Fore
SplineSet
83 0 m 1
 235 716 l 1
 718 716 l 1
 700 632 l 1
 312 632 l 1
 265 411 l 1
 599 411 l 1
 582 327 l 1
 248 327 l 1
 178 0 l 1
 83 0 l 1
EndSplineSet
Validated: 1
Layer: 2
SplineSet
83 0 m 1,0,-1
 235 716 l 1,1,-1
 718 716 l 1,2,-1
 700 632 l 1,3,-1
 312 632 l 1,4,-1
 265 411 l 1,5,-1
 599 411 l 1,6,-1
 582 327 l 1,7,-1
 248 327 l 1,8,-1
 178 0 l 1,9,-1
 83 0 l 1,0,-1
EndSplineSet
EndChar

StartChar: G
Encoding: 71 71 40
Width: 777
VWidth: 2048
Flags: W
HStem: -12 84<318.176 554.126> 281 84<490 681> 646 84<428.511 649.878>
VStem: 120 97<169.001 400.054> 724 91<516 572.059>
DStem2: 618.203 -12 713.194 -12 0.207912 0.978148<140.474 299.653>
LayerCount: 3
Fore
SplineSet
120 255 m 0
 120 444 243 730 567 730 c 0
 728 730 811 659 815 516 c 1
 724 493 l 1
 717 597 658 646 549 646 c 0
 279 646 217 386 217 271 c 0
 217 145 289 72 429 72 c 0
 512 72 587 98 652 147 c 1
 681 281 l 1
 472 281 l 1
 490 365 l 1
 794 365 l 1
 737 100 l 1
 627 25 520 -12 415 -12 c 0
 184 -12 120 122 120 255 c 0
EndSplineSet
Validated: 1
Layer: 2
SplineSet
120 255 m 0,0,1
 120 314 120 314 135 377 c 128,-1,2
 150 440 150 440 184.5 504 c 128,-1,3
 219 568 219 568 269 617.5 c 128,-1,4
 319 667 319 667 396.5 698.5 c 128,-1,5
 474 730 474 730 567 730 c 0,6,7
 809 730 809 730 815 516 c 1,8,-1
 724 493 l 1,9,10
 714 646 714 646 549 646 c 0,11,12
 472 646 472 646 411 617.5 c 128,-1,13
 350 589 350 589 315 547.5 c 128,-1,14
 280 506 280 506 256.5 452.5 c 128,-1,15
 233 399 233 399 225 354.5 c 128,-1,16
 217 310 217 310 217 271 c 0,17,18
 217 175 217 175 271 123.5 c 128,-1,19
 325 72 325 72 429 72 c 0,20,21
 553 72 553 72 652 147 c 1,22,-1
 681 281 l 1,23,-1
 472 281 l 1,24,-1
 490 365 l 1,25,-1
 794 365 l 1,26,-1
 737 100 l 1,27,28
 573 -12 573 -12 415 -12 c 0,29,30
 332 -12 332 -12 272 10.5 c 128,-1,31
 212 33 212 33 180 72.5 c 128,-1,32
 148 112 148 112 134 156.5 c 128,-1,33
 120 201 120 201 120 255 c 0,0,1
EndSplineSet
EndChar

StartChar: H
Encoding: 72 72 41
Width: 721
VWidth: 2048
Flags: W
HStem: 0 21G<80 179.26 547 646.246> 338 84<265 619> 696 20G<227.754 327 694.782 794>
DStem2: 80 0 175 0 0.207912 0.978148<19.7516 365.335 451.242 731.956> 547 0 642 0 0.207912 0.978148<19.7516 345.584 431.49 731.956>
LayerCount: 3
Fore
SplineSet
80 0 m 1
 232 716 l 1
 327 716 l 1
 265 422 l 1
 637 422 l 1
 699 716 l 1
 794 716 l 1
 642 0 l 1
 547 0 l 1
 619 338 l 1
 247 338 l 1
 175 0 l 1
 80 0 l 1
EndSplineSet
Validated: 1
Layer: 2
SplineSet
80 0 m 1,0,-1
 232 716 l 1,1,-1
 327 716 l 1,2,-1
 265 422 l 1,3,-1
 637 422 l 1,4,-1
 699 716 l 1,5,-1
 794 716 l 1,6,-1
 642 0 l 1,7,-1
 547 0 l 1,8,-1
 619 338 l 1,9,-1
 247 338 l 1,10,-1
 175 0 l 1,11,-1
 80 0 l 1,0,-1
EndSplineSet
EndChar

StartChar: I
Encoding: 73 73 42
Width: 277
VWidth: 2048
Flags: W
HStem: 0 21G<94 193.246> 696 20G<241.754 341>
VStem: 94 247
DStem2: 94 0 189 0 0.207912 0.978148<19.7516 731.956>
LayerCount: 3
Fore
SplineSet
94 0 m 1
 246 716 l 1
 341 716 l 1
 189 0 l 1
 94 0 l 1
EndSplineSet
Validated: 1
Layer: 2
SplineSet
94 0 m 1,0,-1
 246 716 l 1,1,-1
 341 716 l 1,2,-1
 189 0 l 1,3,-1
 94 0 l 1,0,-1
EndSplineSet
EndChar

StartChar: J
Encoding: 74 74 43
Width: 499
VWidth: 2048
Flags: W
HStem: -12 84<174.744 309.655> 696 20G<472.772 572>
VStem: 61 92<94.935 203.792>
DStem2: 322.837 -12 416.986 -12 0.207912 0.978148<125.448 744.144>
LayerCount: 3
Fore
SplineSet
234 72 m 0
 333 72 355 139 373 224 c 2
 477 716 l 1
 572 716 l 1
 468 228 l 2
 434 67 351 -12 216 -12 c 0
 111 -12 61 34 61 124 c 0
 61 148 64 174 71 204 c 1
 158 215 l 1
 155 197 153 180 153 165 c 0
 153 103 180 72 234 72 c 0
EndSplineSet
Validated: 1
Layer: 2
SplineSet
234 72 m 0,0,1
 301 72 301 72 329 109.5 c 128,-1,2
 357 147 357 147 373 224 c 2,3,-1
 477 716 l 1,4,-1
 572 716 l 1,5,-1
 468 228 l 2,6,7
 417 -12 417 -12 216 -12 c 0,8,9
 61 -12 61 -12 61 124 c 0,10,11
 61 161 61 161 71 204 c 1,12,-1
 158 215 l 1,13,14
 153 185 153 185 153 165 c 0,15,16
 153 72 153 72 234 72 c 0,0,1
EndSplineSet
EndChar

StartChar: K
Encoding: 75 75 44
Width: 666
VWidth: 2048
Flags: W
HStem: 0 21G<74 173.274 531.11 665> 696 20G<221.754 321 651.843 803>
DStem2: 74 0 169 0 0.207912 0.978148<19.7516 273.352 387.894 731.956> 246 360 222 248 0.778772 0.627307<0 91.5922 194.042 558.193>
LayerCount: 3
Fore
SplineSet
74 0 m 1
 226 716 l 1
 321 716 l 1
 246 360 l 1
 676 716 l 1
 803 716 l 1
 442 426 l 1
 665 0 l 1
 541 0 l 1
 362 362 l 1
 222 248 l 1
 169 0 l 1
 74 0 l 1
EndSplineSet
Validated: 1
Layer: 2
SplineSet
74 0 m 1,0,-1
 226 716 l 1,1,-1
 321 716 l 1,2,-1
 246 360 l 1,3,-1
 676 716 l 1,4,-1
 803 716 l 1,5,-1
 442 426 l 1,6,-1
 665 0 l 1,7,-1
 541 0 l 1,8,-1
 362 362 l 1,9,-1
 222 248 l 1,10,-1
 169 0 l 1,11,-1
 74 0 l 1,0,-1
EndSplineSet
EndChar

StartChar: L
Encoding: 76 76 45
Width: 556
VWidth: 2048
Flags: W
HStem: 0 84<187 521> 696 20G<221.754 321>
DStem2: 74 0 169.145 0 0.207912 0.978148<105.658 731.956>
LayerCount: 3
Fore
SplineSet
74 0 m 1
 226 716 l 1
 321 716 l 1
 187 84 l 1
 539 84 l 1
 521 0 l 1
 74 0 l 1
EndSplineSet
Validated: 1
Layer: 2
SplineSet
74 0 m 1,0,-1
 226 716 l 1,1,-1
 321 716 l 1,2,-1
 187 84 l 1,3,-1
 539 84 l 1,4,-1
 521 0 l 1,5,-1
 74 0 l 1,0,-1
EndSplineSet
EndChar

StartChar: M
Encoding: 77 77 46
Width: 832
VWidth: 2048
Flags: W
HStem: 0 21G<75 174.264 370.554 469.975 662 761.246> 696 20G<222.754 376.286 751.244 909>
DStem2: 75 0 170 0 0.207912 0.978148<19.7516 638.352> 374 716 299 605 0.121409 -0.992603<101.073 598.854> 442 121 459 0 0.481084 0.876674<0 592.209> 662 0 757 0 0.207912 0.978148<19.7516 618.6>
LayerCount: 3
Fore
SplineSet
75 0 m 1
 227 716 l 1
 374 716 l 1
 442 121 l 1
 762 716 l 1
 909 716 l 1
 757 0 l 1
 662 0 l 1
 791 605 l 1
 459 0 l 1
 373 0 l 1
 299 605 l 1
 170 0 l 1
 75 0 l 1
EndSplineSet
Validated: 1
Layer: 2
SplineSet
75 0 m 1,0,-1
 227 716 l 1,1,-1
 374 716 l 1,2,-1
 442 121 l 1,3,-1
 762 716 l 1,4,-1
 909 716 l 1,5,-1
 757 0 l 1,6,-1
 662 0 l 1,7,-1
 791 605 l 1,8,-1
 459 0 l 1,9,-1
 373 0 l 1,10,-1
 299 605 l 1,11,-1
 170 0 l 1,12,-1
 75 0 l 1,0,-1
EndSplineSet
EndChar

StartChar: N
Encoding: 78 78 47
Width: 721
VWidth: 2048
Flags: W
HStem: 0 21G<77 176.263 531.19 645.246> 696 20G<224.754 338.877 693.758 793>
DStem2: 77 0 172 0 0.207912 0.978148<19.7516 595.398> 330 716 292 563 0.40312 -0.915147<124.699 613.774> 546.054 0 641 0 0.207912 0.978148<158.463 731.945>
LayerCount: 3
Fore
SplineSet
77 0 m 1
 229 716 l 1
 330 716 l 1
 579 155 l 1
 698 716 l 1
 793 716 l 1
 641 0 l 1
 540 0 l 1
 292 563 l 1
 172 0 l 1
 77 0 l 1
EndSplineSet
Validated: 1
Layer: 2
SplineSet
77 0 m 1,0,-1
 229 716 l 1,1,-1
 330 716 l 1,2,-1
 579 155 l 1,3,-1
 698 716 l 1,4,-1
 793 716 l 1,5,-1
 641 0 l 1,6,-1
 540 0 l 1,7,-1
 292 563 l 1,8,-1
 172 0 l 1,9,-1
 77 0 l 1,0,-1
EndSplineSet
EndChar

StartChar: O
Encoding: 79 79 48
Width: 777
VWidth: 2048
Flags: W
HStem: -12 84<308.4 510.127> 646 84<416.988 632.724>
VStem: 113 97<168.725 394.643> 722 96<313.582 553.499>
LayerCount: 3
Fore
SplineSet
113 258 m 0
 113 435 239 730 545 730 c 0
 729 730 818 622 818 461 c 0
 818 206 633 -12 387 -12 c 0
 210 -12 113 101 113 258 c 0
527 646 m 0
 267 646 210 366 210 272 c 0
 210 154 276 72 405 72 c 0
 595 72 722 250 722 451 c 0
 722 556 676 646 527 646 c 0
EndSplineSet
Validated: 1
Layer: 2
SplineSet
113 258 m 0,0,1
 113 314 113 314 128 375.5 c 128,-1,2
 143 437 143 437 177.5 500.5 c 128,-1,3
 212 564 212 564 260.5 615 c 128,-1,4
 309 666 309 666 383 698 c 128,-1,5
 457 730 457 730 545 730 c 0,6,7
 679 730 679 730 748.5 658 c 128,-1,8
 818 586 818 586 818 461 c 0,9,10
 818 335 818 335 762 226.5 c 128,-1,11
 706 118 706 118 606.5 53 c 128,-1,12
 507 -12 507 -12 387 -12 c 0,13,14
 257 -12 257 -12 185 62.5 c 128,-1,15
 113 137 113 137 113 258 c 0,0,1
527 646 m 0,16,17
 453 646 453 646 394.5 615.5 c 128,-1,18
 336 585 336 585 302.5 541.5 c 128,-1,19
 269 498 269 498 247 444 c 128,-1,20
 225 390 225 390 217.5 347.5 c 128,-1,21
 210 305 210 305 210 272 c 0,22,23
 210 181 210 181 260.5 126.5 c 128,-1,24
 311 72 311 72 405 72 c 0,25,26
 544 72 544 72 633 184 c 128,-1,27
 722 296 722 296 722 451 c 0,28,29
 722 539 722 539 676.5 592.5 c 128,-1,30
 631 646 631 646 527 646 c 0,16,17
EndSplineSet
EndChar

StartChar: P
Encoding: 80 80 49
Width: 666
VWidth: 2048
Flags: W
HStem: 0 21G<77 176.247> 292 84<252 545.146> 632 84<306 605.572>
VStem: 638 98<459.124 600.261>
DStem2: 77 0 172 0 0.207912 0.978148<19.7516 318.261 404.168 665.801>
LayerCount: 3
Fore
SplineSet
77 0 m 1
 229 716 l 1
 500 716 l 2
 650 716 736 675 736 566 c 0
 736 496 707 292 418 292 c 2
 234 292 l 1
 172 0 l 1
 77 0 l 1
437 376 m 2
 611 376 638 485 638 545 c 0
 638 614 583 632 490 632 c 2
 306 632 l 1
 252 376 l 1
 437 376 l 2
EndSplineSet
Validated: 1
Layer: 2
SplineSet
77 0 m 1,0,-1
 229 716 l 1,1,-1
 500 716 l 2,2,3
 617 716 617 716 676.5 680.5 c 128,-1,4
 736 645 736 645 736 566 c 0,5,6
 736 539 736 539 731 510 c 128,-1,7
 726 481 726 481 706.5 440 c 128,-1,8
 687 399 687 399 655 368 c 128,-1,9
 623 337 623 337 561.5 314.5 c 128,-1,10
 500 292 500 292 418 292 c 2,11,-1
 234 292 l 1,12,-1
 172 0 l 1,13,-1
 77 0 l 1,0,-1
437 376 m 2,14,15
 487 376 487 376 524.5 388 c 128,-1,16
 562 400 562 400 583 418 c 128,-1,17
 604 436 604 436 617 460 c 128,-1,18
 630 484 630 484 634 504 c 128,-1,19
 638 524 638 524 638 545 c 0,20,21
 638 594 638 594 601.5 613 c 128,-1,22
 565 632 565 632 490 632 c 2,23,-1
 306 632 l 1,24,-1
 252 376 l 1,25,-1
 437 376 l 2,14,15
EndSplineSet
EndChar

StartChar: Q
Encoding: 81 81 50
Width: 777
VWidth: 2048
Flags: W
HStem: -12 84<298.345 498.649> 646 84<413.927 619.938>
VStem: 108 96<168.33 398.286> 719 98<320.726 548.419>
LayerCount: 3
Fore
SplineSet
108 257 m 0
 108 464 251 730 541 730 c 0
 719 730 817 633 817 468 c 0
 817 328 758 175 635 77 c 1
 673 46 710 25 744 11 c 1
 702 -55 l 1
 654 -37 610 -8 566 32 c 1
 508 3 445 -12 380 -12 c 0
 210 -12 108 91 108 257 c 0
523 646 m 0
 280 646 204 398 204 271 c 0
 204 148 272 72 401 72 c 0
 435 72 468 75 500 89 c 1
 475 107 447 121 415 129 c 1
 454 198 l 1
 505 182 543 159 573 129 c 1
 681 213 719 349 719 445 c 0
 719 567 652 646 523 646 c 0
EndSplineSet
Validated: 1
Layer: 2
SplineSet
108 257 m 0,0,1
 108 320 108 320 125 385.5 c 128,-1,2
 142 451 142 451 177.5 513 c 128,-1,3
 213 575 213 575 263 623 c 128,-1,4
 313 671 313 671 385 700.5 c 128,-1,5
 457 730 457 730 541 730 c 0,6,7
 674 730 674 730 745.5 661 c 128,-1,8
 817 592 817 592 817 468 c 0,9,10
 817 358 817 358 770.5 253 c 128,-1,11
 724 148 724 148 635 77 c 1,12,13
 687 34 687 34 744 11 c 1,14,-1
 702 -55 l 1,15,16
 633 -29 633 -29 566 32 c 1,17,18
 478 -12 478 -12 380 -12 c 0,19,20
 253 -12 253 -12 180.5 60 c 128,-1,21
 108 132 108 132 108 257 c 0,0,1
523 646 m 0,22,23
 454 646 454 646 397 619 c 128,-1,24
 340 592 340 592 305 551 c 128,-1,25
 270 510 270 510 246.5 458 c 128,-1,26
 223 406 223 406 213.5 359 c 128,-1,27
 204 312 204 312 204 271 c 0,28,29
 204 177 204 177 255 124.5 c 128,-1,30
 306 72 306 72 401 72 c 0,31,32
 461 72 461 72 500 89 c 1,33,34
 460 118 460 118 415 129 c 1,35,-1
 454 198 l 1,36,37
 527 175 527 175 573 129 c 1,38,39
 648 187 648 187 683.5 274.5 c 128,-1,40
 719 362 719 362 719 445 c 0,41,42
 719 538 719 538 668.5 592 c 128,-1,43
 618 646 618 646 523 646 c 0,22,23
EndSplineSet
EndChar

StartChar: R
Encoding: 82 82 51
Width: 721
VWidth: 2048
Flags: W
HStem: 0 21G<78 177.241 581.812 710> 316 84<258 434.018> 632 84<307 633.101>
VStem: 669 100<472.368 600.171>
DStem2: 78 0 173 0 0.207912 0.978148<19.7516 342.776 428.683 665.801> 627 195 529 149 0.39164 -0.920118<-118.723 164.932>
LayerCount: 3
Fore
SplineSet
78 0 m 1
 230 716 l 1
 547 716 l 2
 694 716 769 683 769 581 c 0
 769 427 668 344 518 325 c 1
 563 305 598 261 627 195 c 2
 710 0 l 1
 590 0 l 1
 529 149 l 2
 492 238 462 316 351 316 c 2
 240 316 l 1
 173 0 l 1
 78 0 l 1
462 400 m 2
 638 400 669 488 669 547 c 0
 669 605 623 632 534 632 c 2
 307 632 l 1
 258 400 l 1
 462 400 l 2
EndSplineSet
Validated: 1
Layer: 2
SplineSet
78 0 m 1,0,-1
 230 716 l 1,1,-1
 547 716 l 2,2,3
 661 716 661 716 715 685.5 c 128,-1,4
 769 655 769 655 769 581 c 0,5,6
 769 469 769 469 702 404.5 c 128,-1,7
 635 340 635 340 518 325 c 1,8,9
 582 296 582 296 627 195 c 2,10,-1
 710 0 l 1,11,-1
 590 0 l 1,12,-1
 529 149 l 2,13,14
 516 181 516 181 510.5 193.5 c 128,-1,15
 505 206 505 206 491.5 231 c 128,-1,16
 478 256 478 256 467 267 c 128,-1,17
 456 278 456 278 438.5 292 c 128,-1,18
 421 306 421 306 399.5 311 c 128,-1,19
 378 316 378 316 351 316 c 2,20,-1
 240 316 l 1,21,-1
 173 0 l 1,22,-1
 78 0 l 1,0,-1
462 400 m 2,23,24
 524 400 524 400 568 414 c 128,-1,25
 612 428 612 428 632.5 452 c 128,-1,26
 653 476 653 476 661 498.5 c 128,-1,27
 669 521 669 521 669 547 c 0,28,29
 669 632 669 632 534 632 c 2,30,-1
 307 632 l 1,31,-1
 258 400 l 1,32,-1
 462 400 l 2,23,24
EndSplineSet
EndChar

StartChar: S
Encoding: 83 83 52
Width: 666
VWidth: 2048
Flags: W
HStem: -12 84<250.309 469.835> 644 84<349.885 563.761>
VStem: 89 96<132.495 230> 181 98<470.673 584.07> 564 99<153.023 268.232> 612 94<513 598.273>
LayerCount: 3
Fore
SplineSet
348 -12 m 0xd8
 184 -12 89 52 89 183 c 0
 89 198 91 214 93 230 c 1
 186 238 l 1
 185 230 185 222 185 215 c 0
 185 119 243 72 361 72 c 0
 477 72 564 131 564 220 c 0xe8
 564 281 502 298 375 331 c 0
 248 364 181 410 181 493 c 0
 181 634 314 728 478 728 c 0
 618 728 706 671 706 557 c 0
 706 543 705 529 702 513 c 1
 611 507 l 1
 612 515 612 523 612 530 c 0xd4
 612 606 563 644 465 644 c 0
 304 644 279 561 279 517 c 0
 279 465 330 447 424 423 c 0
 509 401 663 377 663 245 c 0
 663 123 550 -12 348 -12 c 0xd8
EndSplineSet
Validated: 1
Layer: 2
SplineSet
348 -12 m 0,0,1
 223 -12 223 -12 156 37 c 128,-1,2
 89 86 89 86 89 183 c 0,3,4
 89 198 89 198 93 230 c 1,5,-1
 186 238 l 1,6,7
 185 230 185 230 185 215 c 0,8,9
 185 72 185 72 361 72 c 0,10,11
 449 72 449 72 506.5 113 c 128,-1,12
 564 154 564 154 564 220 c 0,13,14
 564 242 564 242 554 257.5 c 128,-1,15
 544 273 544 273 515.5 286.5 c 128,-1,16
 487 300 487 300 460 308 c 128,-1,17
 433 316 433 316 375 331 c 0,18,19
 276 357 276 357 228.5 395 c 128,-1,20
 181 433 181 433 181 493 c 0,21,22
 181 597 181 597 266.5 662.5 c 128,-1,23
 352 728 352 728 478 728 c 0,24,25
 585 728 585 728 645.5 684.5 c 128,-1,26
 706 641 706 641 706 557 c 0,27,28
 706 534 706 534 702 513 c 1,29,-1
 611 507 l 1,30,31
 612 515 612 515 612 530 c 0,32,33
 612 644 612 644 465 644 c 0,34,35
 408 644 408 644 368.5 631 c 128,-1,36
 329 618 329 618 311 596.5 c 128,-1,37
 293 575 293 575 286 556 c 128,-1,38
 279 537 279 537 279 517 c 0,39,40
 279 481 279 481 312 462 c 128,-1,41
 345 443 345 443 424 423 c 0,42,43
 429 422 429 422 458 414.5 c 128,-1,44
 487 407 487 407 498 404 c 128,-1,45
 509 401 509 401 536 392 c 128,-1,46
 563 383 563 383 576 375 c 128,-1,47
 589 367 589 367 609 353.5 c 128,-1,48
 629 340 629 340 638.5 325.5 c 128,-1,49
 648 311 648 311 655.5 290 c 128,-1,50
 663 269 663 269 663 245 c 0,51,52
 663 146 663 146 577 67 c 128,-1,53
 491 -12 491 -12 348 -12 c 0,0,1
EndSplineSet
EndChar

StartChar: T
Encoding: 84 84 53
Width: 610
VWidth: 2048
Flags: W
HStem: 0 21G<259 358.241> 632 84<175 393 488 726>
DStem2: 259 0 354 0 0.207912 0.978148<19.7516 646.049>
LayerCount: 3
Fore
SplineSet
259 0 m 1
 393 632 l 1
 157 632 l 1
 175 716 l 1
 744 716 l 1
 726 632 l 1
 488 632 l 1
 354 0 l 1
 259 0 l 1
EndSplineSet
Validated: 1
Layer: 2
SplineSet
259 0 m 1,0,-1
 393 632 l 1,1,-1
 157 632 l 1,2,-1
 175 716 l 1,3,-1
 744 716 l 1,4,-1
 726 632 l 1,5,-1
 488 632 l 1,6,-1
 354 0 l 1,7,-1
 259 0 l 1,0,-1
EndSplineSet
EndChar

StartChar: U
Encoding: 85 85 54
Width: 721
VWidth: 2048
Flags: W
HStem: -12 84<276.212 481.981> 696 20G<225.749 325 694.739 794>
VStem: 127 98<121.073 331.578>
DStem2: 75.2572 -12 170.045 -12 0.207912 0.978148<243.746 744.264> 544.045 -12 639.257 -12 0.207912 0.978148<177.943 744.308>
LayerCount: 3
Fore
SplineSet
369 72 m 0
 543 72 584 176 611 303 c 2
 699 716 l 1
 794 716 l 1
 706 302 l 2
 660 85 555 -12 359 -12 c 0
 197 -12 127 48 127 179 c 0
 127 215 132 256 142 302 c 2
 230 716 l 1
 325 716 l 1
 237 303 l 2
 229 266 225 233 225 204 c 0
 225 118 265 72 369 72 c 0
EndSplineSet
Validated: 1
Layer: 2
SplineSet
369 72 m 0,0,1
 420 72 420 72 458.5 84.5 c 128,-1,2
 497 97 497 97 521.5 116 c 128,-1,3
 546 135 546 135 564.5 167 c 128,-1,4
 583 199 583 199 592.5 229.5 c 128,-1,5
 602 260 602 260 611 303 c 2,6,-1
 699 716 l 1,7,-1
 794 716 l 1,8,-1
 706 302 l 2,9,10
 671 139 671 139 588.5 63.5 c 128,-1,11
 506 -12 506 -12 359 -12 c 0,12,13
 238 -12 238 -12 182.5 34 c 128,-1,14
 127 80 127 80 127 179 c 0,15,16
 127 233 127 233 142 302 c 2,17,-1
 230 716 l 1,18,-1
 325 716 l 1,19,-1
 237 303 l 2,20,21
 225 247.5 225 247.5 225 204 c 0,22,23
 225 138 225 138 259 105 c 128,-1,24
 293 72 293 72 369 72 c 0,0,1
EndSplineSet
EndChar

StartChar: V
Encoding: 86 86 55
Width: 666
VWidth: 2048
Flags: W
HStem: 0 21G<278.508 392.039> 696 20G<157 261.968 703.258 811>
VStem: 157 102<675.904 716>
DStem2: 351 96 380 0 0.515727 0.856753<0 718.911>
LayerCount: 3
Fore
SplineSet
282 0 m 1
 157 716 l 1
 259 716 l 1
 351 96 l 1
 715 716 l 1
 811 716 l 1
 380 0 l 1
 282 0 l 1
EndSplineSet
Validated: 1
Layer: 2
SplineSet
282 0 m 1,0,-1
 157 716 l 1,1,-1
 259 716 l 1,2,-1
 351 96 l 1,3,-1
 715 716 l 1,4,-1
 811 716 l 1,5,-1
 380 0 l 1,6,-1
 282 0 l 1,0,-1
EndSplineSet
EndChar

StartChar: W
Encoding: 87 87 56
Width: 944
VWidth: 2048
Flags: W
HStem: 0 21G<200.939 308.746 643.762 745.749> 696 20G<164 261.582 559.034 685.164 980.685 1085>
VStem: 164 97<584.105 716>
DStem2: 278 132 299 0 0.438058 0.898947<0 591.359> 684 716 606 630 0.0617865 -0.998089<81.0163 584.985> 718 132 736 0 0.438152 0.898901<0 644.135>
LayerCount: 3
Fore
SplineSet
202 0 m 1
 164 716 l 1
 261 716 l 1
 278 132 l 1
 569 716 l 1
 684 716 l 1
 718 132 l 1
 990 716 l 1
 1085 716 l 1
 736 0 l 1
 645 0 l 1
 606 630 l 1
 299 0 l 1
 202 0 l 1
EndSplineSet
Validated: 1
Layer: 2
SplineSet
202 0 m 1,0,-1
 164 716 l 1,1,-1
 261 716 l 1,2,-1
 278 132 l 1,3,-1
 569 716 l 1,4,-1
 684 716 l 1,5,-1
 718 132 l 1,6,-1
 990 716 l 1,7,-1
 1085 716 l 1,8,-1
 736 0 l 1,9,-1
 645 0 l 1,10,-1
 606 630 l 1,11,-1
 299 0 l 1,12,-1
 202 0 l 1,0,-1
EndSplineSet
EndChar

StartChar: X
Encoding: 88 88 57
Width: 666
VWidth: 2048
Flags: W
HStem: 0 21G<5 136.658 534.067 661> 696 20G<189 311.738 670.674 793>
DStem2: 5 0 118 0 0.691291 0.722576<78.1159 485.623 619.618 990.899> 302 716 189 716 0.448212 -0.893927<0 296.946 415.794 748.519>
LayerCount: 3
Fore
SplineSet
5 0 m 1
 361 374 l 1
 189 716 l 1
 302 716 l 1
 432 449 l 1
 690 716 l 1
 793 716 l 1
 470 379 l 1
 661 0 l 1
 544 0 l 1
 396 298 l 1
 118 0 l 1
 5 0 l 1
EndSplineSet
Validated: 1
Layer: 2
SplineSet
5 0 m 1,0,-1
 361 374 l 1,1,-1
 189 716 l 1,2,-1
 302 716 l 1,3,-1
 432 449 l 1,4,-1
 690 716 l 1,5,-1
 793 716 l 1,6,-1
 470 379 l 1,7,-1
 661 0 l 1,8,-1
 544 0 l 1,9,-1
 396 298 l 1,10,-1
 118 0 l 1,11,-1
 5 0 l 1,0,-1
EndSplineSet
EndChar

StartChar: Y
Encoding: 89 89 58
Width: 666
VWidth: 2048
Flags: W
HStem: 0 21G<279 378.224> 696 20G<155 278.93 683.569 811>
DStem2: 270 716 155 716 0.414301 -0.91014<0 358.104> 279 0 374 0 0.207912 0.978148<19.7516 309.685> 416 389 438 303 0.670254 0.742131<0 433.699>
LayerCount: 3
Fore
SplineSet
279 0 m 1
 343 303 l 1
 155 716 l 1
 270 716 l 1
 416 389 l 1
 701 716 l 1
 811 716 l 1
 438 303 l 1
 374 0 l 1
 279 0 l 1
EndSplineSet
Validated: 1
Layer: 2
SplineSet
279 0 m 1,0,-1
 343 303 l 1,1,-1
 155 716 l 1,2,-1
 270 716 l 1,3,-1
 416 389 l 1,4,-1
 701 716 l 1,5,-1
 811 716 l 1,6,-1
 438 303 l 1,7,-1
 374 0 l 1,8,-1
 279 0 l 1,0,-1
EndSplineSet
EndChar

StartChar: Z
Encoding: 90 90 59
Width: 610
VWidth: 2048
Flags: W
HStem: 0 84<147 586> 632 84<213 589>
DStem2: 39 89 147 84 0.715968 0.698133<73.8339 772.869>
LayerCount: 3
Fore
SplineSet
20 0 m 1
 39 89 l 1
 589 632 l 1
 195 632 l 1
 213 716 l 1
 727 716 l 1
 709 632 l 1
 147 84 l 1
 604 84 l 1
 586 0 l 1
 20 0 l 1
EndSplineSet
Validated: 1
Layer: 2
SplineSet
20 0 m 1,0,-1
 39 89 l 1,1,-1
 589 632 l 1,2,-1
 195 632 l 1,3,-1
 213 716 l 1,4,-1
 727 716 l 1,5,-1
 709 632 l 1,6,-1
 147 84 l 1,7,-1
 604 84 l 1,8,-1
 586 0 l 1,9,-1
 20 0 l 1,0,-1
EndSplineSet
EndChar

StartChar: bracketleft
Encoding: 91 91 60
Width: 277
VWidth: 2048
Flags: W
HStem: -199 72<129 220> 644 72<293 399>
DStem2: 25 -199 113.696 -199 0.207912 0.978148<92.0494 880.299>
LayerCount: 3
Fore
SplineSet
25 -199 m 1
 219 716 l 1
 414 716 l 1
 399 644 l 1
 293 644 l 1
 129 -127 l 1
 235 -127 l 1
 220 -199 l 1
 25 -199 l 1
EndSplineSet
Validated: 1
Layer: 2
SplineSet
25 -199 m 1,0,-1
 219 716 l 1,1,-1
 414 716 l 1,2,-1
 399 644 l 1,3,-1
 293 644 l 1,4,-1
 129 -127 l 1,5,-1
 235 -127 l 1,6,-1
 220 -199 l 1,7,-1
 25 -199 l 1,0,-1
EndSplineSet
EndChar

StartChar: backslash
Encoding: 92 92 61
Width: 277
VWidth: 2048
Flags: W
HStem: -12 21G<202.676 274> 708 20G<155 227.297>
VStem: 155 119
DStem2: 226 728 155 728 0.0660715 -0.997815<0 736.929>
LayerCount: 3
Fore
SplineSet
204 -12 m 1
 155 728 l 1
 226 728 l 1
 274 -12 l 1
 204 -12 l 1
EndSplineSet
Validated: 1
Layer: 2
SplineSet
204 -12 m 1,0,-1
 155 728 l 1,1,-1
 226 728 l 1,2,-1
 274 -12 l 1,3,-1
 204 -12 l 1,0,-1
EndSplineSet
EndChar

StartChar: bracketright
Encoding: 93 93 62
Width: 277
VWidth: 2048
Flags: W
HStem: -199 72<-9 99> 644 72<170 263>
DStem2: 83.6959 -199 171 -199 0.207912 0.978148<73.6085 861.858>
LayerCount: 3
Fore
SplineSet
171 -199 m 1
 -24 -199 l 1
 -9 -127 l 1
 99 -127 l 1
 263 644 l 1
 155 644 l 1
 170 716 l 1
 365 716 l 1
 171 -199 l 1
EndSplineSet
Validated: 1
Layer: 2
SplineSet
171 -199 m 1,0,-1
 -24 -199 l 1,1,-1
 -9 -127 l 1,2,-1
 99 -127 l 1,3,-1
 263 644 l 1,4,-1
 155 644 l 1,5,-1
 170 716 l 1,6,-1
 365 716 l 1,7,-1
 171 -199 l 1,0,-1
EndSplineSet
EndChar

StartChar: asciicircum
Encoding: 94 94 63
Width: 469
VWidth: 2048
Flags: W
HStem: 708 20G<340.905 429.604>
DStem2: 98 337 188 337 0.547768 0.83663<49.2991 391.357>
LayerCount: 3
Fore
SplineSet
188 337 m 1
 98 337 l 1
 354 728 l 1
 425 728 l 1
 515 337 l 1
 426 337 l 1
 368 628 l 1
 188 337 l 1
EndSplineSet
Validated: 1
Layer: 2
SplineSet
188 337 m 1,0,-1
 98 337 l 1,1,-1
 354 728 l 1,2,-1
 425 728 l 1,3,-1
 515 337 l 1,4,-1
 426 337 l 1,5,-1
 368 628 l 1,6,-1
 188 337 l 1,0,-1
EndSplineSet
EndChar

StartChar: underscore
Encoding: 95 95 64
Width: 556
VWidth: 2048
Flags: W
HStem: -199 64<-44 527>
LayerCount: 3
Fore
SplineSet
-57 -199 m 1
 -44 -135 l 1
 540 -135 l 1
 527 -199 l 1
 -57 -199 l 1
EndSplineSet
Validated: 1
Layer: 2
SplineSet
-57 -199 m 1,0,-1
 -44 -135 l 1,1,-1
 540 -135 l 1,2,-1
 527 -199 l 1,3,-1
 -57 -199 l 1,0,-1
EndSplineSet
EndChar

StartChar: grave
Encoding: 96 96 65
Width: 332
VWidth: 2048
Flags: W
HStem: 582 138<280 314>
VStem: 196 155
LayerCount: 3
Fore
SplineSet
351 582 m 1
 280 582 l 1
 196 720 l 1
 314 720 l 1
 351 582 l 1
EndSplineSet
Validated: 1
Layer: 2
SplineSet
351 582 m 1,0,-1
 280 582 l 1,1,-1
 196 720 l 1,2,-1
 314 720 l 1,3,-1
 351 582 l 1,0,-1
EndSplineSet
EndChar

StartChar: a
Encoding: 97 97 66
Width: 556
VWidth: 2048
Flags: W
HStem: -12 72<166.968 318.716> 0 21G<420.5 513> 458 72<275.711 451.397>
VStem: 60 91<76.9719 176.969> 418 86<0.750732 63.5709> 475 92<329.109 434.562>
DStem2: 393.986 -12 483.918 -12 0.207912 0.978148<137.668 277.14 340.729 402.798>
LayerCount: 3
Fore
SplineSet
370 458 m 0xb4
 281 458 246 427 212 359 c 1
 131 371 l 1
 176 477 265 530 398 530 c 0
 510 530 567 506 567 413 c 0xb4
 567 391 564 365 557 334 c 2
 509 106 l 2
 506 90 504 75 504 60 c 0xb8
 504 39 507 20 513 0 c 1
 422 0 l 1
 419 12 418 27 418 42 c 0x78
 418 49 418 56 419 64 c 1
 348 14 278 -12 210 -12 c 0
 122 -12 60 29 60 103 c 0
 60 144 77 213 166 264 c 0
 233 302 362 297 467 331 c 1
 472 353 l 2
 474 364 475 374 475 383 c 0
 475 433 440 458 370 458 c 0xb4
452 259 m 1
 345 218 151 239 151 120 c 0
 151 78 187 60 248 60 c 0
 378 60 426 142 445 228 c 2
 452 259 l 1
EndSplineSet
Validated: 1
Layer: 2
SplineSet
370 458 m 0,0,1
 306 458 306 458 272.5 435.5 c 128,-1,2
 239 413 239 413 212 359 c 1,3,-1
 131 371 l 1,4,5
 198.5 530 198.5 530 398 530 c 0,6,7
 487 530 487 530 527 505 c 128,-1,8
 567 480 567 480 567 413 c 0,9,10
 567 378 567 378 557 334 c 2,11,-1
 509 106 l 2,12,13
 504 79 504 79 504 60 c 0,14,15
 504 30 504 30 513 0 c 1,16,-1
 422 0 l 1,17,18
 418 16 418 16 418 42 c 0,19,20
 418 56 418 56 419 64 c 1,21,22
 311 -12 311 -12 210 -12 c 0,23,24
 142 -12 142 -12 101 18.5 c 128,-1,25
 60 49 60 49 60 103 c 0,26,27
 60 203 60 203 166 264 c 0,28,29
 202 285 202 285 311.5 300.5 c 128,-1,30
 421 316 421 316 467 331 c 1,31,-1
 472 353 l 2,32,33
 475 369.5 475 369.5 475 383 c 0,34,35
 475 458 475 458 370 458 c 0,0,1
452 259 m 1,36,37
 425 249 425 249 380.5 241 c 128,-1,38
 336 233 336 233 299 226.5 c 128,-1,39
 262 220 262 220 226.5 209 c 128,-1,40
 191 198 191 198 171 176 c 128,-1,41
 151 154 151 154 151 120 c 0,42,43
 151 60 151 60 248 60 c 0,44,45
 408 60 408 60 445 228 c 2,46,-1
 452 259 l 1,36,37
EndSplineSet
EndChar

StartChar: b
Encoding: 98 98 67
Width: 556
VWidth: 2048
Flags: W
HStem: -12 72<233.246 371.749> 0 21G<64 157.375> 458 72<316.691 452.446> 696 20G<211.754 305>
VStem: 490 91<221.632 419.202>
DStem2: 61.4493 -12 150.449 -12 0.207912 0.978148<30.7722 96.2844 502.074 744.224>
LayerCount: 3
Fore
SplineSet
581 348 m 0x78
 581 201 482 -12 288 -12 c 0xb8
 227 -12 190 14 167 64 c 1
 153 0 l 1
 64 0 l 1
 216 716 l 1
 305 716 l 1
 251 461 l 1
 298 507 351 530 409 530 c 0
 520 530 581 461 581 348 c 0x78
297 60 m 0
 424 60 490 222 490 335 c 0
 490 405 462 458 385 458 c 0
 249 458 199 278 199 179 c 0
 199 81 253 60 297 60 c 0
EndSplineSet
Validated: 1
Layer: 2
SplineSet
581 348 m 0,0,1
 581 303 581 303 569.5 254 c 128,-1,2
 558 205 558 205 533.5 157.5 c 128,-1,3
 509 110 509 110 475 72.5 c 128,-1,4
 441 35 441 35 392.5 11.5 c 128,-1,5
 344 -12 344 -12 288 -12 c 0,6,7
 202 -12 202 -12 167 64 c 1,8,-1
 153 0 l 1,9,-1
 64 0 l 1,10,-1
 216 716 l 1,11,-1
 305 716 l 1,12,-1
 251 461 l 1,13,14
 322 530 322 530 409 530 c 0,15,16
 491 530 491 530 536 482 c 128,-1,17
 581 434 581 434 581 348 c 0,0,1
297 60 m 0,18,19
 357 60 357 60 402.5 106 c 128,-1,20
 448 152 448 152 469 213.5 c 128,-1,21
 490 275 490 275 490 335 c 0,22,23
 490 458 490 458 385 458 c 0,24,25
 337 458 337 458 299 429 c 128,-1,26
 261 400 261 400 240.5 355 c 128,-1,27
 220 310 220 310 209.5 264.5 c 128,-1,28
 199 219 199 219 199 179 c 0,29,30
 199 113 199 113 227.5 86.5 c 128,-1,31
 256 60 256 60 297 60 c 0,18,19
EndSplineSet
EndChar

StartChar: c
Encoding: 99 99 68
Width: 499
VWidth: 2048
Flags: W
HStem: -12 72<212.57 365.021> 458 72<295.359 441.273>
VStem: 84 89<101.689 303.02> 472 89<366 426.503>
LayerCount: 3
Fore
SplineSet
84 176 m 0
 84 281 145 530 389 530 c 0
 507 530 561 477 561 366 c 1
 472 353 l 1
 472 423 439 458 376 458 c 0
 206 458 173 255 173 182 c 0
 173 101 212 60 287 60 c 0
 362 60 414 104 445 190 c 1
 528 179 l 1
 486 66 394 -12 273 -12 c 0
 147 -12 84 61 84 176 c 0
EndSplineSet
Validated: 1
Layer: 2
SplineSet
84 176 m 0,0,1
 84 212 84 212 92 253.5 c 128,-1,2
 100 295 100 295 121.5 345.5 c 128,-1,3
 143 396 143 396 175.5 436 c 128,-1,4
 208 476 208 476 264 503 c 128,-1,5
 320 530 320 530 389 530 c 0,6,7
 477 530 477 530 519 490 c 128,-1,8
 561 450 561 450 561 366 c 1,9,-1
 472 353 l 1,10,11
 472 458 472 458 376 458 c 0,12,13
 328 458 328 458 290 436 c 128,-1,14
 252 414 252 414 231 382 c 128,-1,15
 210 350 210 350 196 310 c 128,-1,16
 182 270 182 270 177.5 239 c 128,-1,17
 173 208 173 208 173 182 c 0,18,19
 173 60 173 60 287 60 c 0,20,21
 398 60 398 60 445 190 c 1,22,-1
 528 179 l 1,23,24
 496 92 496 92 429 40 c 128,-1,25
 362 -12 362 -12 273 -12 c 0,26,27
 180 -12 180 -12 132 38 c 128,-1,28
 84 88 84 88 84 176 c 0,0,1
EndSplineSet
EndChar

StartChar: d
Encoding: 100 100 69
Width: 556
VWidth: 2048
Flags: W
HStem: -12 72<213.463 344.382> 0 21G<397 490.246> 458 72<280.331 425.364> 696 20G<544.781 638>
VStem: 80 90<105.142 306.356>
DStem2: 394.449 -12 483.449 -12 0.207912 0.978148<30.7722 77.7803 482.591 744.224>
LayerCount: 3
Fore
SplineSet
80 180 m 0xb8
 80 316 166 530 367 530 c 0
 427 530 470 507 495 460 c 1
 549 716 l 1
 638 716 l 1
 486 0 l 1
 397 0 l 1x78
 411 64 l 1
 366 14 319 -12 255 -12 c 0
 140 -12 80 67 80 180 c 0xb8
278 60 m 0xb8
 424 60 460 261 460 337 c 0
 460 401 438 458 359 458 c 0
 206 458 170 262 170 188 c 0
 170 88 231 60 278 60 c 0xb8
EndSplineSet
Validated: 1
Layer: 2
SplineSet
80 180 m 0,0,1
 80 222 80 222 90 268.5 c 128,-1,2
 100 315 100 315 123 362 c 128,-1,3
 146 409 146 409 178.5 446 c 128,-1,4
 211 483 211 483 260 506.5 c 128,-1,5
 309 530 309 530 367 530 c 0,6,7
 458 530 458 530 495 460 c 1,8,-1
 549 716 l 1,9,-1
 638 716 l 1,10,-1
 486 0 l 1,11,-1
 397 0 l 1,12,-1
 411 64 l 1,13,14
 343 -12 343 -12 255 -12 c 0,15,16
 171 -12 171 -12 125.5 40.5 c 128,-1,17
 80 93 80 93 80 180 c 0,0,1
278 60 m 0,18,19
 319 60 319 60 352.5 82 c 128,-1,20
 386 104 386 104 405.5 135.5 c 128,-1,21
 425 167 425 167 438 207 c 128,-1,22
 451 247 451 247 455.5 279 c 128,-1,23
 460 311 460 311 460 337 c 0,24,25
 460 458 460 458 359 458 c 0,26,27
 305 458 305 458 265.5 427 c 128,-1,28
 226 396 226 396 206.5 349.5 c 128,-1,29
 187 303 187 303 178.5 262 c 128,-1,30
 170 221 170 221 170 188 c 0,31,32
 170 120 170 120 202.5 90 c 128,-1,33
 235 60 235 60 278 60 c 0,18,19
EndSplineSet
EndChar

StartChar: e
Encoding: 101 101 70
Width: 556
VWidth: 2048
Flags: W
HStem: -12 72<223.373 376.106> 238 72<198 489.881> 458 72<294.221 452.404>
VStem: 82 92<110.051 237.528> 490 89<310.943 421.843>
LayerCount: 3
Fore
SplineSet
82 173 m 0
 82 297 158 530 392 530 c 0
 516 530 579 459 579 344 c 0
 579 302 575 290 564 238 c 1
 178 238 l 1
 176 222 174 208 174 194 c 0
 174 114 214 60 298 60 c 0
 364 60 415 97 457 167 c 1
 545 156 l 1
 490 44 403 -12 281 -12 c 0
 152 -12 82 53 82 173 c 0
198 310 m 1
 488 310 l 1
 490 323 490 334 490 345 c 0
 490 420 452 458 378 458 c 0
 289 458 222 393 198 310 c 1
EndSplineSet
Validated: 1
Layer: 2
SplineSet
82 173 m 0,0,1
 82 213 82 213 91.5 258 c 128,-1,2
 101 303 101 303 124 352 c 128,-1,3
 147 401 147 401 181 440 c 128,-1,4
 215 479 215 479 270 504.5 c 128,-1,5
 325 530 325 530 392 530 c 0,6,7
 483 530 483 530 531 481 c 128,-1,8
 579 432 579 432 579 344 c 0,9,10
 579 309 579 309 564 238 c 1,11,-1
 178 238 l 1,12,13
 174 206 174 206 174 194 c 0,14,15
 174 132 174 132 205.5 96 c 128,-1,16
 237 60 237 60 298 60 c 0,17,18
 393 60 393 60 457 167 c 1,19,-1
 545 156 l 1,20,21
 462 -12 462 -12 281 -12 c 0,22,23
 184 -12 184 -12 133 35.5 c 128,-1,24
 82 83 82 83 82 173 c 0,0,1
198 310 m 1,25,-1
 488 310 l 1,26,27
 490 323 490 323 490 345 c 0,28,29
 490 458 490 458 378 458 c 0,30,31
 313 458 313 458 265 416.5 c 128,-1,32
 217 375 217 375 198 310 c 1,25,-1
EndSplineSet
EndChar

StartChar: f
Encoding: 102 102 71
Width: 277
VWidth: 2048
Flags: W
HStem: 0 21G<87 180.257> 451 67<119 183 286 372> 656 72<327.236 442.009>
DStem2: 87 0 176 0 0.207912 0.978148<18.5041 461.104 548.055 676.624>
LayerCount: 3
Fore
SplineSet
387 656 m 0
 329 656 310 626 297 567 c 2
 286 518 l 1
 386 518 l 1
 372 451 l 1
 272 451 l 1
 176 0 l 1
 87 0 l 1
 183 451 l 1
 105 451 l 1
 119 518 l 1
 197 518 l 1
 209 575 l 2
 228 663 271 728 385 728 c 0
 411 728 438 725 466 720 c 1
 437 650 l 1
 421 655 403 656 387 656 c 0
EndSplineSet
Validated: 1
Layer: 2
SplineSet
387 656 m 0,0,1
 346 656 346 656 326.5 635 c 128,-1,2
 307 614 307 614 297 567 c 2,3,-1
 286 518 l 1,4,-1
 386 518 l 1,5,-1
 372 451 l 1,6,-1
 272 451 l 1,7,-1
 176 0 l 1,8,-1
 87 0 l 1,9,-1
 183 451 l 1,10,-1
 105 451 l 1,11,-1
 119 518 l 1,12,-1
 197 518 l 1,13,-1
 209 575 l 2,14,15
 225 648 225 648 265 688 c 128,-1,16
 305 728 305 728 385 728 c 0,17,18
 421 728 421 728 466 720 c 1,19,-1
 437 650 l 1,20,21
 418 656 418 656 387 656 c 0,0,1
EndSplineSet
EndChar

StartChar: g
Encoding: 103 103 72
Width: 556
VWidth: 2048
Flags: W
HStem: -210 72<146.248 318.116> 0 72<206.221 347.685> 458 72<285.376 427.172> 498 20G<505.738 599>
VStem: 36 87<-114.629 -55> 79 90<110.161 308.202>
DStem2: 355.122 -210 444.272 -210 0.207912 0.978148<142.656 283.188 681.923 744.292>
LayerCount: 3
Fore
SplineSet
79 187 m 0xd4
 79 326 173 530 369 530 c 0xe4
 432 530 467 506 497 457 c 1
 510 518 l 1
 599 518 l 1
 504 71 l 2
 466 -106 397 -210 211 -210 c 0
 105 -210 36 -172 36 -89 c 0
 36 -75 38 -60 42 -43 c 1
 123 -55 l 1
 123 -63 l 2xd8
 123 -113 157 -138 225 -138 c 0
 359 -138 387 -59 414 67 c 1
 367 23 314 0 256 0 c 0
 142 0 79 75 79 187 c 0xd4
280 72 m 0
 427 72 464 268 464 336 c 0
 464 408 433 458 361 458 c 0
 233 458 169 307 169 191 c 0
 169 112 206 72 280 72 c 0
EndSplineSet
Validated: 1
Layer: 2
SplineSet
79 187 m 0,0,1
 79 230 79 230 90 276 c 128,-1,2
 101 322 101 322 125 367.5 c 128,-1,3
 149 413 149 413 182 449 c 128,-1,4
 215 485 215 485 264 507.5 c 128,-1,5
 313 530 313 530 369 530 c 0,6,7
 415 530 415 530 444.5 512.5 c 128,-1,8
 474 495 474 495 497 457 c 1,9,-1
 510 518 l 1,10,-1
 599 518 l 1,11,-1
 504 71 l 2,12,13
 473 -72 473 -72 408 -141 c 128,-1,14
 343 -210 343 -210 211 -210 c 0,15,16
 129 -210 129 -210 82.5 -180 c 128,-1,17
 36 -150 36 -150 36 -89 c 0,18,19
 36 -68 36 -68 42 -43 c 1,20,-1
 123 -55 l 1,21,-1
 123 -63 l 2,22,23
 123 -138 123 -138 225 -138 c 0,24,25
 264 -138 264 -138 293.5 -128 c 128,-1,26
 323 -118 323 -118 341.5 -102.5 c 128,-1,27
 360 -87 360 -87 374.5 -58.5 c 128,-1,28
 389 -30 389 -30 397 -3 c 128,-1,29
 405 24 405 24 414 67 c 1,30,31
 342 0 342 0 256 0 c 0,32,33
 172 0 172 0 125.5 50.5 c 128,-1,34
 79 101 79 101 79 187 c 0,0,1
280 72 m 0,35,36
 331 72 331 72 370 103 c 128,-1,37
 409 134 409 134 428 179.5 c 128,-1,38
 447 225 447 225 455.5 265 c 128,-1,39
 464 305 464 305 464 336 c 0,40,41
 464 393 464 393 438.5 425.5 c 128,-1,42
 413 458 413 458 361 458 c 0,43,44
 301 458 301 458 255.5 414.5 c 128,-1,45
 210 371 210 371 189.5 311.5 c 128,-1,46
 169 252 169 252 169 191 c 0,47,48
 169 72 169 72 280 72 c 0,35,36
EndSplineSet
EndChar

StartChar: h
Encoding: 104 104 73
Width: 556
VWidth: 2048
Flags: W
HStem: 0 21G<66 159.225 400 493.268> 458 72<325.335 451.941> 696 20G<213.754 307>
VStem: 475 94<276.75 434.633>
DStem2: 66 0 155 0 0.207912 0.978148<18.5041 431.708 488.827 731.956> 400 0 489 0 0.207912 0.978148<18.5041 379.8>
LayerCount: 3
Fore
SplineSet
388 458 m 0
 279 458 236 385 215 284 c 2
 155 0 l 1
 66 0 l 1
 218 716 l 1
 307 716 l 1
 253 460 l 1
 303 507 360 530 423 530 c 0
 527 530 569 489 569 408 c 0
 569 385 565 358 559 328 c 2
 489 0 l 1
 400 0 l 1
 470 328 l 2
 474 345 475 359 475 373 c 0
 475 428 446 458 388 458 c 0
EndSplineSet
Validated: 1
Layer: 2
SplineSet
388 458 m 0,0,1
 311 458 311 458 271.5 413 c 128,-1,2
 232 368 232 368 215 284 c 2,3,-1
 155 0 l 1,4,-1
 66 0 l 1,5,-1
 218 716 l 1,6,-1
 307 716 l 1,7,-1
 253 460 l 1,8,9
 327 530 327 530 423 530 c 0,10,11
 500 530 500 530 534.5 500 c 128,-1,12
 569 470 569 470 569 408 c 0,13,14
 569 378 569 378 559 328 c 2,15,-1
 489 0 l 1,16,-1
 400 0 l 1,17,-1
 470 328 l 2,18,19
 475 349 475 349 475 373 c 0,20,21
 475 458 475 458 388 458 c 0,0,1
EndSplineSet
EndChar

StartChar: i
Encoding: 105 105 74
Width: 222
VWidth: 2048
Flags: W
HStem: 0 21G<66 159.247> 498 20G<171.753 265> 615 101<218 286>
VStem: 66 241
DStem2: 66 0 155 0 0.207912 0.978148<18.5041 529.551 647.301 731.956>
LayerCount: 3
Fore
SplineSet
197 615 m 1
 218 716 l 1
 307 716 l 1
 286 615 l 1
 197 615 l 1
66 0 m 1
 176 518 l 1
 265 518 l 1
 155 0 l 1
 66 0 l 1
EndSplineSet
Validated: 1
Layer: 2
SplineSet
197 615 m 1,0,-1
 218 716 l 1,1,-1
 307 716 l 1,2,-1
 286 615 l 1,3,-1
 197 615 l 1,0,-1
66 0 m 1,4,-1
 176 518 l 1,5,-1
 265 518 l 1,6,-1
 155 0 l 1,7,-1
 66 0 l 1,4,-1
EndSplineSet
EndChar

StartChar: j
Encoding: 106 106 75
Width: 222
VWidth: 2048
Flags: W
HStem: -210 72<-62.8158 23.9744> 498 20G<169.735 263> 615 101<216 284>
DStem2: 18.8896 -210 108.527 -210 0.207912 0.978148<82.3172 744.341 862.091 946.746>
LayerCount: 3
Fore
SplineSet
195 615 m 1
 216 716 l 1
 305 716 l 1
 284 615 l 1
 195 615 l 1
147 -29 m 2
 116 -177 56 -210 -22 -210 c 0
 -45 -210 -67 -207 -89 -201 c 1
 -57 -132 l 1
 -41 -135 -27 -138 -17 -138 c 0
 33 -138 48 -72 58 -26 c 2
 174 518 l 1
 263 518 l 1
 147 -29 l 2
EndSplineSet
Validated: 1
Layer: 2
SplineSet
195 615 m 1,0,-1
 216 716 l 1,1,-1
 305 716 l 1,2,-1
 284 615 l 1,3,-1
 195 615 l 1,0,-1
147 -29 m 2,4,5
 125 -133 125 -133 84 -171.5 c 128,-1,6
 43 -210 43 -210 -22 -210 c 0,7,8
 -56 -210 -56 -210 -89 -201 c 1,9,-1
 -57 -132 l 1,10,11
 -25 -138 -25 -138 -17 -138 c 0,12,13
 1 -138 1 -138 14 -128 c 128,-1,14
 27 -118 27 -118 36 -98 c 128,-1,15
 45 -78 45 -78 49 -64 c 128,-1,16
 53 -50 53 -50 58 -26 c 2,17,-1
 174 518 l 1,18,-1
 263 518 l 1,19,-1
 147 -29 l 2,4,5
EndSplineSet
EndChar

StartChar: k
Encoding: 107 107 76
Width: 499
VWidth: 2048
Flags: W
HStem: 0 21G<66 159.293 379.245 497> 498 20G<448 587> 696 20G<213.754 307>
DStem2: 66 0 155 0 0.207912 0.978148<18.5041 228.173 333.288 731.956> 220 308 272 265 0.778318 0.62787<0 13.4741 109.37 327.989> 346 326 272 265 0.420293 -0.907388<24.249 313.461>
LayerCount: 3
Fore
SplineSet
66 0 m 1
 218 716 l 1
 307 716 l 1
 220 308 l 1
 472 518 l 1
 587 518 l 1
 346 326 l 1
 497 0 l 1
 388 0 l 1
 272 265 l 1
 199 205 l 1
 155 0 l 1
 66 0 l 1
EndSplineSet
Validated: 1
Layer: 2
SplineSet
66 0 m 1,0,-1
 218 716 l 1,1,-1
 307 716 l 1,2,-1
 220 308 l 1,3,-1
 472 518 l 1,4,-1
 587 518 l 1,5,-1
 346 326 l 1,6,-1
 497 0 l 1,7,-1
 388 0 l 1,8,-1
 272 265 l 1,9,-1
 199 205 l 1,10,-1
 155 0 l 1,11,-1
 66 0 l 1,0,-1
EndSplineSet
EndChar

StartChar: l
Encoding: 108 108 77
Width: 222
VWidth: 2048
Flags: W
HStem: 0 21G<64 157.246> 696 20G<211.754 305>
VStem: 64 241
DStem2: 64 0 153 0 0.207912 0.978148<18.5041 731.956>
LayerCount: 3
Fore
SplineSet
64 0 m 1
 216 716 l 1
 305 716 l 1
 153 0 l 1
 64 0 l 1
EndSplineSet
Validated: 1
Layer: 2
SplineSet
64 0 m 1,0,-1
 216 716 l 1,1,-1
 305 716 l 1,2,-1
 153 0 l 1,3,-1
 64 0 l 1,0,-1
EndSplineSet
EndChar

StartChar: m
Encoding: 109 109 78
Width: 832
VWidth: 2048
Flags: W
HStem: 0 21G<66 159.222 374 467.238 680 773.27> 458 72<320.034 433.249 630.912 739.266> 498 20G<171.753 265>
VStem: 756 96<289.797 441.92>
DStem2: 66 0 155 0 0.207912 0.978148<18.5041 430.42 474.51 529.551> 374 0 463 0 0.207912 0.978148<18.5041 389.064> 680 0 769 0 0.207912 0.978148<18.5041 387.74>
LayerCount: 3
Fore
SplineSet
379 458 m 0xd0
 272 458 233 371 212 270 c 2
 155 0 l 1
 66 0 l 1
 176 518 l 1
 265 518 l 1xb0
 250 446 l 1
 288 503 346 530 415 530 c 0
 492 530 533 500 542 440 c 1
 596 500 656 530 722 530 c 0
 809 530 852 491 852 415 c 0
 852 397 850 378 845 356 c 2
 769 0 l 1
 680 0 l 1
 749 326 l 2
 753 347 756 365 756 381 c 0
 756 432 733 458 686 458 c 0
 601 458 548 403 527 302 c 2
 463 0 l 1
 374 0 l 1
 446 337 l 2
 450 354 451 369 451 382 c 0
 451 431 427 458 379 458 c 0xd0
EndSplineSet
Validated: 1
Layer: 2
SplineSet
379 458 m 0,0,1
 305 458 305 458 267.5 408 c 128,-1,2
 230 358 230 358 212 270 c 2,3,-1
 155 0 l 1,4,-1
 66 0 l 1,5,-1
 176 518 l 1,6,-1
 265 518 l 1,7,-1
 250 446 l 1,8,9
 306 530 306 530 415 530 c 0,10,11
 528 530 528 530 542 440 c 1,12,13
 623 530 623 530 722 530 c 0,14,15
 852 530 852 530 852 415 c 0,16,17
 852 387 852 387 845 356 c 2,18,-1
 769 0 l 1,19,-1
 680 0 l 1,20,-1
 749 326 l 2,21,22
 756 363 756 363 756 381 c 0,23,24
 756 458 756 458 686 458 c 0,25,26
 559 458 559 458 527 302 c 2,27,-1
 463 0 l 1,28,-1
 374 0 l 1,29,-1
 446 337 l 2,30,31
 451 358 451 358 451 382 c 0,32,33
 451 458 451 458 379 458 c 0,0,1
EndSplineSet
EndChar

StartChar: n
Encoding: 110 110 79
Width: 556
VWidth: 2048
Flags: W
HStem: 0 21G<66 159.225 398 491.269> 458 72<321.946 449.573> 498 20G<171.753 264>
VStem: 472 95<274.516 435.038>
DStem2: 66 0 155 0 0.207912 0.978148<18.5041 427.337 474.302 529.551> 398 0 487 0 0.207912 0.978148<18.5041 377.542>
LayerCount: 3
Fore
SplineSet
66 0 m 1xd0
 176 518 l 1
 264 518 l 1xb0
 249 446 l 1
 288 503 351 530 424 530 c 0
 519 530 567 488 567 405 c 0
 567 386 565 365 560 342 c 2
 487 0 l 1
 398 0 l 1
 465 316 l 2
 469 336 472 355 472 371 c 0
 472 428 444 458 388 458 c 0
 298 458 239 397 215 284 c 2
 155 0 l 1
 66 0 l 1xd0
EndSplineSet
Validated: 1
Layer: 2
SplineSet
66 0 m 1,0,-1
 176 518 l 1,1,-1
 264 518 l 1,2,-1
 249 446 l 1,3,4
 306 530 306 530 424 530 c 0,5,6
 567 530 567 530 567 405 c 0,7,8
 567 374 567 374 560 342 c 2,9,-1
 487 0 l 1,10,-1
 398 0 l 1,11,-1
 465 316 l 2,12,13
 472 351 472 351 472 371 c 0,14,15
 472 458 472 458 388 458 c 0,16,17
 252 458 252 458 215 284 c 2,18,-1
 155 0 l 1,19,-1
 66 0 l 1,0,-1
EndSplineSet
EndChar

StartChar: o
Encoding: 111 111 80
Width: 556
VWidth: 2048
Flags: W
HStem: -12 72<214.075 371.278> 458 72<290.209 445.862>
VStem: 79 90<106.664 306.018> 494 90<213.588 409.144>
LayerCount: 3
Fore
SplineSet
584 338 m 0
 584 204 497 -12 273 -12 c 0
 121 -12 79 85 79 181 c 0
 79 331 177 530 389 530 c 0
 518 530 584 455 584 338 c 0
289 60 m 0
 453 60 494 253 494 325 c 0
 494 405 454 458 373 458 c 0
 230 458 169 297 169 192 c 0
 169 123 197 60 289 60 c 0
EndSplineSet
Validated: 1
Layer: 2
SplineSet
584 338 m 0,0,1
 584 296 584 296 573.5 250 c 128,-1,2
 563 204 563 204 538.5 157 c 128,-1,3
 514 110 514 110 479.5 72.5 c 128,-1,4
 445 35 445 35 391 11.5 c 128,-1,5
 337 -12 337 -12 273 -12 c 0,6,7
 168 -12 168 -12 123.5 43 c 128,-1,8
 79 98 79 98 79 181 c 0,9,10
 79 227 79 227 90.5 275 c 128,-1,11
 102 323 102 323 127.5 369 c 128,-1,12
 153 415 153 415 188 450.5 c 128,-1,13
 223 486 223 486 275.5 508 c 128,-1,14
 328 530 328 530 389 530 c 0,15,16
 484 530 484 530 534 479 c 128,-1,17
 584 428 584 428 584 338 c 0,0,1
289 60 m 0,18,19
 336 60 336 60 373 81 c 128,-1,20
 410 102 410 102 432 132.5 c 128,-1,21
 454 163 454 163 468.5 201 c 128,-1,22
 483 239 483 239 488.5 269.5 c 128,-1,23
 494 300 494 300 494 325 c 0,24,25
 494 387 494 387 463 422.5 c 128,-1,26
 432 458 432 458 373 458 c 0,27,28
 306 458 306 458 257.5 412 c 128,-1,29
 209 366 209 366 189 308 c 128,-1,30
 169 250 169 250 169 192 c 256,31,32
 169 134 169 134 197 97 c 128,-1,33
 225 60 225 60 289 60 c 0,18,19
EndSplineSet
EndChar

StartChar: p
Encoding: 112 112 81
Width: 556
VWidth: 2048
Flags: W
HStem: -199 21G<24 117.19> -12 72<230.8 369.96> 458 72<319.03 450.788> 498 20G<171.76 265>
VStem: 490 91<223.213 418.018>
DStem2: 24 -199 113 -199 0.207912 0.978148<18.5041 276.995 682.992 732.934>
LayerCount: 3
Fore
SplineSet
581 348 m 0xe8
 581 189 473 -12 287 -12 c 0
 232 -12 191 11 166 54 c 1
 113 -199 l 1
 24 -199 l 1
 176 518 l 1
 265 518 l 1xd8
 251 451 l 1
 291 504 348 530 409 530 c 0
 525 530 581 458 581 348 c 0xe8
298 60 m 0
 435 60 490 237 490 334 c 0
 490 408 457 458 385 458 c 0xe8
 252 458 199 271 199 173 c 0
 199 109 224 60 298 60 c 0
EndSplineSet
Validated: 1
Layer: 2
SplineSet
581 348 m 0,0,1
 581 287 581 287 560.5 224.5 c 128,-1,2
 540 162 540 162 504 108.5 c 128,-1,3
 468 55 468 55 411 21.5 c 128,-1,4
 354 -12 354 -12 287 -12 c 0,5,6
 204 -12 204 -12 166 54 c 1,7,-1
 113 -199 l 1,8,-1
 24 -199 l 1,9,-1
 176 518 l 1,10,-1
 265 518 l 1,11,-1
 251 451 l 1,12,13
 311 530 311 530 409 530 c 0,14,15
 494 530 494 530 537.5 481.5 c 128,-1,16
 581 433 581 433 581 348 c 0,0,1
298 60 m 0,17,18
 346 60 346 60 385 88.5 c 128,-1,19
 424 117 424 117 446 161 c 128,-1,20
 468 205 468 205 479 250 c 128,-1,21
 490 295 490 295 490 334 c 0,22,23
 490 392 490 392 463.5 425 c 128,-1,24
 437 458 437 458 385 458 c 0,25,26
 338 458 338 458 300.5 428 c 128,-1,27
 263 398 263 398 242 352 c 128,-1,28
 221 306 221 306 210 259.5 c 128,-1,29
 199 213 199 213 199 173 c 0,30,31
 199 60 199 60 298 60 c 0,17,18
EndSplineSet
EndChar

StartChar: q
Encoding: 113 113 82
Width: 556
VWidth: 2048
Flags: W
HStem: -199 21G<354 447.24> -12 72<216.485 347.115> 458 72<289.249 423.944> 498 20G<501.652 595>
VStem: 84 89<103.856 303.868>
DStem2: 354 -199 443 -199 0.207912 0.978148<18.5041 259.677 662.324 732.934>
LayerCount: 3
Fore
SplineSet
84 184 m 0xd8
 84 320 169 530 367 530 c 0xe8
 432 530 475 504 491 449 c 1
 506 518 l 1
 595 518 l 1
 443 -199 l 1
 354 -199 l 1
 408 55 l 1
 367 11 316 -12 258 -12 c 0
 143 -12 84 70 84 184 c 0xd8
281 60 m 0
 424 60 459 261 459 334 c 0
 459 406 431 458 359 458 c 0
 228 458 173 286 173 187 c 0
 173 86 234 60 281 60 c 0
EndSplineSet
Validated: 1
Layer: 2
SplineSet
84 184 m 0,0,1
 84 226 84 226 94 272 c 128,-1,2
 104 318 104 318 127 364.5 c 128,-1,3
 150 411 150 411 182 447.5 c 128,-1,4
 214 484 214 484 262 507 c 128,-1,5
 310 530 310 530 367 530 c 0,6,7
 467 530 467 530 491 449 c 1,8,-1
 506 518 l 1,9,-1
 595 518 l 1,10,-1
 443 -199 l 1,11,-1
 354 -199 l 1,12,-1
 408 55 l 1,13,14
 346 -12 346 -12 258 -12 c 0,15,16
 174 -12 174 -12 129 42 c 128,-1,17
 84 96 84 96 84 184 c 0,0,1
281 60 m 0,18,19
 331 60 331 60 368.5 91.5 c 128,-1,20
 406 123 406 123 424 170.5 c 128,-1,21
 442 218 442 218 450.5 259.5 c 128,-1,22
 459 301 459 301 459 334 c 0,23,24
 459 458 459 458 359 458 c 0,25,26
 298 458 298 458 253.5 409.5 c 128,-1,27
 209 361 209 361 191 301.5 c 128,-1,28
 173 242 173 242 173 187 c 0,29,30
 173 119 173 119 205.5 89.5 c 128,-1,31
 238 60 238 60 281 60 c 0,18,19
EndSplineSet
EndChar

StartChar: r
Encoding: 114 114 83
Width: 332
VWidth: 2048
Flags: W
HStem: 0 21G<64 157.28> 458 72<308.913 423.081> 498 20G<169.753 263>
DStem2: 64 0 153 0 0.207912 0.978148<18.5041 430.064 468.433 529.551>
LayerCount: 3
Fore
SplineSet
64 0 m 1xc0
 174 518 l 1
 263 518 l 1xa0
 247 440 l 1
 285 500 328 530 369 530 c 0
 400 530 427 521 453 503 c 1
 410 438 l 1
 392 452 371 458 350 458 c 0
 295 458 239 402 211 271 c 2
 153 0 l 1
 64 0 l 1xc0
EndSplineSet
Validated: 1
Layer: 2
SplineSet
64 0 m 1,0,-1
 174 518 l 1,1,-1
 263 518 l 1,2,-1
 247 440 l 1,3,4
 304 530 304 530 369 530 c 0,5,6
 414 530 414 530 453 503 c 1,7,-1
 410 438 l 1,8,9
 384 458 384 458 350 458 c 0,10,11
 306 458 306 458 268.5 411.5 c 128,-1,12
 231 365 231 365 211 271 c 2,13,-1
 153 0 l 1,14,-1
 64 0 l 1,0,-1
EndSplineSet
EndChar

StartChar: s
Encoding: 115 115 84
Width: 499
VWidth: 2048
Flags: W
HStem: -12 72<185.919 359.909> 458 72<249.085 412.362>
VStem: 64 89<91.6995 155> 123 94<343.98 428.467> 404 93<103.394 191.423> 436 89<385 435.268>
LayerCount: 3
Fore
SplineSet
266 60 m 0xe8
 387 60 404 129 404 157 c 0xe8
 404 199 354 206 291 222 c 0
 198 246 123 270 123 349 c 0
 123 425 185 530 349 530 c 0
 498 530 525 467 525 397 c 0
 525 393 525 389 525 385 c 1
 435 374 l 1
 435 377 436 379 436 382 c 0
 436 432 403 458 339 458 c 0
 235 458 217 410 217 378 c 0xd4
 217 346 248 334 311 316 c 0
 407 289 497 273 497 186 c 0
 497 67 380 -12 250 -12 c 0
 125 -12 64 40 64 145 c 2
 64 155 l 1
 154 169 l 1
 154 164 153 159 153 154 c 0
 153 92 192 60 266 60 c 0xe8
EndSplineSet
Validated: 1
Layer: 2
SplineSet
266 60 m 0,0,1
 308 60 308 60 338 70.5 c 128,-1,2
 368 81 368 81 381 98 c 128,-1,3
 394 115 394 115 399 129.5 c 128,-1,4
 404 144 404 144 404 157 c 0,5,6
 404 164 404 164 402.5 170 c 128,-1,7
 401 176 401 176 397 180.5 c 128,-1,8
 393 185 393 185 389 189 c 128,-1,9
 385 193 385 193 377.5 196.5 c 128,-1,10
 370 200 370 200 364.5 202 c 128,-1,11
 359 204 359 204 348 207 c 128,-1,12
 337 210 337 210 331 212 c 128,-1,13
 325 214 325 214 311.5 217 c 128,-1,14
 298 220 298 220 291 222 c 0,15,16
 249 233 249 233 224.5 241.5 c 128,-1,17
 200 250 200 250 173.5 264.5 c 128,-1,18
 147 279 147 279 135 300 c 128,-1,19
 123 321 123 321 123 349 c 0,20,21
 123 417 123 417 180 473.5 c 128,-1,22
 237 530 237 530 349 530 c 0,23,24
 451 530 451 530 488 494.5 c 128,-1,25
 525 459 525 459 525 397 c 2,26,-1
 525 385 l 1,27,-1
 435 374 l 2,28,29
 435 376 435 376 435.5 378 c 128,-1,30
 436 380 436 380 436 382 c 0,31,32
 436 458 436 458 339 458 c 0,33,34
 270 458 270 458 243.5 434 c 128,-1,35
 217 410 217 410 217 378 c 0,36,37
 217 356 217 356 238 343.5 c 128,-1,38
 259 331 259 331 311 316 c 0,39,40
 318 314 318 314 342 307.5 c 128,-1,41
 366 301 366 301 373.5 298.5 c 128,-1,42
 381 296 381 296 401 289.5 c 128,-1,43
 421 283 421 283 428.5 279 c 128,-1,44
 436 275 436 275 450.5 267.5 c 128,-1,45
 465 260 465 260 470.5 252.5 c 128,-1,46
 476 245 476 245 484 234.5 c 128,-1,47
 492 224 492 224 494.5 212 c 128,-1,48
 497 200 497 200 497 186 c 0,49,50
 497 99 497 99 424 43.5 c 128,-1,51
 351 -12 351 -12 250 -12 c 0,52,53
 64 -12 64 -12 64 145 c 2,54,-1
 64 155 l 1,55,-1
 154 169 l 2,56,57
 154 166 154 166 153.5 161 c 128,-1,58
 153 156 153 156 153 154 c 0,59,60
 153 60 153 60 266 60 c 0,0,1
EndSplineSet
EndChar

StartChar: t
Encoding: 116 116 85
Width: 277
VWidth: 2048
Flags: W
HStem: -6 72<199.199 271> 451 67<128 178 281 354>
VStem: 102 95<43.8718 194.273>
DStem2: 80.4161 -6 169.479 -6 0.207912 0.978148<132.387 467.302 554.253 667.752>
LayerCount: 3
Fore
SplineSet
202 147 m 2
 198 130 197 116 197 104 c 0
 197 78 207 66 233 66 c 0
 244 66 257 68 273 69 c 1
 271 0 l 1
 244 -5 223 -6 203 -6 c 0
 126 -6 102 20 102 69 c 0
 102 92 107 120 114 152 c 2
 178 451 l 1
 114 451 l 1
 128 518 l 1
 192 518 l 1
 220 647 l 1
 320 700 l 1
 281 518 l 1
 368 518 l 1
 354 451 l 1
 267 451 l 1
 202 147 l 2
EndSplineSet
Validated: 1
Layer: 2
SplineSet
202 147 m 2,0,1
 197 126 197 126 197 104 c 0,2,3
 197 66 197 66 233 66 c 0,4,5
 239 66 239 66 253 67.5 c 128,-1,6
 267 69 267 69 273 69 c 1,7,-1
 271 0 l 1,8,9
 239 -6 239 -6 203 -6 c 0,10,11
 147 -6 147 -6 124.5 12.5 c 128,-1,12
 102 31 102 31 102 69 c 0,13,14
 102 97 102 97 114 152 c 2,15,-1
 178 451 l 1,16,-1
 114 451 l 1,17,-1
 128 518 l 1,18,-1
 192 518 l 1,19,-1
 220 647 l 1,20,-1
 320 700 l 1,21,-1
 281 518 l 1,22,-1
 368 518 l 1,23,-1
 354 451 l 1,24,-1
 267 451 l 1,25,-1
 202 147 l 2,0,1
EndSplineSet
EndChar

StartChar: u
Encoding: 117 117 86
Width: 556
VWidth: 2048
Flags: W
HStem: -12 72<206.857 333.532> 0 21G<395 488.247> 498 20G<169.75 263 500.74 594>
VStem: 95 95<78.0781 248.469>
DStem2: 61.3631 -12 150.349 -12 0.207912 0.978148<176.529 541.837> 392.449 -12 481.449 -12 0.207912 0.978148<30.7722 90.912 129.755 541.819>
LayerCount: 3
Fore
SplineSet
272 60 m 0xb0
 382 60 423 133 446 241 c 2
 505 518 l 1
 594 518 l 1
 484 0 l 1
 395 0 l 1x70
 411 77 l 1
 369 17 308 -12 238 -12 c 0
 138 -12 95 28 95 112 c 0
 95 137 99 165 106 198 c 2
 174 518 l 1
 263 518 l 1
 202 231 l 2
 194 194 190 164 190 140 c 0
 190 85 213 60 272 60 c 0xb0
EndSplineSet
Validated: 1
Layer: 2
SplineSet
272 60 m 0,0,1
 349 60 349 60 388 106 c 128,-1,2
 427 152 427 152 446 241 c 2,3,-1
 505 518 l 1,4,-1
 594 518 l 1,5,-1
 484 0 l 1,6,-1
 395 0 l 1,7,-1
 411 77 l 1,8,9
 349 -12 349 -12 238 -12 c 0,10,11
 164 -12 164 -12 129.5 18 c 128,-1,12
 95 48 95 48 95 112 c 0,13,14
 95 146 95 146 106 198 c 2,15,-1
 174 518 l 1,16,-1
 263 518 l 1,17,-1
 202 231 l 2,18,19
 190 175 190 175 190 140 c 0,20,21
 190 98 190 98 209 79 c 128,-1,22
 228 60 228 60 272 60 c 0,0,1
EndSplineSet
EndChar

StartChar: v
Encoding: 118 118 87
Width: 499
VWidth: 2048
Flags: W
HStem: 0 21G<206.602 302.892> 498 20G<122 218.95 497.3 599>
DStem2: 216 518 122 518 0.167485 -0.985875<0 404.231> 275 118 291 0 0.511075 0.859536<0 463.406>
LayerCount: 3
Fore
SplineSet
210 0 m 1
 122 518 l 1
 216 518 l 1
 275 118 l 1
 509 518 l 1
 599 518 l 1
 291 0 l 1
 210 0 l 1
EndSplineSet
Validated: 1
Layer: 2
SplineSet
210 0 m 1,0,-1
 122 518 l 1,1,-1
 216 518 l 1,2,-1
 275 118 l 1,3,-1
 509 518 l 1,4,-1
 599 518 l 1,5,-1
 291 0 l 1,6,-1
 210 0 l 1,0,-1
EndSplineSet
EndChar

StartChar: w
Encoding: 119 119 88
Width: 721
VWidth: 2048
Flags: W
HStem: 0 21G<159.147 263.524 460.148 562.502> 498 20G<113 205.265 417.414 518.905 729.749 824>
VStem: 444 74<363.222 399> 461 75<120 164.294>
DStem2: 204 518 113 518 0.0922688 -0.995734<0 411.646> 230 107 254 0 0.432232 0.901763<0 355.812> 536 120 552 0 0.464901 0.885363<0 447.214>
LayerCount: 3
Fore
SplineSet
161 0 m 1xe0
 113 518 l 1
 204 518 l 1
 230 107 l 1
 427 518 l 1
 518 518 l 1xe0
 536 120 l 1
 740 518 l 1
 824 518 l 1
 552 0 l 1
 461 0 l 1xd0
 444 399 l 1
 254 0 l 1
 161 0 l 1xe0
EndSplineSet
Validated: 1
Layer: 2
SplineSet
161 0 m 1,0,-1
 113 518 l 1,1,-1
 204 518 l 1,2,-1
 230 107 l 1,3,-1
 427 518 l 1,4,-1
 518 518 l 1,5,-1
 536 120 l 1,6,-1
 740 518 l 1,7,-1
 824 518 l 1,8,-1
 552 0 l 1,9,-1
 461 0 l 1,10,-1
 444 399 l 1,11,-1
 254 0 l 1,12,-1
 161 0 l 1,0,-1
EndSplineSet
EndChar

StartChar: x
Encoding: 120 120 89
Width: 499
VWidth: 2048
Flags: W
HStem: 0 21G<8 131.342 375.155 494> 498 20G<131 251.767 465.628 588>
DStem2: 8 0 113 0 0.676625 0.736328<71.0457 332.92 469.936 703.491> 242 518 131 518 0.440267 -0.897867<0 191.416 312.94 528.053>
LayerCount: 3
Fore
SplineSet
8 0 m 1
 254 268 l 1
 131 518 l 1
 242 518 l 1
 326 346 l 1
 484 518 l 1
 588 518 l 1
 362 271 l 1
 494 0 l 1
 385 0 l 1
 290 193 l 1
 113 0 l 1
 8 0 l 1
EndSplineSet
Validated: 1
Layer: 2
SplineSet
8 0 m 1,0,-1
 254 268 l 1,1,-1
 131 518 l 1,2,-1
 242 518 l 1,3,-1
 326 346 l 1,4,-1
 484 518 l 1,5,-1
 588 518 l 1,6,-1
 362 271 l 1,7,-1
 494 0 l 1,8,-1
 385 0 l 1,9,-1
 290 193 l 1,10,-1
 113 0 l 1,11,-1
 8 0 l 1,0,-1
EndSplineSet
EndChar

StartChar: y
Encoding: 121 121 90
Width: 499
VWidth: 2048
Flags: W
HStem: -210 72<24.2126 133.294> 498 20G<127 223.077 501.477 602>
DStem2: 220 518 127 518 0.163781 -0.986497<0 421.943> 164 -83 292 -9 0.50702 0.861934<-67.8437 96.3845 215.393 694.972>
LayerCount: 3
Fore
SplineSet
21 -199 m 1
 24 -130 l 1
 43 -135 58 -138 74 -138 c 0
 114 -138 147 -112 164 -83 c 2
 164 -83 210 -7 213 0 c 1
 127 518 l 1
 220 518 l 1
 266 219 l 2
 273 175 276 135 277 98 c 1
 297 138 315 176 339 216 c 2
 513 518 l 1
 602 518 l 1
 292 -9 l 2
 234 -107 177 -210 75 -210 c 0
 58 -210 39 -207 21 -199 c 1
EndSplineSet
Validated: 1
Layer: 2
SplineSet
21 -199 m 1,0,-1
 24 -130 l 1,1,2
 54 -138 54 -138 74 -138 c 0,3,4
 102 -138 102 -138 126 -122 c 128,-1,5
 150 -106 150 -106 164 -83 c 0,6,7
 210 -7 210 -7 213 0 c 1,8,-1
 127 518 l 1,9,-1
 220 518 l 1,10,-1
 266 219 l 2,11,12
 275 160 275 160 277 98 c 1,13,14
 321 186 321 186 339 216 c 2,15,-1
 513 518 l 1,16,-1
 602 518 l 1,17,-1
 292 -9 l 2,18,19
 269 -48 269 -48 262 -59.5 c 128,-1,20
 255 -71 255 -71 233.5 -103.5 c 128,-1,21
 212 -136 212 -136 199 -148 c 128,-1,22
 186 -160 186 -160 164.5 -178.5 c 128,-1,23
 143 -197 143 -197 121.5 -203.5 c 128,-1,24
 100 -210 100 -210 75 -210 c 0,25,26
 46 -210 46 -210 21 -199 c 1,0,-1
EndSplineSet
EndChar

StartChar: z
Encoding: 122 122 91
Width: 499
VWidth: 2048
Flags: W
HStem: 0 72<139.921 478> 446 72<148 442>
DStem2: 35 71 138 68 0.732608 0.68065<73.4167 555.457>
LayerCount: 3
Fore
SplineSet
20 0 m 1
 35 71 l 1
 442 449 l 1
 406 447 374 446 346 446 c 2
 133 446 l 1
 148 518 l 1
 573 518 l 1
 561 461 l 1
 138 68 l 1
 179 71 219 72 254 72 c 2
 493 72 l 1
 478 0 l 1
 20 0 l 1
EndSplineSet
Validated: 1
Layer: 2
SplineSet
20 0 m 1,0,-1
 35 71 l 1,1,-1
 442 449 l 1,2,3
 388 446 388 446 346 446 c 2,4,-1
 133 446 l 1,5,-1
 148 518 l 1,6,-1
 573 518 l 1,7,-1
 561 461 l 1,8,-1
 138 68 l 1,9,10
 193 72 193 72 254 72 c 2,11,-1
 493 72 l 1,12,-1
 478 0 l 1,13,-1
 20 0 l 1,0,-1
EndSplineSet
EndChar

StartChar: braceleft
Encoding: 123 123 92
Width: 334
VWidth: 2048
Flags: W
HStem: -210 77<202.23 266> 219 80<92 126.831> 651 77<358.712 449>
VStem: 112 86<-126.42 11.9219> 149 82<-14.9697 198.058>
CounterMasks: 1 e0
LayerCount: 3
Fore
SplineSet
198 -96 m 0xf0
 198 -118 212 -133 268 -133 c 2
 283 -133 l 1
 266 -210 l 1
 239 -210 l 2
 191 -210 159 -202 140 -184 c 0
 123 -168 112 -145 112 -119 c 0xf0
 112 -114 112 -109 113 -103 c 2
 142 58 l 2
 147 83 149 105 149 124 c 0
 149 186 125 218 75 219 c 1
 92 299 l 1
 158 300 202 354 228 460 c 2
 267 621 l 2
 275 654 300 682 328 702 c 0
 354 721 391 728 439 728 c 2
 466 728 l 1
 449 651 l 1
 434 651 l 2
 394 651 370 644 355 625 c 0
 345 612 331 562 314 480 c 0
 288 359 239 287 164 259 c 1
 209 239 231 197 231 131 c 0xe8
 231 57 198 -39 198 -96 c 0xf0
EndSplineSet
Validated: 1
Layer: 2
SplineSet
198 -96 m 0,0,1
 198 -133 198 -133 268 -133 c 2,2,-1
 283 -133 l 1,3,-1
 266 -210 l 1,4,-1
 239 -210 l 2,5,6
 167 -210 167 -210 140 -184 c 0,7,8
 112 -158 112 -158 112 -119 c 0,9,10
 112 -109 112 -109 113 -103 c 2,11,-1
 142 58 l 2,12,13
 149 93 149 93 149 124 c 0,14,15
 149 218 149 218 75 219 c 1,16,-1
 92 299 l 1,17,18
 189 300 189 300 228 460 c 2,19,-1
 267 621 l 2,20,21
 278 666 278 666 328 702 c 0,22,23
 364 728 364 728 439 728 c 2,24,-1
 466 728 l 1,25,-1
 449 651 l 1,26,-1
 434 651 l 2,27,28
 376 651 376 651 355 625 c 0,29,30
 340 606 340 606 314 480 c 0,31,32
 275 301 275 301 164 259 c 1,33,34
 231 229 231 229 231 131 c 0,35,36
 231 92 231 92 214.5 11 c 128,-1,37
 198 -70 198 -70 198 -96 c 0,0,1
EndSplineSet
EndChar

StartChar: bar
Encoding: 124 124 93
Width: 259
VWidth: 2048
Flags: W
HStem: -210 21G<47 128.264> 708 20G<242.736 324>
VStem: 47 277
DStem2: 47 -210 124 -210 0.207912 0.978148<16.0092 959.085>
LayerCount: 3
Fore
SplineSet
47 -210 m 1
 247 728 l 1
 324 728 l 1
 124 -210 l 1
 47 -210 l 1
EndSplineSet
Validated: 1
Layer: 2
SplineSet
47 -210 m 1,0,-1
 247 728 l 1,1,-1
 324 728 l 1,2,-1
 124 -210 l 1,3,-1
 47 -210 l 1,0,-1
EndSplineSet
EndChar

StartChar: braceright
Encoding: 125 125 94
Width: 334
VWidth: 2048
Flags: W
HStem: -210 77<-4 86.2881> 219 80<319.077 354> 651 77<179 242.77>
VStem: 214 82<320.631 532.97> 247 86<506.078 644.42>
CounterMasks: 1 e0
LayerCount: 3
Fore
SplineSet
247 614 m 0xe8
 247 636 233 651 177 651 c 2
 162 651 l 1
 179 728 l 1
 206 728 l 2
 254 728 286 720 305 702 c 0
 322 686 333 663 333 637 c 0xe8
 333 632 333 627 332 621 c 2
 303 460 l 2
 298 435 296 413 296 394 c 0
 296 332 321 300 371 299 c 1
 354 219 l 1
 288 218 243 164 217 58 c 2
 178 -103 l 2
 170 -136 145 -164 117 -184 c 0
 91 -203 54 -210 6 -210 c 2
 -21 -210 l 1
 -4 -133 l 1
 11 -133 l 2
 51 -133 75 -126 90 -107 c 0
 100 -94 114 -44 131 38 c 0
 157 159 206 231 281 259 c 1
 236 279 214 321 214 387 c 0xf0
 214 461 247 557 247 614 c 0xe8
EndSplineSet
Validated: 1
Layer: 2
SplineSet
247 614 m 0,0,1
 247 651 247 651 177 651 c 2,2,-1
 162 651 l 1,3,-1
 179 728 l 1,4,-1
 206 728 l 2,5,6
 278 728 278 728 305 702 c 0,7,8
 333 676 333 676 333 637 c 0,9,10
 333 627 333 627 332 621 c 2,11,-1
 303 460 l 2,12,13
 296 425 296 425 296 394 c 0,14,15
 296 300 296 300 371 299 c 1,16,-1
 354 219 l 1,17,18
 256 218 256 218 217 58 c 2,19,-1
 178 -103 l 2,20,21
 167 -148 167 -148 117 -184 c 0,22,23
 81 -210 81 -210 6 -210 c 2,24,-1
 -21 -210 l 1,25,-1
 -4 -133 l 1,26,-1
 11 -133 l 2,27,28
 69 -133 69 -133 90 -107 c 0,29,30
 105 -88 105 -88 131 38 c 0,31,32
 170 217 170 217 281 259 c 1,33,34
 214 289 214 289 214 387 c 0,35,36
 214 426 214 426 230.5 507 c 128,-1,37
 247 588 247 588 247 614 c 0,0,1
EndSplineSet
EndChar

StartChar: asciitilde
Encoding: 126 126 95
Width: 583
VWidth: 2048
Flags: W
HStem: 281 84<418.783 559.722> 347 84<177.118 324.407>
LayerCount: 3
Fore
SplineSet
468 281 m 0x80
 385 281 314 347 244 347 c 0x40
 204 347 158 324 103 281 c 1x80
 122 372 l 1
 164 411 215 431 270 431 c 0x40
 356 431 433 365 493 365 c 0
 538 365 584 388 635 432 c 1
 614 336 l 1
 566 299 518 281 468 281 c 0x80
EndSplineSet
Validated: 1
Layer: 2
SplineSet
468 281 m 0,0,1
 425 281 425 281 351 314 c 128,-1,2
 277 347 277 347 244 347 c 0,3,4
 187 347 187 347 103 281 c 1,5,-1
 122 372 l 1,6,7
 186 431 186 431 270 431 c 0,8,9
 316 431 316 431 391 398 c 128,-1,10
 466 365 466 365 493 365 c 0,11,12
 557 365 557 365 635 432 c 1,13,-1
 614 336 l 1,14,15
 543 281 543 281 468 281 c 0,0,1
EndSplineSet
EndChar

StartChar: ellipsis
Encoding: 8230 8230 100
Width: 570
VWidth: 2048
Flags: W
HStem: 0 118<85.4504 166.784 272.45 353.784 460.372 542.395>
VStem: 67 120<19.4336 99.5569> 254 120<19.4336 99.5569> 443 119<20.1554 100.011>
LayerCount: 3
Fore
SplineSet
562 77 m 0
 562 51 549 0 489 0 c 0
 459 0 443 16 443 47 c 0
 443 73 457 118 514 118 c 0
 545 118 562 104 562 77 c 0
374 77 m 0
 374 53 363 0 300 0 c 0
 270 0 254 17 254 49 c 0
 254 71 268 118 325 118 c 0
 357 118 374 104 374 77 c 0
187 77 m 0
 187 53 176 0 113 0 c 0
 83 0 67 17 67 49 c 0
 67 71 81 118 138 118 c 0
 170 118 187 104 187 77 c 0
EndSplineSet
Validated: 1
Layer: 2
SplineSet
562 77 m 0,0,1
 562 50 562 50 545.5 25 c 128,-1,2
 529 0 529 0 489 0 c 0,3,4
 443 0 443 0 443 47 c 0,5,6
 443 73 443 73 459.5 95.5 c 128,-1,7
 476 118 476 118 514 118 c 0,8,9
 562 118 562 118 562 77 c 0,0,1
374 77 m 0,10,11
 374 61 374 61 369.5 45.5 c 128,-1,12
 365 30 365 30 347 15 c 128,-1,13
 329 0 329 0 300 0 c 0,14,15
 254 0 254 0 254 49 c 0,16,17
 254 72 254 72 270.5 95 c 128,-1,18
 287 118 287 118 325 118 c 0,19,20
 374 118 374 118 374 77 c 0,10,11
187 77 m 0,21,22
 187 61 187 61 182.5 45.5 c 128,-1,23
 178 30 178 30 160 15 c 128,-1,24
 142 0 142 0 113 0 c 0,25,26
 67 0 67 0 67 49 c 0,27,28
 67 72 67 72 83.5 95 c 128,-1,29
 100 118 100 118 138 118 c 0,30,31
 187 118 187 118 187 77 c 0,21,22
EndSplineSet
EndChar

StartChar: uni0E48.low_left
Encoding: 63237 63237 101
Width: 0
Flags: W
HStem: 665 222<-99 -78>
VStem: -147 117
DStem2: -147 665 -78 665 0.207912 0.978148<14.3459 227.129>
LayerCount: 3
Back
SplineSet
-106 665 m 1
 -175 665 l 1
 -127 887 l 1
 -58 887 l 1
 -106 665 l 1
EndSplineSet
Fore
Refer: 106 63242 N 1 0 0 1 -99 0 2
Validated: 1
Layer: 2
Refer: 106 63242 N 1 0 0 1 -99 0 2
EndChar

StartChar: uni0E49.low_left
Encoding: 63238 63238 102
Width: 0
Flags: W
HStem: 798 42<-346.608 -302.383> 932 43<-335.953 -259.128>
VStem: -399 49<843.568 919.036> -256 48<851.683 929.583>
LayerCount: 3
Back
SplineSet
-15 796 m 1
 -15 796 l 0
 -51 757 -86 727 -161 696 c 0
 -213 674 -259 667 -297 667 c 0
 -317 667 -334 668 -351 671 c 1
 -336 679 -320 693 -308 707 c 0
 -299 717 -284 733 -282 740 c 1
 -288 740 -293 739 -297 739 c 0
 -325 739 -340 750 -354 766 c 0
 -360 774 -363 785 -363 797 c 0
 -363 838 -331 892 -274 900 c 0
 -267 901 -261 901 -254 901 c 0
 -205 901 -190 868 -190 835 c 0
 -190 831 -190 828 -190 823 c 0
 -196 768 -244 717 -247 717 c 0
 -199 727 -169 740 -127 768 c 0
 -69 803 -38 832 5 891 c 1
 -15 796 l 1
-285 777 m 0
 -253 777 -235 805 -235 829 c 0
 -235 846 -245 861 -268 861 c 0
 -300 861 -320 834 -320 811 c 0
 -320 792 -310 777 -285 777 c 0
EndSplineSet
Fore
Refer: 107 63243 N 1 0 0 1 -199 0 2
Validated: 1
Layer: 2
Refer: 107 63243 N 1 0 0 1 -199 0 2
EndChar

StartChar: uni0E4C.low_left
Encoding: 63241 63241 105
Width: 0
Flags: W
HStem: 667 43<-169.748 -92.9526> 802 41<-160.244 -84.696>
VStem: -238 65<713.4 813.162> -81 48<720.289 799.46>
LayerCount: 3
Back
SplineSet
67 972 m 1
 67 972 l 0
 61 960 54 917 -3 889 c 0
 -71 855 -143 877 -201 851 c 0
 -231 837 -238 812 -241 809 c 1
 -224 820 -213 826 -185 826 c 0
 -150 826 -124 802 -124 766 c 0
 -124 760 -124 756 -126 750 c 0
 -136 699 -179 670 -224 668 c 0
 -228 668 l 0
 -281 668 -308 707 -308 754 c 0
 -308 773 -303 792 -294 812 c 0
 -258 891 -192 912 -90 912 c 0
 -11 912 -8 969 -2 972 c 1
 67 972 l 1
-218 707 m 0
 -187 707 -167 733 -167 756 c 0
 -167 774 -178 789 -202 789 c 0
 -233 789 -251 762 -251 739 c 0
 -251 722 -241 707 -218 707 c 0
EndSplineSet
Fore
Refer: 110 63246 S 1 0 0 1 -99 0 2
Validated: 1
Layer: 2
Refer: 110 63246 S 1 0 0 1 -99 0 2
EndChar

StartChar: uni0E48.low
Encoding: 63242 63242 106
Width: 0
Flags: W
HStem: 665 222<0 21>
VStem: -48 117
DStem2: -48 665 21 665 0.207912 0.978148<14.3459 227.129>
AnchorPoint: "AboveMark" 56 988 basemark 0
AnchorPoint: "AboveBase" 27 659 mark 0
LayerCount: 3
Fore
SplineSet
21 665 m 1
 -48 665 l 1
 -0 887 l 1
 69 887 l 1
 21 665 l 1
EndSplineSet
Validated: 1
Layer: 2
SplineSet
21 665 m 1,0,-1
 -48 665 l 1,1,-1
 -0 887 l 1,2,-1
 69 887 l 1,3,-1
 21 665 l 1,0,-1
EndSplineSet
Substitution2: "Thai Phinthu Mai Ek Reordering" uni0E3A
EndChar

StartChar: uni0E49.low
Encoding: 63243 63243 107
Width: 0
Flags: W
HStem: 798 42<-147.608 -103.383> 932 43<-136.953 -60.1278>
VStem: -200 49<843.568 919.036> -57 48<851.683 929.583>
AnchorPoint: "AboveMark" 19 988 basemark 0
AnchorPoint: "AboveBase" 127 659 mark 0
LayerCount: 3
Fore
SplineSet
-9 902 m 0
 -9 838 -64 774 -93 742 c 1
 71 756 166 872 200 926 c 1
 177 820 l 1
 173 810 66 686 -116 686 c 0
 -155 686 -190 692 -215 705 c 1
 -165 730 -116 788 -114 799 c 1
 -119 798 -124 798 -129 798 c 0
 -165 798 -200 821 -200 865 c 0
 -200 913 -161 975 -80 975 c 0
 -24 975 -9 936 -9 902 c 0
-93 932 m 0
 -129 932 -151 902 -151 876 c 0
 -151 857 -138 840 -112 840 c 0
 -78 840 -57 870 -57 897 c 0
 -57 916 -68 932 -93 932 c 0
EndSplineSet
Validated: 1
Layer: 2
SplineSet
-9 902 m 0,0,1
 -9 835 -9 835 -93 742 c 1,2,3
 -35 747 -35 747 16 768 c 128,-1,4
 67 789 67 789 103 819.5 c 128,-1,5
 139 850 139 850 161.5 875.5 c 128,-1,6
 184 901 184 901 200 926 c 1,7,-1
 177 820 l 2,8,9
 175 816 175 816 162.5 802.5 c 128,-1,10
 150 789 150 789 124 768.5 c 128,-1,11
 98 748 98 748 65 730 c 128,-1,12
 32 712 32 712 -16.5 699 c 128,-1,13
 -65 686 -65 686 -116 686 c 0,14,15
 -178 686 -178 686 -215 705 c 1,16,17
 -182 722 -182 722 -149 755 c 128,-1,18
 -116 788 -116 788 -114 799 c 1,19,20
 -119 798 -119 798 -129 798 c 0,21,22
 -158 798 -158 798 -179 816 c 128,-1,23
 -200 834 -200 834 -200 865 c 0,24,25
 -200 906 -200 906 -168 940.5 c 128,-1,26
 -136 975 -136 975 -80 975 c 0,27,28
 -42 975 -42 975 -25.5 953.5 c 128,-1,29
 -9 932 -9 932 -9 902 c 0,0,1
-93 932 m 0,30,31
 -119 932 -119 932 -135 914.5 c 128,-1,32
 -151 897 -151 897 -151 876 c 0,33,34
 -151 861 -151 861 -141 850.5 c 128,-1,35
 -131 840 -131 840 -112 840 c 0,36,37
 -88 840 -88 840 -72.5 857.5 c 128,-1,38
 -57 875 -57 875 -57 897 c 0,39,40
 -57 932 -57 932 -93 932 c 0,30,31
EndSplineSet
Substitution2: "Thai Phinthu Mai Tho Reordering" uni0E3A
EndChar

StartChar: uni0E4A.low
Encoding: 63244 63244 108
Width: 0
Flags: W
HStem: 661 32<-182.565 -130.451> 753 32<-176.042 -123.477> 832 49<-164.763 -71.6798 -48.4631 21.0696>
VStem: -236 52<693.237 780.534> -122 34<700.739 751.678> 24 56<738.56 832.187>
AnchorPoint: "AboveMark" -33 988 basemark 0
AnchorPoint: "AboveBase" 127 659 mark 0
LayerCount: 3
Fore
SplineSet
-236 739 m 0
 -236 802 -191 881 -119 881 c 0
 -93 881 -72 867 -64 845 c 1
 -43 868 -15 881 15 881 c 0
 57 881 80 848 80 810 c 0
 80 789 73 752 35 705 c 1
 129 750 154 842 161 874 c 1
 202 831 l 1
 173 756 88 665 -32 665 c 2
 -48 665 l 1
 -30 675 24 729 24 791 c 0
 24 813 15 835 -13 835 c 0
 -40 835 -65 816 -70 809 c 1
 -72 816 -95 832 -119 832 c 0
 -143 832 -177 813 -184 771 c 1
 -168 780 -156 785 -133 785 c 0
 -104 785 -88 764 -88 739 c 0
 -88 702 -121 661 -170 661 c 0
 -214 661 -236 695 -236 739 c 0
-161 693 m 0
 -138 693 -122 713 -122 730 c 0
 -122 742 -130 753 -147 753 c 0
 -169 753 -184 732 -184 715 c 0
 -184 703 -178 693 -161 693 c 0
EndSplineSet
Validated: 1
Layer: 2
SplineSet
-236 739 m 0,0,1
 -236 791 -236 791 -203 836 c 128,-1,2
 -170 881 -170 881 -119 881 c 0,3,4
 -77 881 -77 881 -64 845 c 1,5,6
 -31 881 -31 881 15 881 c 0,7,8
 45 881 45 881 62.5 860.5 c 128,-1,9
 80 840 80 840 80 810 c 0,10,11
 80 761 80 761 35 705 c 1,12,13
 134 753 134 753 161 874 c 1,14,-1
 202 831 l 1,15,16
 177 767 177 767 114 716 c 128,-1,17
 51 665 51 665 -32 665 c 2,18,-1
 -48 665 l 1,19,20
 -28 676 -28 676 -2 713 c 128,-1,21
 24 750 24 750 24 791 c 0,22,23
 24 835 24 835 -13 835 c 0,24,25
 -31 835 -31 835 -48 825.5 c 128,-1,26
 -65 816 -65 816 -70 809 c 1,27,28
 -72 815 -72 815 -87.5 823.5 c 128,-1,29
 -103 832 -103 832 -119 832 c 0,30,31
 -140 832 -140 832 -159.5 816 c 128,-1,32
 -179 800 -179 800 -184 771 c 1,33,34
 -159 785 -159 785 -133 785 c 0,35,36
 -112 785 -112 785 -100 772 c 128,-1,37
 -88 759 -88 759 -88 739 c 0,38,39
 -88 710 -88 710 -111.5 685.5 c 128,-1,40
 -135 661 -135 661 -170 661 c 0,41,42
 -202 661 -202 661 -219 682.5 c 128,-1,43
 -236 704 -236 704 -236 739 c 0,0,1
-161 693 m 0,44,45
 -145 693 -145 693 -133.5 704.5 c 128,-1,46
 -122 716 -122 716 -122 730 c 0,47,48
 -122 753 -122 753 -147 753 c 0,49,50
 -163 753 -163 753 -173.5 741 c 128,-1,51
 -184 729 -184 729 -184 715 c 0,52,53
 -184 693 -184 693 -161 693 c 0,44,45
EndSplineSet
Substitution2: "Thai Phinthu Mai Tri Reordering" uni0E3A
EndChar

StartChar: uni0E4B.low
Encoding: 63245 63245 109
Width: 0
Flags: W
HStem: 752 66<-93 -25 58 126>
VStem: -107 247
DStem2: -43 668 26 668 0.207912 0.978148<14.3459 85.9068 167.721 239.282>
AnchorPoint: "AboveMark" 60 988 basemark 0
AnchorPoint: "AboveBase" 127 659 mark 0
LayerCount: 3
Fore
SplineSet
140 818 m 1
 126 752 l 1
 44 752 l 1
 26 668 l 1
 -43 668 l 1
 -25 752 l 1
 -107 752 l 1
 -93 818 l 1
 -11 818 l 1
 7 902 l 1
 76 902 l 1
 58 818 l 1
 140 818 l 1
EndSplineSet
Validated: 1
Layer: 2
SplineSet
140 818 m 1,0,-1
 126 752 l 1,1,-1
 44 752 l 1,2,-1
 26 668 l 1,3,-1
 -43 668 l 1,4,-1
 -25 752 l 1,5,-1
 -107 752 l 1,6,-1
 -93 818 l 1,7,-1
 -11 818 l 1,8,-1
 7 902 l 1,9,-1
 76 902 l 1,10,-1
 58 818 l 1,11,-1
 140 818 l 1,0,-1
EndSplineSet
Substitution2: "Thai Phinthu Mai Chattawa Reordering" uni0E3A
EndChar

StartChar: uni0E4C.low
Encoding: 63246 63246 110
Width: 0
Flags: W
HStem: 667 43<-70.7483 6.04736> 802 41<-61.2438 14.304>
VStem: -139 65<713.4 813.162> 18 48<720.289 799.46>
AnchorPoint: "AboveMark" 23 988 basemark 0
AnchorPoint: "AboveBase" 27 659 mark 0
LayerCount: 3
Fore
SplineSet
66 777 m 0
 66 717 11 667 -47 667 c 0
 -106 667 -139 711 -139 763 c 0
 -139 782 -133 809 -123 828 c 0
 -80 915 -7 938 105 940 c 0
 194 941 198 1002 203 1006 c 1
 278 1006 l 1
 272 992 264 946 202 914 c 0
 128 875 48 901 -19 871 c 0
 -52 856 -60 829 -63 825 c 1
 -43 837 -34 843 -2 843 c 0
 37 843 66 817 66 777 c 0
-19 802 m 0
 -54 802 -74 772 -74 747 c 0
 -74 731 -66 710 -34 710 c 0
 -2 710 18 738 18 765 c 0
 18 785 6 802 -19 802 c 0
EndSplineSet
Validated: 1
Layer: 2
SplineSet
66 777 m 0,0,1
 66 733 66 733 31.5 700 c 128,-1,2
 -3 667 -3 667 -47 667 c 0,3,4
 -90 667 -90 667 -114.5 694.5 c 128,-1,5
 -139 722 -139 722 -139 763 c 0,6,7
 -139 798 -139 798 -123 828 c 0,8,9
 -92 890 -92 890 -38.5 914 c 128,-1,10
 15 938 15 938 105 940 c 0,11,12
 136 940 136 940 157 950 c 128,-1,13
 178 960 178 960 185.5 971.5 c 128,-1,14
 193 983 193 983 198 994.5 c 2,15,-1
 203 1006 l 1,16,-1
 278 1006 l 1,17,-1
 274 995 l 2,18,19
 270 984 270 984 266 976.5 c 128,-1,20
 262 969 262 969 254 957 c 128,-1,21
 246 945 246 945 232.5 934 c 128,-1,22
 219 923 219 923 202 914 c 0,23,24
 163 893 163 893 87.5 889 c 128,-1,25
 12 885 12 885 -19 871 c 0,26,27
 -30 866 -30 866 -39 858 c 128,-1,28
 -48 850 -48 850 -52 844 c 128,-1,29
 -56 838 -56 838 -59.5 831.5 c 2,30,-1
 -63 825 l 1,31,32
 -33 843 -33 843 -2 843 c 0,33,34
 28 843 28 843 47 825 c 128,-1,35
 66 807 66 807 66 777 c 0,0,1
-19 802 m 0,36,37
 -44 802 -44 802 -59 785 c 128,-1,38
 -74 768 -74 768 -74 747 c 0,39,40
 -74 710 -74 710 -34 710 c 0,41,42
 -11 710 -11 710 3.5 727 c 128,-1,43
 18 744 18 744 18 765 c 0,44,45
 18 781 18 781 8.5 791.5 c 128,-1,46
 -1 802 -1 802 -19 802 c 0,36,37
EndSplineSet
Substitution2: "Thai Phinthu Thanthakhat Reordering" uni0E3A
EndChar

StartChar: uni0E0D.descless
Encoding: 63247 63247 111
Width: 800
Flags: W
HStem: -3 50<163.616 241.915> 0 61<366 408 477 640.483> 138 50<191.521 252.258> 532 61<264.167 468.991>
VStem: 101 59<49.9034 125.034> 255 52<60.4162 135.206> 492 70<362.172 509.006>
DStem2: 82.1067 -3 151.677 -3 0.207912 0.978148<203.598 405.637> 394.396 -3 463.396 -3 0.207912 0.978148<79.7757 477.79> 626.682 -3 694.933 -3 0.207912 0.978148<65.6685 606.097>
LayerCount: 3
Fore
SplineSet
307 119 m 0x7e
 307 59 257 -3 183 -3 c 0xbe
 123 -3 101 31 101 72 c 0
 101 81 102 90 104 100 c 2
 151 322 l 2
 165 390 232 426 232 426 c 1
 203 460 136 483 110 487 c 1
 136 513 248 593 400 593 c 0
 513 593 562 541 562 477 c 0
 562 468 561 458 559 448 c 2
 477 61 l 1
 603 61 l 2
 623 61 643 72 649 102 c 2
 752 590 l 1
 821 590 l 1
 713 82 l 2
 698 12 640 0 615 0 c 2
 353 0 l 1
 366 61 l 1
 408 61 l 1
 490 445 l 2
 491 452 492 459 492 465 c 0
 492 506 459 532 363 532 c 0
 284 532 235 501 235 501 c 1
 263 501 344 423 344 423 c 1
 331 423 237 400 217 308 c 2
 191 182 l 1
 191 182 207 188 229 188 c 0
 258 188 307 173 307 119 c 0x7e
217 138 m 0
 182 138 160 109 160 83 c 0
 160 64 172 47 198 47 c 0
 232 47 255 76 255 103 c 0
 255 121 243 138 217 138 c 0
EndSplineSet
Validated: 1
Layer: 2
SplineSet
307 119 m 0,0,1
 307 72 307 72 271.5 34.5 c 128,-1,2
 236 -3 236 -3 183 -3 c 0,3,4
 141 -3 141 -3 121 18 c 128,-1,5
 101 39 101 39 101 72 c 0,6,7
 101 85 101 85 104 100 c 2,8,-1
 151 322 l 2,9,10
 157 352 157 352 177.5 378 c 128,-1,11
 198 404 198 404 215 415 c 2,12,-1
 232 426 l 1,13,14
 213 449 213 449 174 466 c 128,-1,15
 135 483 135 483 110 487 c 1,16,17
 143 520 143 520 222 556.5 c 128,-1,18
 301 593 301 593 400 593 c 0,19,20
 481 593 481 593 521.5 560.5 c 128,-1,21
 562 528 562 528 562 477 c 0,22,23
 562 463 562 463 559 448 c 2,24,-1
 477 61 l 1,25,-1
 603 61 l 2,26,27
 641 61 641 61 649 102 c 2,28,-1
 752 590 l 1,29,-1
 821 590 l 1,30,-1
 713 82 l 2,31,32
 703 36 703 36 673 18 c 128,-1,33
 643 0 643 0 615 0 c 2,34,-1
 353 0 l 1,35,-1
 366 61 l 1,36,-1
 408 61 l 1,37,-1
 490 445 l 2,38,39
 492 459 492 459 492 465 c 0,40,41
 492 532 492 532 363 532 c 0,42,43
 328 532 328 532 296 524 c 128,-1,44
 264 516 264 516 249.5 508.5 c 2,45,-1
 235 501 l 1,46,47
 247 501 247 501 274.5 481.5 c 128,-1,48
 302 462 302 462 323 442.5 c 2,49,-1
 344 423 l 1,50,51
 333 423 333 423 309.5 414.5 c 128,-1,52
 286 406 286 406 256 377.5 c 128,-1,53
 226 349 226 349 217 308 c 2,54,-1
 191 182 l 1,55,56
 207 188 207 188 229 188 c 0,57,58
 257 188 257 188 282 171.5 c 128,-1,59
 307 155 307 155 307 119 c 0,0,1
217 138 m 0,60,61
 192 138 192 138 176 121 c 128,-1,62
 160 104 160 104 160 83 c 0,63,64
 160 68 160 68 170 57.5 c 128,-1,65
 180 47 180 47 198 47 c 0,66,67
 222 47 222 47 238.5 64.5 c 128,-1,68
 255 82 255 82 255 103 c 0,69,70
 255 118 255 118 245 128 c 128,-1,71
 235 138 235 138 217 138 c 0,60,61
EndSplineSet
EndChar

StartChar: quoteleft
Encoding: 8216 8216 112
Width: 268
Flags: W
HStem: 571 20G<238 256> 679 40<277.516 313>
VStem: 142 155<479.183 577.603>
LayerCount: 3
Fore
SplineSet
297 538 m 0
 297 513 278 446 203 446 c 0
 175 446 142 459 142 508 c 0
 142 566 194 694 322 719 c 1
 313 679 l 1
 276 671 230 627 222 589 c 1
 228 591 235 591 241 591 c 0
 271 591 297 573 297 538 c 0
EndSplineSet
Validated: 1
Layer: 2
SplineSet
297 538 m 0,0,1
 297 509 297 509 274.5 477.5 c 128,-1,2
 252 446 252 446 203 446 c 0,3,4
 178 446 178 446 160 460.5 c 128,-1,5
 142 475 142 475 142 508 c 256,6,7
 142 541 142 541 159 583 c 128,-1,8
 176 625 176 625 219.5 666 c 128,-1,9
 263 707 263 707 322 719 c 1,10,-1
 313 679 l 1,11,12
 285 673 285 673 256.5 645 c 128,-1,13
 228 617 228 617 222 589 c 1,14,15
 228 591 228 591 241 591 c 0,16,17
 265 591 265 591 281 577 c 128,-1,18
 297 563 297 563 297 538 c 0,0,1
EndSplineSet
EndChar

StartChar: quoteright
Encoding: 8217 8217 113
Width: 278
Flags: W
HStem: 455 40<180 217.145> 708 20G<263.5 305>
VStem: 197 157<593.59 694.507>
LayerCount: 3
Fore
SplineSet
197 637 m 0
 197 685 235 728 292 728 c 0
 318 728 354 717 354 667 c 0
 354 609 302 482 172 455 c 1
 180 495 l 1
 215 502 263 545 272 586 c 1
 266 584 258 583 252 583 c 0
 223 583 197 602 197 637 c 0
EndSplineSet
Validated: 1
Layer: 2
SplineSet
197 637 m 0,0,1
 197 674 197 674 223.5 701 c 128,-1,2
 250 728 250 728 292 728 c 0,3,4
 317 728 317 728 335.5 714.5 c 128,-1,5
 354 701 354 701 354 667 c 0,6,7
 354 634 354 634 337 592.5 c 128,-1,8
 320 551 320 551 276 509 c 128,-1,9
 232 467 232 467 172 455 c 1,10,-1
 180 495 l 1,11,12
 207 500 207 500 236 528 c 128,-1,13
 265 556 265 556 272 586 c 1,14,15
 263 583 263 583 252 583 c 0,16,17
 229 583 229 583 213 597.5 c 128,-1,18
 197 612 197 612 197 637 c 0,0,1
EndSplineSet
EndChar

StartChar: quotedblleft
Encoding: 8220 8220 114
Width: 484
Flags: W
HStem: 444 144<238.283 280.647 468.327 510.091> 676 40<286.496 329 520.504 559>
VStem: 159 155<477.435 580.463> 386 158<478.159 574.973>
LayerCount: 3
Fore
SplineSet
544 537 m 0
 544 509 525 444 447 444 c 0
 421 444 386 456 386 505 c 0
 386 572 449 693 567 716 c 1
 559 676 l 1
 523 668 476 622 468 586 c 1
 475 588 481 588 487 588 c 0
 509 588 544 577 544 537 c 0
314 537 m 0
 314 509 295 446 220 446 c 0
 194 446 159 458 159 508 c 0
 159 572 218 695 338 719 c 1
 329 679 l 1
 293 671 246 625 238 589 c 1
 244 591 252 591 258 591 c 0
 288 591 314 573 314 537 c 0
EndSplineSet
Validated: 1
Layer: 2
SplineSet
544 537 m 0,0,1
 544 506 544 506 521 475 c 128,-1,2
 498 444 498 444 447 444 c 0,3,4
 423 444 423 444 404.5 458 c 128,-1,5
 386 472 386 472 386 505 c 0,6,7
 386 564 386 564 436 632 c 128,-1,8
 486 700 486 700 567 716 c 1,9,-1
 559 676 l 1,10,11
 532 670 532 670 503 641.5 c 128,-1,12
 474 613 474 613 468 586 c 1,13,14
 475 588 475 588 487 588 c 0,15,16
 508 588 508 588 526 576 c 128,-1,17
 544 564 544 564 544 537 c 0,0,1
314 537 m 0,18,19
 314 507 314 507 291.5 476.5 c 128,-1,20
 269 446 269 446 220 446 c 0,21,22
 196 446 196 446 177.5 460 c 128,-1,23
 159 474 159 474 159 508 c 0,24,25
 159 543 159 543 177.5 585.5 c 128,-1,26
 196 628 196 628 239 668 c 128,-1,27
 282 708 282 708 338 719 c 1,28,-1
 329 679 l 1,29,30
 302 673 302 673 273 644.5 c 128,-1,31
 244 616 244 616 238 589 c 1,32,33
 244 591 244 591 258 591 c 0,34,35
 282 591 282 591 298 577 c 128,-1,36
 314 563 314 563 314 537 c 0,18,19
EndSplineSet
EndChar

StartChar: quotedblright
Encoding: 8221 8221 115
Width: 531
Flags: W
HStem: 452 40<191 221.329 421 456.154> 580 145<235.117 282.672 467.933 511.717>
VStem: 206 159<595.392 694.507> 435 156<591.944 691.368>
LayerCount: 3
Fore
SplineSet
435 634 m 0
 435 676 468 725 531 725 c 0
 556 725 591 712 591 662 c 0
 591 602 539 478 412 452 c 1
 421 492 l 1
 455 499 504 544 512 582 c 1
 506 580 498 580 492 580 c 0
 462 580 435 598 435 634 c 0
206 636 m 0
 206 680 239 728 302 728 c 0
 329 728 365 717 365 667 c 0
 365 605 307 480 183 455 c 1
 191 495 l 1
 229 504 275 550 283 586 c 1
 276 584 269 583 263 583 c 0
 243 583 206 595 206 636 c 0
EndSplineSet
Validated: 1
Layer: 2
SplineSet
435 634 m 0,0,1
 435 669 435 669 461 697 c 128,-1,2
 487 725 487 725 531 725 c 0,3,4
 554 725 554 725 572.5 710.5 c 128,-1,5
 591 696 591 696 591 662 c 256,6,7
 591 628 591 628 574 586.5 c 128,-1,8
 557 545 557 545 514 504.5 c 128,-1,9
 471 464 471 464 412 452 c 1,10,-1
 421 492 l 1,11,12
 447 497 447 497 476.5 525.5 c 128,-1,13
 506 554 506 554 512 582 c 1,14,15
 506 580 506 580 492 580 c 0,16,17
 468 580 468 580 451.5 594 c 128,-1,18
 435 608 435 608 435 634 c 0,0,1
206 636 m 0,19,20
 206 672 206 672 232 700 c 128,-1,21
 258 728 258 728 302 728 c 0,22,23
 365 728 365 728 365 667 c 0,24,25
 365 610 365 610 316 541 c 128,-1,26
 267 472 267 472 183 455 c 1,27,-1
 191 495 l 1,28,29
 219 502 219 502 248 530.5 c 128,-1,30
 277 559 277 559 283 586 c 1,31,32
 272 583 272 583 263 583 c 0,33,34
 243 583 243 583 224.5 596 c 128,-1,35
 206 609 206 609 206 636 c 0,19,20
EndSplineSet
EndChar

StartChar: bullet
Encoding: 8226 8226 116
Width: 528
Flags: W
HStem: 98 336<273.653 381.347>
VStem: 156 343<217.361 314.639>
LayerCount: 3
Fore
SplineSet
499 305 m 0
 499 205 416 98 292 98 c 0
 198 98 156 158 156 227 c 0
 156 327 239 434 363 434 c 0
 457 434 499 374 499 305 c 0
EndSplineSet
Validated: 1
Layer: 2
SplineSet
499 305 m 0,0,1
 499 226 499 226 440 162 c 128,-1,2
 381 98 381 98 292 98 c 0,3,4
 225 98 225 98 190.5 134.5 c 128,-1,5
 156 171 156 171 156 227 c 0,6,7
 156 306 156 306 215 370 c 128,-1,8
 274 434 274 434 363 434 c 0,9,10
 430 434 430 434 464.5 397.5 c 128,-1,11
 499 361 499 361 499 305 c 0,0,1
EndSplineSet
EndChar

StartChar: endash
Encoding: 8211 8211 117
Width: 548
Flags: W
HStem: 258 68<110 578>
LayerCount: 3
Fore
SplineSet
578 258 m 1
 96 258 l 1
 110 326 l 1
 592 326 l 1
 578 258 l 1
EndSplineSet
Validated: 1
Layer: 2
SplineSet
578 258 m 1,0,-1
 96 258 l 1,1,-1
 110 326 l 1,2,-1
 592 326 l 1,3,-1
 578 258 l 1,0,-1
EndSplineSet
EndChar

StartChar: emdash
Encoding: 8212 8212 118
Width: 709
Flags: W
HStem: 258 68<110 737>
LayerCount: 3
Fore
SplineSet
737 258 m 1
 96 258 l 1
 110 326 l 1
 751 326 l 1
 737 258 l 1
EndSplineSet
Validated: 1
Layer: 2
SplineSet
737 258 m 1,0,-1
 96 258 l 1,1,-1
 110 326 l 1,2,-1
 751 326 l 1,3,-1
 737 258 l 1,0,-1
EndSplineSet
EndChar

StartChar: uni0E4C.left
Encoding: 63255 63255 126
Width: 0
Flags: W
HStem: 891 39<-79.8381 -10.1921> 1012 36<-70.0729 -2.8517>
VStem: -140 58<932.203 1026.8> 1 43<938.986 1010.19>
LayerCount: 3
Back
SplineSet
153 1194 m 1
 153 1194 l 0
 149 1185 141 1143 90 1119 c 0
 31 1090 -35 1108 -89 1085 c 0
 -112 1074 -121 1052 -124 1048 c 1
 -107 1058 -100 1064 -74 1064 c 0
 -40 1064 -18 1042 -18 1009 c 0
 -18 1004 -18 998 -20 993 c 0
 -29 949 -67 921 -107 920 c 0
 -156 920 -184 956 -184 1001 c 0
 -184 1018 -179 1035 -172 1052 c 0
 -139 1119 -80 1142 12 1142 c 0
 84 1142 87 1193 92 1194 c 2
 153 1194 l 1
-103 955 m 0
 -75 955 -57 979 -57 1001 c 0
 -57 1016 -66 1030 -87 1030 c 0
 -115 1030 -133 1006 -133 984 c 0
 -133 969 -124 955 -103 955 c 0
EndSplineSet
Fore
Refer: 200 3660 N 1 0 0 1 -56 0 2
Validated: 1
Layer: 2
Refer: 200 3660 N 1 0 0 1 -56 0 2
EndChar

StartChar: uni0E01
Encoding: 3585 3585 128
Width: 626
Flags: W
HStem: 0 21G<100 173.221 451 524.265> 532 61<293.591 508.281>
VStem: 543 71<341.25 499.73>
DStem2: 100 0 169 0 0.207912 0.978148<14.3459 402.517> 451 0 520 0 0.207912 0.978148<14.3459 455.013>
LayerCount: 3
Fore
SplineSet
249 426 m 1
 219 461 150 484 127 487 c 1
 152 512 281 593 417 593 c 0
 539 593 614 544 614 458 c 0
 614 447 613 435 610 422 c 2
 520 0 l 1
 451 0 l 1
 540 418 l 2
 542 428 543 438 543 446 c 0
 543 508 489 532 411 532 c 0
 328 532 264 498 264 498 c 1
 281 493 348 441 361 423 c 1
 348 423 254 400 234 308 c 2
 169 0 l 1
 100 0 l 1
 168 322 l 2
 182 390 249 426 249 426 c 1
EndSplineSet
Validated: 1
Layer: 2
SplineSet
249 426 m 1,0,1
 229 449 229 449 189.5 466.5 c 128,-1,2
 150 484 150 484 127 487 c 1,3,4
 156 516 156 516 242 554.5 c 128,-1,5
 328 593 328 593 417 593 c 0,6,7
 509 593 509 593 561.5 557.5 c 128,-1,8
 614 522 614 522 614 458 c 0,9,10
 614 439 614 439 610 422 c 2,11,-1
 520 0 l 1,12,-1
 451 0 l 1,13,-1
 540 418 l 2,14,15
 543 433 543 433 543 446 c 0,16,17
 543 532 543 532 411 532 c 0,18,19
 374 532 374 532 337.5 523.5 c 128,-1,20
 301 515 301 515 282.5 506.5 c 2,21,-1
 264 498 l 1,22,23
 277 494 277 494 314 465.5 c 128,-1,24
 351 437 351 437 361 423 c 1,25,26
 350 423 350 423 326.5 414.5 c 128,-1,27
 303 406 303 406 273 377.5 c 128,-1,28
 243 349 243 349 234 308 c 2,29,-1
 169 0 l 1,30,-1
 100 0 l 1,31,-1
 168 322 l 2,32,33
 174 352 174 352 194.5 378 c 128,-1,34
 215 404 215 404 232 415 c 2,35,-1
 249 426 l 1,0,1
EndSplineSet
EndChar

StartChar: uni0E02
Encoding: 3586 3586 129
Width: 648
Flags: W
HStem: 0 61<195 269 338 469.563> 352 50<180.653 260.837> 532 61<293.569 381.7>
VStem: 128 50<405.254 481.696> 276 51<416.534 492.805> 399 69<401.227 514.751>
DStem2: 256.034 0 325.034 0 0.207912 0.978148<76.7087 385.046> 460.556 0 529.981 0 0.207912 0.978148<66.4452 603.188>
LayerCount: 3
Fore
SplineSet
128 429 m 0
 128 493 191 593 319 593 c 0
 436 593 468 529 468 476 c 0
 468 398 399 352 387 293 c 2
 338 61 l 1
 422 61 l 2
 448 61 476 72 485 115 c 2
 586 590 l 1
 655 590 l 1
 554 113 l 2
 534 19 478 0 425 0 c 2
 182 0 l 1
 195 61 l 1
 269 61 l 1
 316 280 l 2
 338 383 399 392 399 469 c 0
 399 519 355 532 319 532 c 0
 309 532 299 531 291 529 c 1
 314 520 327 500 327 472 c 0
 327 416 284 352 204 352 c 0
 155 352 128 385 128 429 c 0
217 402 m 0
 253 402 276 434 276 460 c 0
 276 479 263 496 237 496 c 0
 201 496 178 464 178 438 c 0
 178 419 190 402 217 402 c 0
EndSplineSet
Validated: 1
Layer: 2
SplineSet
128 429 m 0,0,1
 128 486 128 486 179.5 539.5 c 128,-1,2
 231 593 231 593 319 593 c 0,3,4
 399 593 399 593 433.5 558.5 c 128,-1,5
 468 524 468 524 468 476 c 0,6,7
 468 442 468 442 450.5 409.5 c 128,-1,8
 433 377 433 377 412.5 346.5 c 128,-1,9
 392 316 392 316 387 293 c 2,10,-1
 338 61 l 1,11,-1
 422 61 l 2,12,13
 474 61 474 61 485 115 c 2,14,-1
 586 590 l 1,15,-1
 655 590 l 1,16,-1
 554 113 l 2,17,18
 530 0 530 0 425 0 c 2,19,-1
 182 0 l 1,20,-1
 195 61 l 1,21,-1
 269 61 l 1,22,-1
 316 280 l 2,23,24
 325 323 325 323 346.5 355 c 128,-1,25
 368 387 368 387 383.5 412 c 128,-1,26
 399 437 399 437 399 469 c 0,27,28
 399 503 399 503 375.5 517.5 c 128,-1,29
 352 532 352 532 319 532 c 0,30,31
 303 532 303 532 291 529 c 1,32,33
 327 515 327 515 327 472 c 0,34,35
 327 426 327 426 293.5 389 c 128,-1,36
 260 352 260 352 204 352 c 0,37,38
 168 352 168 352 148 373.5 c 128,-1,39
 128 395 128 395 128 429 c 0,0,1
217 402 m 0,40,41
 242 402 242 402 259 420.5 c 128,-1,42
 276 439 276 439 276 460 c 0,43,44
 276 475 276 475 266 485.5 c 128,-1,45
 256 496 256 496 237 496 c 0,46,47
 212 496 212 496 195 477.5 c 128,-1,48
 178 459 178 459 178 438 c 0,49,50
 178 423 178 423 188 412.5 c 128,-1,51
 198 402 198 402 217 402 c 0,40,41
EndSplineSet
EndChar

StartChar: uni0E03
Encoding: 3587 3587 130
Width: 677
Flags: W
HStem: 0 61<252 323 392 506.466> 260 50<182.51 261.865> 407 50<200.378 274.286> 573 20G<224.5 311.435 402.435 470 617.756 691>
VStem: 120 60<312.799 392.268> 277 50<324.467 403.751> 452 65<450.473 493>
DStem2: 310.034 0 379.034 0 0.207912 0.978148<76.7087 461.704> 351 547 340 492 0.892457 0.451132<0 61.053> 496.769 0 565.981 0 0.207912 0.978148<64.336 603.144>
LayerCount: 3
Fore
SplineSet
327 379 m 0
 327 314 267 260 207 260 c 0
 168 260 120 284 120 356 c 0
 120 425 168 545 281 593 c 1
 351 547 l 1
 442 593 l 1
 498 556 524 495 524 493 c 2
 517 460 l 2
 517 458 489 429 468 417 c 1
 392 61 l 1
 459 61 l 2
 500 61 515 88 521 114 c 2
 622 590 l 1
 691 590 l 1
 590 113 l 2
 569 15 501 0 460 0 c 2
 239 0 l 1
 252 61 l 1
 323 61 l 1
 400 424 l 2
 401 429 452 459 452 482 c 0
 452 504 423 529 420 529 c 1
 340 492 l 1
 279 529 l 1
 223 505 202 453 200 443 c 1
 215 450 231 457 245 457 c 0
 308 457 327 415 327 379 c 0
239 407 m 0
 203 407 180 376 180 347 c 0
 180 327 191 310 218 310 c 0
 255 310 277 343 277 371 c 0
 277 391 266 407 239 407 c 0
EndSplineSet
Validated: 1
Layer: 2
SplineSet
327 379 m 0,0,1
 327 331 327 331 290 295.5 c 128,-1,2
 253 260 253 260 207 260 c 0,3,4
 172 260 172 260 146 283.5 c 128,-1,5
 120 307 120 307 120 356 c 0,6,7
 120 417 120 417 162 488.5 c 128,-1,8
 204 560 204 560 281 593 c 1,9,-1
 351 547 l 1,10,-1
 442 593 l 1,11,12
 467 576 467 576 487.5 551.5 c 128,-1,13
 508 527 508 527 516 511.5 c 128,-1,14
 524 496 524 496 524 493 c 2,15,-1
 517 460 l 2,16,17
 517 459 517 459 509.5 451 c 128,-1,18
 502 443 502 443 490 432.5 c 128,-1,19
 478 422 478 422 468 417 c 1,20,-1
 392 61 l 1,21,-1
 459 61 l 2,22,23
 509 61 509 61 521 114 c 2,24,-1
 622 590 l 1,25,-1
 691 590 l 1,26,-1
 590 113 l 2,27,28
 566 0 566 0 460 0 c 2,29,-1
 239 0 l 1,30,-1
 252 61 l 1,31,-1
 323 61 l 1,32,-1
 400 424 l 2,33,34
 400 425 400 425 413.5 435 c 128,-1,35
 427 445 427 445 439.5 458.5 c 128,-1,36
 452 472 452 472 452 482 c 256,37,38
 452 492 452 492 444.5 503.5 c 128,-1,39
 437 515 437 515 429.5 522 c 128,-1,40
 422 529 422 529 420 529 c 2,41,-1
 340 492 l 1,42,-1
 279 529 l 1,43,44
 243 514 243 514 223 486 c 128,-1,45
 203 458 203 458 200 443 c 1,46,47
 230 457 230 457 245 457 c 0,48,49
 288 457 288 457 307.5 434 c 128,-1,50
 327 411 327 411 327 379 c 0,0,1
239 407 m 0,51,52
 213 407 213 407 196.5 388.5 c 128,-1,53
 180 370 180 370 180 347 c 0,54,55
 180 310 180 310 218 310 c 0,56,57
 244 310 244 310 260.5 329 c 128,-1,58
 277 348 277 348 277 371 c 0,59,60
 277 407 277 407 239 407 c 0,51,52
EndSplineSet
EndChar

StartChar: uni0E04
Encoding: 3588 3588 131
Width: 613
Flags: W
HStem: 0 21G<123 196.255 432 505.232> 227 50<252.234 331.592> 371 50<263.691 342.561> 532 61<282.039 472.911>
VStem: 101 67<253.183 417.905> 345 51<291.144 368.346> 519 71<321.344 489.691>
DStem2: 123 0 192 0 0.207912 0.978148<14.3459 122.979> 432 0 501 0 0.207912 0.978148<14.3459 435.298>
LayerCount: 3
Fore
SplineSet
101 329 m 0
 101 444 195 593 408 593 c 0
 526 593 590 531 590 442 c 0
 590 428 588 413 585 397 c 2
 501 0 l 1
 432 0 l 1
 516 394 l 2
 518 406 519 417 519 427 c 0
 519 491 473 532 380 532 c 0
 231 532 168 418 168 320 c 0
 168 281 178 255 180 253 c 1
 193 317 l 2
 201 353 239 421 313 421 c 0
 361 421 396 393 396 346 c 0
 396 274 331 227 278 227 c 0
 256 227 242 235 242 235 c 1
 192 0 l 1
 123 0 l 1
 144 98 l 2
 146 106 147 113 147 121 c 0
 147 164 101 239 101 329 c 0
307 371 m 0
 271 371 250 339 250 312 c 0
 250 293 261 277 287 277 c 0
 322 277 345 307 345 335 c 0
 345 355 333 371 307 371 c 0
EndSplineSet
Validated: 1
Layer: 2
SplineSet
101 329 m 0,0,1
 101 374 101 374 119.5 419 c 128,-1,2
 138 464 138 464 174 503.5 c 128,-1,3
 210 543 210 543 271 568 c 128,-1,4
 332 593 332 593 408 593 c 0,5,6
 495 593 495 593 542.5 551.5 c 128,-1,7
 590 510 590 510 590 442 c 0,8,9
 590 424 590 424 585 397 c 2,10,-1
 501 0 l 1,11,-1
 432 0 l 1,12,-1
 516 394 l 2,13,14
 519 412 519 412 519 427 c 0,15,16
 519 476 519 476 483.5 504 c 128,-1,17
 448 532 448 532 380 532 c 0,18,19
 277 532 277 532 222.5 467.5 c 128,-1,20
 168 403 168 403 168 320 c 0,21,22
 168 302 168 302 170.5 286 c 128,-1,23
 173 270 173 270 176 262 c 128,-1,24
 179 254 179 254 180 253 c 2,25,-1
 193 317 l 2,26,27
 201 353 201 353 232.5 387 c 128,-1,28
 264 421 264 421 313 421 c 0,29,30
 350 421 350 421 373 401 c 128,-1,31
 396 381 396 381 396 346 c 0,32,33
 396 295 396 295 358.5 261 c 128,-1,34
 321 227 321 227 278 227 c 0,35,36
 268 227 268 227 259 229 c 128,-1,37
 250 231 250 231 246 233 c 2,38,-1
 242 235 l 1,39,-1
 192 0 l 1,40,-1
 123 0 l 1,41,-1
 144 98 l 2,42,43
 147 110 147 110 147 121 c 0,44,45
 147 137 147 137 124 207.5 c 128,-1,46
 101 278 101 278 101 329 c 0,0,1
307 371 m 0,47,48
 282 371 282 371 266 352.5 c 128,-1,49
 250 334 250 334 250 312 c 0,50,51
 250 277 250 277 287 277 c 0,52,53
 312 277 312 277 328.5 295 c 128,-1,54
 345 313 345 313 345 335 c 0,55,56
 345 371 345 371 307 371 c 0,47,48
EndSplineSet
EndChar

StartChar: uni0E05
Encoding: 3589 3589 132
Width: 591
Flags: W
HStem: 0 21G<101 180 406 479.251> 226 50<272.956 357.872> 377 50<287.28 370.376> 573 20G<258 342.538 429.923 488>
VStem: 79 73<199.33 407.851> 101 72<0 61.5564> 374 51<292.341 373.025> 498 70<382.839 519.51>
DStem2: 406 0 475 0 0.207912 0.978148<14.3459 463.587>
LayerCount: 3
Fore
SplineSet
106 63 m 0xf7
 106 152 79 203 79 287 c 0
 79 471 195 550 321 593 c 1
 377 541 l 1
 463 593 l 1
 513 582 568 542 568 460 c 0
 568 446 567 431 563 414 c 2
 475 0 l 1
 406 0 l 1
 493 409 l 2
 497 426 498 442 498 455 c 0
 498 496 483 521 457 535 c 1
 364 472 l 1
 295 535 l 1
 242 511 152 446 152 312 c 0xfb
 152 257 164 203 165 199 c 1
 165 204 193 427 338 427 c 0
 386 427 425 402 425 350 c 0
 425 309 398 226 292 226 c 0
 255 226 237 248 237 248 c 1
 203 160 187 76 173 0 c 1
 101 0 l 1
 102 14 106 32 106 63 c 0xf7
333 377 m 0
 292 377 269 342 269 315 c 0
 269 294 283 276 312 276 c 0
 350 276 374 309 374 339 c 0
 374 360 361 377 333 377 c 0
EndSplineSet
Validated: 1
Layer: 2
SplineSet
106 63 m 0,0,1
 106 108 106 108 92.5 177 c 128,-1,2
 79 246 79 246 79 287 c 0,3,4
 79 353 79 353 98.5 405.5 c 128,-1,5
 118 458 118 458 153.5 493.5 c 128,-1,6
 189 529 189 529 229 552 c 128,-1,7
 269 575 269 575 321 593 c 1,8,-1
 377 541 l 1,9,-1
 463 593 l 1,10,11
 506 584 506 584 537 550.5 c 128,-1,12
 568 517 568 517 568 460 c 0,13,14
 568 435 568 435 563 414 c 2,15,-1
 475 0 l 1,16,-1
 406 0 l 1,17,-1
 493 409 l 2,18,19
 498 430 498 430 498 455 c 0,20,21
 498 513 498 513 457 535 c 1,22,-1
 364 472 l 1,23,-1
 295 535 l 1,24,25
 272 524 272 524 250 508 c 128,-1,26
 228 492 228 492 204.5 465.5 c 128,-1,27
 181 439 181 439 166.5 399 c 128,-1,28
 152 359 152 359 152 312 c 0,29,30
 152 251 152 251 165 199 c 1,31,32
 165 204 165 204 169 225 c 128,-1,33
 173 246 173 246 184.5 281.5 c 128,-1,34
 196 317 196 317 214 348.5 c 128,-1,35
 232 380 232 380 264.5 403.5 c 128,-1,36
 297 427 297 427 338 427 c 0,37,38
 376 427 376 427 400.5 407 c 128,-1,39
 425 387 425 387 425 350 c 0,40,41
 425 325 425 325 415 299 c 128,-1,42
 405 273 405 273 373 249.5 c 128,-1,43
 341 226 341 226 292 226 c 0,44,45
 276 226 276 226 262 231.5 c 128,-1,46
 248 237 248 237 242.5 242.5 c 2,47,-1
 237 248 l 1,48,49
 202 157 202 157 173 0 c 1,50,-1
 101 0 l 1,51,52
 101 4 101 4 102.5 14.5 c 128,-1,53
 104 25 104 25 105 37 c 128,-1,54
 106 49 106 49 106 63 c 0,0,1
333 377 m 0,55,56
 304 377 304 377 286.5 357.5 c 128,-1,57
 269 338 269 338 269 315 c 0,58,59
 269 298 269 298 280 287 c 128,-1,60
 291 276 291 276 312 276 c 0,61,62
 339 276 339 276 356.5 295.5 c 128,-1,63
 374 315 374 315 374 339 c 0,64,65
 374 356 374 356 363.5 366.5 c 128,-1,66
 353 377 353 377 333 377 c 0,55,56
EndSplineSet
EndChar

StartChar: uni0E06
Encoding: 3590 3590 133
Width: 770
Flags: W
HStem: -3 61<247.009 303.499 532.676 600.703> 190 61<271.772 328> 260 50<162.861 242.937> 406 50<180.609 254.038> 573 20G<204.5 291.435 382.435 452 709.769 783>
VStem: 100 60<312.935 391.317> 184 61<58.7023 162.382> 257 51<323.482 402.945>
DStem2: 286.977 -3 356.72 -3 0.207912 0.978148<58.999 164.792 256.775 461.88> 331 547 320 492 0.892457 0.451132<0 61.9014> 407 234 388 144 0.628337 -0.777941<58.0763 240.389> 587.954 -3 656.954 -3 0.207912 0.978148<60.0182 606.248>
LayerCount: 3
Fore
SplineSet
308 378 m 0
 308 317 250 260 186 260 c 0
 147 260 100 285 100 356 c 0
 100 432 148 541 261 593 c 1
 331 547 l 1
 422 593 l 1
 482 553 505 492 505 492 c 1
 498 460 l 2
 497 457 470 436 445 415 c 1
 407 234 l 1
 512 104 l 2
 530 83 545 58 573 58 c 0
 598 58 610 98 615 122 c 2
 714 590 l 1
 783 590 l 1
 686 134 l 2
 671 65 645 -3 563 -3 c 0
 536 -3 508 -3 488 21 c 2
 388 144 l 1
 375 83 l 2
 365 37 318 -3 270 -3 c 0
 212 -3 184 36 184 86 c 0
 184 141 226 251 341 251 c 1
 378 425 l 2
 379 429 433 457 433 483 c 0
 433 507 402 529 400 529 c 2
 320 492 l 1
 259 529 l 1
 210 508 183 458 180 443 c 1
 195 449 212 456 227 456 c 0
 291 456 308 412 308 378 c 0
218 406 m 0
 182 406 160 375 160 346 c 0
 160 326 171 310 198 310 c 0
 235 310 257 342 257 369 c 0
 257 389 245 406 218 406 c 0
270 58 m 0
 299 58 304 76 308 95 c 2
 328 190 l 1
 291 190 261 177 248 118 c 0
 246 110 245 102 245 95 c 0
 245 74 253 58 270 58 c 0
EndSplineSet
Validated: 1
Layer: 2
SplineSet
308 378 m 0,0,1
 308 332 308 332 271 296 c 128,-1,2
 234 260 234 260 186 260 c 0,3,4
 152 260 152 260 126 283.5 c 128,-1,5
 100 307 100 307 100 356 c 0,6,7
 100 420 100 420 141 488.5 c 128,-1,8
 182 557 182 557 261 593 c 1,9,-1
 331 547 l 1,10,-1
 422 593 l 1,11,12
 449 575 449 575 469.5 550 c 128,-1,13
 490 525 490 525 497.5 508.5 c 2,14,-1
 505 492 l 1,15,-1
 498 460 l 2,16,17
 498 459 498 459 445 415 c 1,18,-1
 407 234 l 1,19,-1
 512 104 l 2,20,21
 514 101 514 101 522 91.5 c 128,-1,22
 530 82 530 82 533.5 78.5 c 128,-1,23
 537 75 537 75 544 69 c 128,-1,24
 551 63 551 63 558 60.5 c 128,-1,25
 565 58 565 58 573 58 c 0,26,27
 602 58 602 58 615 122 c 2,28,-1
 714 590 l 1,29,-1
 783 590 l 1,30,-1
 686 134 l 2,31,32
 672 71 672 71 645.5 34 c 128,-1,33
 619 -3 619 -3 563 -3 c 0,34,35
 508 -3 508 -3 488 21 c 2,36,-1
 388 144 l 1,37,-1
 375 83 l 2,38,39
 367 48 367 48 336.5 22.5 c 128,-1,40
 306 -3 306 -3 270 -3 c 0,41,42
 228 -3 228 -3 206 22 c 128,-1,43
 184 47 184 47 184 86 c 0,44,45
 184 118 184 118 198 153.5 c 128,-1,46
 212 189 212 189 250 220 c 128,-1,47
 288 251 288 251 341 251 c 1,48,-1
 378 425 l 2,49,50
 378 426 378 426 392 435.5 c 128,-1,51
 406 445 406 445 419.5 458.5 c 128,-1,52
 433 472 433 472 433 483 c 256,53,54
 433 494 433 494 425 505.5 c 128,-1,55
 417 517 417 517 409.5 523 c 128,-1,56
 402 529 402 529 400 529 c 2,57,-1
 320 492 l 1,58,-1
 259 529 l 1,59,60
 227 515 227 515 205 487 c 128,-1,61
 183 459 183 459 180 443 c 1,62,63
 212 456 212 456 227 456 c 0,64,65
 270 456 270 456 289 432.5 c 128,-1,66
 308 409 308 409 308 378 c 0,0,1
218 406 m 0,67,68
 192 406 192 406 176 387.5 c 128,-1,69
 160 369 160 369 160 346 c 0,70,71
 160 310 160 310 198 310 c 0,72,73
 224 310 224 310 240.5 328.5 c 128,-1,74
 257 347 257 347 257 369 c 0,75,76
 257 385 257 385 247 395.5 c 128,-1,77
 237 406 237 406 218 406 c 0,67,68
270 58 m 0,78,79
 284 58 284 58 292 64 c 128,-1,80
 300 70 300 70 302.5 76.5 c 128,-1,81
 305 83 305 83 308 95 c 2,82,-1
 328 190 l 1,83,84
 297 190 297 190 277 174.5 c 128,-1,85
 257 159 257 159 248 118 c 0,86,87
 245 106 245 106 245 95 c 0,88,89
 245 58 245 58 270 58 c 0,78,79
EndSplineSet
EndChar

StartChar: uni0E07
Encoding: 3591 3591 134
Width: 496
Flags: W
HStem: -6 61<266.011 329.259> 228 63<99 153.994> 401 50<343.058 403.693> 543 50<352.795 432.234>
VStem: 288 52<454.219 530.407> 435 58<465.405 539.754>
DStem2: 315.981 -6 385.218 -6 0.207912 0.978148<61.2519 423.253>
LayerCount: 3
Fore
SplineSet
288 473 m 0
 288 534 339 593 411 593 c 0
 471 593 493 560 493 519 c 0
 493 510 492 500 490 490 c 2
 412 120 l 2
 402 75 390 34 348 12 c 0
 325 0 304 -6 284 -6 c 0
 256 -6 231 7 214 32 c 0
 186 74 197 164 154 207 c 0
 134 227 114 227 85 228 c 1
 99 291 l 1
 124 291 167 291 199 264 c 0
 267 207 236 55 295 55 c 0
 326 55 336 87 340 107 c 2
 404 408 l 1
 404 408 386 401 364 401 c 0
 323 401 288 426 288 473 c 0
397 543 m 0
 361 543 340 513 340 487 c 0
 340 468 352 451 378 451 c 0
 414 451 435 482 435 508 c 0
 435 527 423 543 397 543 c 0
EndSplineSet
Validated: 1
Layer: 2
SplineSet
288 473 m 0,0,1
 288 520 288 520 323.5 556.5 c 128,-1,2
 359 593 359 593 411 593 c 0,3,4
 493 593 493 593 493 519 c 0,5,6
 493 505 493 505 490 490 c 2,7,-1
 412 120 l 2,8,9
 403 79 403 79 389.5 53 c 128,-1,10
 376 27 376 27 348 12 c 0,11,12
 314 -6 314 -6 284 -6 c 0,13,14
 240 -6 240 -6 214 32 c 0,15,16
 203 49 203 49 190.5 116 c 128,-1,17
 178 183 178 183 154 207 c 0,18,19
 145 216 145 216 133 221 c 128,-1,20
 121 226 121 226 112.5 226.5 c 128,-1,21
 104 227 104 227 85 228 c 1,22,-1
 99 291 l 1,23,24
 167 291 167 291 199 264 c 0,25,26
 222 245 222 245 234.5 207.5 c 128,-1,27
 247 170 247 170 250.5 137.5 c 128,-1,28
 254 105 254 105 264.5 80 c 128,-1,29
 275 55 275 55 295 55 c 0,30,31
 330 55 330 55 340 107 c 2,32,-1
 404 408 l 1,33,34
 386 401 386 401 364 401 c 0,35,36
 332 401 332 401 310 420 c 128,-1,37
 288 439 288 439 288 473 c 0,0,1
397 543 m 0,38,39
 372 543 372 543 356 525.5 c 128,-1,40
 340 508 340 508 340 487 c 0,41,42
 340 472 340 472 350 461.5 c 128,-1,43
 360 451 360 451 378 451 c 0,44,45
 403 451 403 451 419 469 c 128,-1,46
 435 487 435 487 435 508 c 0,47,48
 435 523 435 523 425.5 533 c 128,-1,49
 416 543 416 543 397 543 c 0,38,39
EndSplineSet
EndChar

StartChar: uni0E08
Encoding: 3592 3592 135
Width: 551
Flags: W
HStem: -3 61<317.257 388.166> 212 50<211.135 271.899> 356 50<223.268 299.86> 532 61<250.401 433.276>
VStem: 157 51<265.073 341.307> 242 73<59.8282 180.266> 303 59<276.313 352.848> 468 72<344.414 498.943>
DStem2: 224.445 -3 293.619 -3 0.207912 0.978148<112.958 227.036> 375.194 -3 444.169 -3 0.207912 0.978148<62.3068 456.16>
LayerCount: 3
Fore
SplineSet
157 285 m 0xfd
 157 347 208 406 278 406 c 0
 339 406 362 373 362 332 c 0xfb
 362 322 360 312 358 302 c 2
 317 107 l 2
 316 102 315 98 315 93 c 0xfd
 315 75 324 58 349 58 c 0
 383 58 394 86 399 109 c 2
 465 418 l 2
 467 427 468 436 468 444 c 0
 468 501 422 532 350 532 c 0
 296 532 215 517 163 432 c 1
 110 460 l 1
 171 550 255 593 362 593 c 0xfb
 473 593 540 543 540 462 c 0
 540 450 539 439 536 426 c 2
 465 95 l 2
 453 37 396 -3 330 -3 c 0
 276 -3 242 26 242 70 c 0
 242 76 243 82 244 89 c 2
 272 219 l 1
 272 219 255 212 234 212 c 0
 188 212 157 240 157 285 c 0xfd
266 356 m 0
 232 356 208 325 208 298 c 0
 208 279 220 262 246 262 c 0
 280 262 303 293 303 320 c 0
 303 339 292 356 266 356 c 0
EndSplineSet
Validated: 1
Layer: 2
SplineSet
157 285 m 0,0,1
 157 333 157 333 192 369.5 c 128,-1,2
 227 406 227 406 278 406 c 0,3,4
 321 406 321 406 341.5 385.5 c 128,-1,5
 362 365 362 365 362 332 c 0,6,7
 362 322 362 322 358 302 c 2,8,-1
 317 107 l 2,9,10
 315 97 315 97 315 93 c 0,11,12
 315 58 315 58 349 58 c 0,13,14
 388 58 388 58 399 109 c 2,15,-1
 465 418 l 2,16,17
 468 432 468 432 468 444 c 0,18,19
 468 486 468 486 436.5 509 c 128,-1,20
 405 532 405 532 350 532 c 0,21,22
 224 532 224 532 163 432 c 1,23,-1
 110 460 l 1,24,25
 200 593 200 593 362 593 c 0,26,27
 445 593 445 593 492.5 558 c 128,-1,28
 540 523 540 523 540 462 c 0,29,30
 540 443 540 443 536 426 c 2,31,-1
 465 95 l 2,32,33
 456 52 456 52 418 24.5 c 128,-1,34
 380 -3 380 -3 330 -3 c 0,35,36
 290 -3 290 -3 266 17 c 128,-1,37
 242 37 242 37 242 70 c 0,38,39
 242 75 242 75 244 89 c 2,40,-1
 272 219 l 1,41,42
 255 212 255 212 234 212 c 0,43,44
 199 212 199 212 178 231.5 c 128,-1,45
 157 251 157 251 157 285 c 0,0,1
266 356 m 0,46,47
 242 356 242 356 225 337.5 c 128,-1,48
 208 319 208 319 208 298 c 0,49,50
 208 283 208 283 218 272.5 c 128,-1,51
 228 262 228 262 246 262 c 0,52,53
 270 262 270 262 286.5 280 c 128,-1,54
 303 298 303 298 303 320 c 0,55,56
 303 335 303 335 293.5 345.5 c 128,-1,57
 284 356 284 356 266 356 c 0,46,47
EndSplineSet
EndChar

StartChar: uni0E09
Encoding: 3593 3593 136
Width: 596
Flags: W
HStem: -3 61<220.5 292.876 490.742 544.796> 182 58<523 552.428> 199 50<134.593 195.681> 341 50<144.412 224.009> 532 61<267.189 456.377>
VStem: 80 52<252.133 328.738> 168 71<58.6825 118.75> 227 58<262.07 338.097> 423 67<59.273 109.647> 494 73<344.766 495.758> 559 63<70.1502 178.353>
DStem2: 151.232 -3 220.469 -3 0.207912 0.978148<96.8683 212.762> 407.358 -3 471.169 -3 0.207912 0.978148<95.6641 158.4 261.733 451.99>
AnchorPoint: "AboveBase" 618 654 basechar 0
LayerCount: 3
Fore
SplineSet
622 147 m 0xdca0
 622 101 596 -3 496 -3 c 0
 447 -3 423 24 423 61 c 0
 423 67 424 73 425 80 c 2
 440 152 l 1
 440 152 424 149 369 84 c 0
 324 30 282 -3 237 -3 c 0
 204 -3 168 11 168 61 c 0xdea0
 168 70 169 79 171 90 c 2
 196 205 l 1
 196 205 178 199 157 199 c 0
 112 199 80 225 80 271 c 0
 80 338 136 391 203 391 c 0
 263 391 285 357 285 316 c 0xbd80
 285 307 284 297 282 288 c 2
 243 103 l 2
 241 95 239 85 239 77 c 0
 239 66 242 58 254 58 c 0
 305 58 376 205 451 228 c 1
 492 418 l 2
 494 426 494 434 494 441 c 0
 494 498 444 532 372 532 c 0
 292 532 228 505 179 437 c 1
 133 466 l 1
 172 519 248 593 380 593 c 0
 493 593 567 545 567 462 c 0xbec0
 567 451 565 440 563 428 c 2
 523 240 l 1
 561 240 622 221 622 147 c 0xdca0
512 58 m 0
 539 58 559 94 559 131 c 0
 559 155 552 182 521 182 c 0
 515 182 511 179 510 179 c 2
 492 95 l 2
 490 88 490 82 490 77 c 0
 490 62 497 58 512 58 c 0
189 341 m 0
 152 341 132 310 132 284 c 0
 132 265 143 249 170 249 c 0
 203 249 227 278 227 305 c 0xbd80
 227 324 214 341 189 341 c 0
EndSplineSet
Validated: 1
Layer: 2
SplineSet
622 147 m 0,0,1
 622 127 622 127 616 103.5 c 128,-1,2
 610 80 610 80 597 55 c 128,-1,3
 584 30 584 30 557.5 13.5 c 128,-1,4
 531 -3 531 -3 496 -3 c 0,5,6
 460 -3 460 -3 441.5 14.5 c 128,-1,7
 423 32 423 32 423 61 c 0,8,9
 423 66 423 66 425 80 c 2,10,-1
 440 152 l 1,11,12
 424 149 424 149 369 84 c 0,13,14
 296 -3 296 -3 237 -3 c 0,15,16
 168 -3 168 -3 168 61 c 0,17,18
 168 74 168 74 171 90 c 2,19,-1
 196 205 l 1,20,21
 178 199 178 199 157 199 c 0,22,23
 122 199 122 199 101 218 c 128,-1,24
 80 237 80 237 80 271 c 0,25,26
 80 321 80 321 116 356 c 128,-1,27
 152 391 152 391 203 391 c 0,28,29
 245 391 245 391 265 370 c 128,-1,30
 285 349 285 349 285 316 c 0,31,32
 285 302 285 302 282 288 c 2,33,-1
 243 103 l 2,34,35
 239 87 239 87 239 77 c 0,36,37
 239 58 239 58 254 58 c 0,38,39
 271 58 271 58 296 81.5 c 128,-1,40
 321 105 321 105 343.5 134 c 128,-1,41
 366 163 366 163 396 191.5 c 128,-1,42
 426 220 426 220 451 228 c 1,43,-1
 492 418 l 2,44,45
 494 426 494 426 494 441 c 0,46,47
 494 483 494 483 460.5 507.5 c 128,-1,48
 427 532 427 532 372 532 c 0,49,50
 247 532 247 532 179 437 c 1,51,-1
 133 466 l 1,52,53
 226 593 226 593 380 593 c 0,54,55
 466 593 466 593 516.5 558.5 c 128,-1,56
 567 524 567 524 567 462 c 0,57,58
 567 452 567 452 563 428 c 2,59,-1
 523 240 l 1,60,61
 560 240 560 240 591 218.5 c 128,-1,62
 622 197 622 197 622 147 c 0,0,1
512 58 m 0,63,64
 532 58 532 58 545.5 80 c 128,-1,65
 559 102 559 102 559 131 c 0,66,67
 559 182 559 182 521 182 c 0,68,69
 517 182 517 182 511.601697969 179.610187816 c 2,70,-1
 510 179 l 1,71,-1
 492 95 l 2,72,73
 490 88 490 88 490 77 c 0,74,75
 490 58 490 58 512 58 c 0,63,64
189 341 m 0,76,77
 163 341 163 341 147.5 323.5 c 128,-1,78
 132 306 132 306 132 284 c 0,79,80
 132 249 132 249 170 249 c 0,81,82
 194 249 194 249 210.5 266.5 c 128,-1,83
 227 284 227 284 227 305 c 0,84,85
 227 320 227 320 217 330.5 c 128,-1,86
 207 341 207 341 189 341 c 0,76,77
EndSplineSet
EndChar

StartChar: uni0E0A
Encoding: 3594 3594 137
Width: 602
Flags: W
HStem: 0 61<160 234 303 434.302> 352 50<146.304 226.163> 532 61<257.91 346.845>
VStem: 93 51<405.203 482.523> 240 51<416.788 492.816> 504 71<335.807 431.843>
DStem2: 221.034 0 290.034 0 0.207912 0.978148<76.7087 385.524> 424.556 0 493.981 0 0.207912 0.978148<65.5097 393.577>
LayerCount: 3
Fore
SplineSet
182 402 m 0
 217 402 240 433 240 461 c 0
 240 480 228 496 202 496 c 0
 167 496 144 466 144 438 c 0
 144 418 156 402 182 402 c 0
93 424 m 0
 93 492 153 593 283 593 c 0
 375 593 415 552 428 511 c 1
 441 513 509 538 561 564 c 0
 618 592 665 636 665 638 c 2
 676 569 l 1
 673 567 645 543 597 524 c 0
 559 509 505 486 500 486 c 1
 508 486 575 459 575 391 c 0
 575 383 574 376 572 367 c 2
 518 113 l 2
 499 23 449 0 389 0 c 2
 147 0 l 1
 160 61 l 1
 234 61 l 1
 281 280 l 2
 303 383 364 393 364 469 c 0
 364 519 319 532 284 532 c 0
 274 532 264 531 256 529 c 1
 275 520 291 504 291 473 c 0
 291 434 267 352 169 352 c 0
 116 352 93 383 93 424 c 0
433 459 m 2
 430 448 l 2
 412 383 364 348 352 293 c 2
 303 61 l 1
 387 61 l 2
 417 61 441 77 449 115 c 2
 499 349 l 2
 502 363 504 375 504 386 c 0
 504 441 434 459 433 459 c 2
EndSplineSet
Validated: 1
Layer: 2
SplineSet
182 402 m 0,0,1
 207 402 207 402 223.5 420.5 c 128,-1,2
 240 439 240 439 240 461 c 0,3,4
 240 476 240 476 230.5 486 c 128,-1,5
 221 496 221 496 202 496 c 0,6,7
 177 496 177 496 160.5 478 c 128,-1,8
 144 460 144 460 144 438 c 0,9,10
 144 402 144 402 182 402 c 0,0,1
93 424 m 0,11,12
 93 484 93 484 143.5 538.5 c 128,-1,13
 194 593 194 593 283 593 c 0,14,15
 402 593 402 593 428 511 c 1,16,17
 439 513 439 513 482 529.5 c 128,-1,18
 525 546 525 546 561 564 c 0,19,20
 587 577 587 577 612.5 595 c 128,-1,21
 638 613 638 613 651.5 625 c 128,-1,22
 665 637 665 637 665 638 c 2,23,-1
 676 569 l 1,24,-1
 672.5 566.5 l 2,25,26
 669 564 669 564 665 561 c 128,-1,27
 661 558 661 558 653.5 553 c 128,-1,28
 646 548 646 548 638 543.5 c 128,-1,29
 630 539 630 539 619 533.5 c 128,-1,30
 608 528 608 528 597 524 c 0,31,32
 501 486 501 486 500 486 c 1,33,34
 507 486 507 486 523 477.5 c 128,-1,35
 539 469 539 469 557 445.5 c 128,-1,36
 575 422 575 422 575 391 c 0,37,38
 575 380 575 380 572 367 c 2,39,-1
 518 113 l 2,40,41
 505 50 505 50 472 25 c 128,-1,42
 439 0 439 0 389 0 c 2,43,-1
 147 0 l 1,44,-1
 160 61 l 1,45,-1
 234 61 l 1,46,-1
 281 280 l 2,47,48
 290 323 290 323 311.5 355 c 128,-1,49
 333 387 333 387 348.5 412 c 128,-1,50
 364 437 364 437 364 469 c 0,51,52
 364 503 364 503 340 517.5 c 128,-1,53
 316 532 316 532 284 532 c 0,54,55
 268 532 268 532 256 529 c 1,56,57
 291 512 291 512 291 473 c 0,58,59
 291 456 291 456 285.5 437 c 128,-1,60
 280 418 280 418 267.5 398 c 128,-1,61
 255 378 255 378 229 365 c 128,-1,62
 203 352 203 352 169 352 c 0,63,64
 131 352 131 352 112 371.5 c 128,-1,65
 93 391 93 391 93 424 c 0,11,12
433 459 m 1,66,-1
 430 448 l 2,67,68
 421 415 421 415 389.5 367.5 c 128,-1,69
 358 320 358 320 352 293 c 2,70,-1
 303 61 l 1,71,-1
 387 61 l 2,72,73
 438 61 438 61 449 115 c 2,74,-1
 499 349 l 2,75,76
 504 372 504 372 504 386 c 0,77,78
 504 410 504 410 485.5 428.5 c 128,-1,79
 467 447 467 447 452 453 c 128,-1,80
 437 459 437 459 433 459 c 1,66,-1
EndSplineSet
EndChar

StartChar: uni0E0B
Encoding: 3595 3595 138
Width: 648
Flags: W
HStem: 0 61<215 289 358 489.254> 276 50<148.44 227.95> 420 50<188.395 239.596> 581 20G<252.5 290 370.5 428>
VStem: 90 56<329.497 404.816> 242 51<340.252 417.062> 561 71<282.328 435.849>
DStem2: 276.034 0 345.034 0 0.207912 0.978148<76.7087 435.632> 480.556 0 549.981 0 0.207912 0.978148<65.2615 394.764>
LayerCount: 3
Fore
SplineSet
183 326 m 0
 219 326 242 358 242 385 c 0
 242 404 230 420 205 420 c 0
 168 420 146 388 146 361 c 0
 146 342 157 326 183 326 c 0
444 61 m 2
 484 61 499 87 505 115 c 2
 556 353 l 2
 559 365 561 376 561 387 c 0
 561 448 490 462 489 463 c 1
 433 412 l 1
 358 61 l 1
 444 61 l 2
293 399 m 0
 293 348 257 276 175 276 c 0
 140 276 90 286 90 357 c 0
 90 370 92 386 96 403 c 0
 126 543 251 601 254 601 c 1
 326 561 l 1
 415 601 l 1
 441 591 471 562 486 510 c 1
 660 568 720 635 720 638 c 2
 731 569 l 1
 728 567 701 543 652 524 c 0
 614 509 561 490 556 490 c 1
 561 490 632 466 632 396 c 0
 632 388 631 380 629 371 c 2
 574 113 l 2
 561 50 527 0 445 0 c 2
 202 0 l 1
 215 61 l 1
 289 61 l 1
 367 428 l 1
 423 475 l 1
 421 500 404 526 387 532 c 1
 314 500 l 1
 256 532 l 1
 218 524 189 473 188 467 c 1
 188 467 200 470 216 470 c 0
 278 470 293 433 293 399 c 0
EndSplineSet
Validated: 1
Layer: 2
SplineSet
183 326 m 0,0,1
 209 326 209 326 225.5 344.5 c 128,-1,2
 242 363 242 363 242 385 c 0,3,4
 242 400 242 400 232.5 410 c 128,-1,5
 223 420 223 420 205 420 c 0,6,7
 179 420 179 420 162.5 401.5 c 128,-1,8
 146 383 146 383 146 361 c 0,9,10
 146 326 146 326 183 326 c 0,0,1
444 61 m 2,11,12
 493 61 493 61 505 115 c 2,13,-1
 556 353 l 2,14,15
 561 373 561 373 561 387 c 0,16,17
 561 399 561 399 557 410 c 128,-1,18
 553 421 553 421 547 428.5 c 128,-1,19
 541 436 541 436 533 442 c 128,-1,20
 525 448 525 448 517.5 452 c 128,-1,21
 510 456 510 456 503.5 458.5 c 128,-1,22
 497 461 497 461 493 462 c 2,23,-1
 489 463 l 1,24,-1
 433 412 l 1,25,-1
 358 61 l 1,26,-1
 444 61 l 2,11,12
293 399 m 0,27,28
 293 354 293 354 262 315 c 128,-1,29
 231 276 231 276 175 276 c 0,30,31
 90 276 90 276 90 357 c 0,32,33
 90 378 90 378 96 403 c 0,34,35
 104 442 104 442 123.5 477 c 128,-1,36
 143 512 143 512 164 533.5 c 128,-1,37
 185 555 185 555 206 571 c 128,-1,38
 227 587 227 587 239.5 594 c 128,-1,39
 252 601 252 601 254 601 c 2,40,-1
 326 561 l 1,41,-1
 415 601 l 1,42,43
 465 582 465 582 486 510 c 1,44,45
 564 536 564 536 622 568 c 128,-1,46
 680 600 680 600 700 617 c 128,-1,47
 720 634 720 634 720 638 c 2,48,-1
 731 569 l 1,49,-1
 727.5 566.5 l 2,50,51
 724 564 724 564 720 561 c 128,-1,52
 716 558 716 558 709 553 c 128,-1,53
 702 548 702 548 694 543.5 c 128,-1,54
 686 539 686 539 675 533.5 c 128,-1,55
 664 528 664 528 652 524 c 0,56,57
 566 490 566 490 556 490 c 1,58,59
 558 490 558 490 565.5 487 c 128,-1,60
 573 484 573 484 584.5 477 c 128,-1,61
 596 470 596 470 606.5 459.5 c 128,-1,62
 617 449 617 449 624.5 432.5 c 128,-1,63
 632 416 632 416 632 396 c 0,64,65
 632 384 632 384 629 371 c 2,66,-1
 574 113 l 2,67,68
 551 0 551 0 445 0 c 2,69,-1
 202 0 l 1,70,-1
 215 61 l 1,71,-1
 289 61 l 1,72,-1
 367 428 l 1,73,-1
 423 475 l 1,74,75
 422 494 422 494 411 510.5 c 128,-1,76
 400 527 400 527 387 532 c 1,77,-1
 314 500 l 1,78,-1
 256 532 l 1,79,80
 232 527 232 527 211 502 c 128,-1,81
 190 477 190 477 188 467 c 1,82,83
 200 470 200 470 216 470 c 0,84,85
 293 470 293 470 293 399 c 0,27,28
EndSplineSet
EndChar

StartChar: uni0E0C
Encoding: 3596 3596 139
Width: 792
Flags: W
HStem: -3 61<358.458 401.219 583.222 620.239> -3 50<150.522 229.718> 139 50<179.558 240.206> 178 61<378.309 423> 532 61<255.241 455.97>
VStem: 89 59<49.6616 125.173> 243 52<60.0772 136.591> 304 54<58.3569 156.804> 482 71<365.633 506.938>
DStem2: 70.1067 -3 139.464 -3 0.207912 0.978148<204.576 405.769> 384.783 -3 453.696 -3 0.207912 0.978148<59.3301 169.723 244.471 476.732> 603.954 -3 673.595 -3 0.207912 0.978148<61.1201 606.248>
LayerCount: 3
Fore
SplineSet
295 119 m 0x2f80
 295 56 242 -3 172 -3 c 0x6f80
 111 -3 89 31 89 72 c 0
 89 81 90 91 92 100 c 2
 139 322 l 2
 153 390 220 426 220 426 c 1
 190 462 119 484 98 487 c 1
 124 513 230 593 371 593 c 0
 492 593 553 548 553 478 c 0
 553 469 551 459 549 449 c 2
 502 228 l 1
 502 228 534 224 556 167 c 0
 570 130 580 58 602 58 c 0
 616 58 623 87 626 101 c 2
 730 590 l 1
 799 590 l 1
 694 93 l 2
 685 51 659 -3 603 -3 c 0
 571 -3 550 14 535 52 c 0
 513 107 486 149 486 149 c 1
 469 69 l 2
 462 36 423 -3 378 -3 c 0
 328 -3 304 34 304 82 c 0
 304 93 305 104 307 115 c 0
 329 217 395 233 436 239 c 1x9f80
 480 446 l 2
 481 452 482 458 482 464 c 0
 482 509 438 532 356 532 c 0
 272 532 236 498 236 498 c 1
 254 498 333 423 333 423 c 1
 322 423 225 400 205 308 c 2
 179 183 l 1
 190 187 202 189 214 189 c 0
 253 189 295 170 295 119 c 0x2f80
361 112 m 0
 359 104 358 96 358 88 c 0
 358 71 363 58 379 58 c 0
 388 58 400 69 402 78 c 2
 423 178 l 1x9f80
 402 178 375 176 361 112 c 0
205 139 m 0x6f80
 169 139 148 108 148 82 c 0
 148 63 159 47 185 47 c 0
 222 47 243 78 243 104 c 0
 243 123 232 139 205 139 c 0x6f80
EndSplineSet
Validated: 1
Layer: 2
SplineSet
295 119 m 0,0,1
 295 71 295 71 259 34 c 128,-1,2
 223 -3 223 -3 172 -3 c 0,3,4
 129 -3 129 -3 109 17.5 c 128,-1,5
 89 38 89 38 89 72 c 0,6,7
 89 86 89 86 92 100 c 2,8,-1
 139 322 l 2,9,10
 145 352 145 352 165.5 378 c 128,-1,11
 186 404 186 404 203 415 c 2,12,-1
 220 426 l 1,13,14
 200 450 200 450 160.5 467 c 128,-1,15
 121 484 121 484 98 487 c 1,16,17
 131 520 131 520 205.5 556.5 c 128,-1,18
 280 593 280 593 371 593 c 0,19,20
 460 593 460 593 506.5 562.5 c 128,-1,21
 553 532 553 532 553 478 c 0,22,23
 553 469 553 469 549 449 c 2,24,-1
 502 228 l 2,25,26
 506 228 506 228 511.5 225.5 c 128,-1,27
 517 223 517 223 531.5 207.5 c 128,-1,28
 546 192 546 192 556 167 c 0,29,30
 560 156 560 156 568.5 124.5 c 128,-1,31
 577 93 577 93 584.5 75.5 c 128,-1,32
 592 58 592 58 602 58 c 0,33,34
 617 58 617 58 626 101 c 2,35,-1
 730 590 l 1,36,-1
 799 590 l 1,37,-1
 694 93 l 2,38,39
 686 54 686 54 663.5 25.5 c 128,-1,40
 641 -3 641 -3 603 -3 c 0,41,42
 557 -3 557 -3 535 52 c 0,43,44
 525 76 525 76 513 100.5 c 128,-1,45
 501 125 501 125 493.5 137 c 2,46,-1
 486 149 l 1,47,-1
 469 69 l 2,48,49
 463 43 463 43 436.5 20 c 128,-1,50
 410 -3 410 -3 378 -3 c 0,51,52
 342 -3 342 -3 323 20.5 c 128,-1,53
 304 44 304 44 304 82 c 0,54,55
 304 98.5 304 98.5 307 115 c 0,56,57
 330 224 330 224 436 239 c 1,58,-1
 480 446 l 2,59,60
 482 458 482 458 482 464 c 0,61,62
 482 532 482 532 356 532 c 0,63,64
 319 532 319 532 289 523.5 c 128,-1,65
 259 515 259 515 247.5 506.5 c 2,66,-1
 236 498 l 1,67,68
 244 498 244 498 268 479 c 128,-1,69
 292 460 292 460 312.5 441.5 c 2,70,-1
 333 423 l 1,71,72
 327 423 327 423 311 417.5 c 128,-1,73
 295 412 295 412 273 400.5 c 128,-1,74
 251 389 251 389 231.5 364.5 c 128,-1,75
 212 340 212 340 205 308 c 2,76,-1
 179 183 l 1,77,78
 196 189 196 189 214 189 c 0,79,80
 247 189 247 189 271 171.5 c 128,-1,81
 295 154 295 154 295 119 c 0,0,1
361 112 m 0,82,83
 358 100 358 100 358 88 c 0,84,85
 358 58 358 58 379 58 c 0,86,87
 386 58 386 58 393 64.5 c 128,-1,88
 400 71 400 71 402 78 c 2,89,-1
 423 178 l 1,90,91
 409 178 409 178 400 175.5 c 128,-1,92
 391 173 391 173 379 157.5 c 128,-1,93
 367 142 367 142 361 112 c 0,82,83
205 139 m 0,94,95
 180 139 180 139 164 121 c 128,-1,96
 148 103 148 103 148 82 c 0,97,98
 148 47 148 47 185 47 c 0,99,100
 211 47 211 47 227 65 c 128,-1,101
 243 83 243 83 243 104 c 0,102,103
 243 139 243 139 205 139 c 0,94,95
EndSplineSet
EndChar

StartChar: uni0E0D
Encoding: 3597 3597 140
Width: 800
Flags: W
HStem: -278 61<422.994 519.302> -104 47<351.624 425.226> -3 50<163.616 241.915> 0 61<366 408 477 640.483> 138 50<191.521 252.258> 532 61<264.167 468.991>
VStem: 101 59<49.9034 125.034> 255 52<60.4162 135.206> 288 52<-187.981 -115.419> 427 51<-178.653 -105.777> 492 70<362.172 509.006> 598 69<-130.981 -55>
DStem2: 23.6536 -278 93.224 -278 0.207912 0.978148<484.741 686.781> 335.943 -278 404.943 -278 0.207912 0.978148<360.919 758.934> 568.229 -278 636.48 -278 0.207912 0.978148<346.812 887.24>
LayerCount: 3
Fore
SplineSet
307 119 m 0xdf70
 307 59 257 -3 183 -3 c 0xef70
 123 -3 101 31 101 72 c 0
 101 81 102 90 104 100 c 2
 151 322 l 2
 165 390 232 426 232 426 c 1
 203 460 136 483 110 487 c 1
 136 513 248 593 400 593 c 0
 513 593 562 541 562 477 c 0
 562 468 561 458 559 448 c 2
 477 61 l 1
 603 61 l 2
 623 61 643 72 649 102 c 2
 752 590 l 1
 821 590 l 1
 713 82 l 2
 698 12 640 0 615 0 c 2
 353 0 l 1
 366 61 l 1
 408 61 l 1
 490 445 l 2
 491 452 492 459 492 465 c 0
 492 506 459 532 363 532 c 0
 284 532 235 501 235 501 c 1
 263 501 344 423 344 423 c 1
 331 423 237 400 217 308 c 2
 191 182 l 1
 191 182 207 188 229 188 c 0
 258 188 307 173 307 119 c 0xdf70
217 138 m 0
 182 138 160 109 160 83 c 0
 160 64 172 47 198 47 c 0
 232 47 255 76 255 103 c 0
 255 121 243 138 217 138 c 0
478 -127 m 0
 478 -182 436 -212 420 -212 c 1
 421 -212 431 -217 449 -217 c 0
 524 -217 582 -156 598 -66 c 2
 600 -55 l 1
 669 -55 l 1
 667 -66 l 2
 645 -189 544 -278 430 -278 c 0
 355 -278 288 -249 288 -178 c 0xcef0
 288 -123 326 -58 401 -57 c 0
 451 -57 478 -88 478 -127 c 0
374 -190 m 0
 407 -190 427 -160 427 -136 c 0
 427 -119 417 -104 393 -104 c 0
 362 -104 340 -132 340 -158 c 0
 340 -175 351 -190 374 -190 c 0
EndSplineSet
Validated: 1
Layer: 2
SplineSet
307 119 m 0,0,1
 307 72 307 72 271.5 34.5 c 128,-1,2
 236 -3 236 -3 183 -3 c 0,3,4
 141 -3 141 -3 121 18 c 128,-1,5
 101 39 101 39 101 72 c 0,6,7
 101 85 101 85 104 100 c 2,8,-1
 151 322 l 2,9,10
 157 352 157 352 177.5 378 c 128,-1,11
 198 404 198 404 215 415 c 2,12,-1
 232 426 l 1,13,14
 213 449 213 449 174 466 c 128,-1,15
 135 483 135 483 110 487 c 1,16,17
 143 520 143 520 222 556.5 c 128,-1,18
 301 593 301 593 400 593 c 0,19,20
 481 593 481 593 521.5 560.5 c 128,-1,21
 562 528 562 528 562 477 c 0,22,23
 562 463 562 463 559 448 c 2,24,-1
 477 61 l 1,25,-1
 603 61 l 2,26,27
 641 61 641 61 649 102 c 2,28,-1
 752 590 l 1,29,-1
 821 590 l 1,30,-1
 713 82 l 2,31,32
 703 36 703 36 673 18 c 128,-1,33
 643 0 643 0 615 0 c 2,34,-1
 353 0 l 1,35,-1
 366 61 l 1,36,-1
 408 61 l 1,37,-1
 490 445 l 2,38,39
 492 459 492 459 492 465 c 0,40,41
 492 532 492 532 363 532 c 0,42,43
 328 532 328 532 296 524 c 128,-1,44
 264 516 264 516 249.5 508.5 c 2,45,-1
 235 501 l 1,46,47
 247 501 247 501 274.5 481.5 c 128,-1,48
 302 462 302 462 323 442.5 c 2,49,-1
 344 423 l 1,50,51
 333 423 333 423 309.5 414.5 c 128,-1,52
 286 406 286 406 256 377.5 c 128,-1,53
 226 349 226 349 217 308 c 2,54,-1
 191 182 l 1,55,56
 207 188 207 188 229 188 c 0,57,58
 257 188 257 188 282 171.5 c 128,-1,59
 307 155 307 155 307 119 c 0,0,1
217 138 m 0,60,61
 192 138 192 138 176 121 c 128,-1,62
 160 104 160 104 160 83 c 0,63,64
 160 68 160 68 170 57.5 c 128,-1,65
 180 47 180 47 198 47 c 0,66,67
 222 47 222 47 238.5 64.5 c 128,-1,68
 255 82 255 82 255 103 c 0,69,70
 255 118 255 118 245 128 c 128,-1,71
 235 138 235 138 217 138 c 0,60,61
478 -127 m 0,72,73
 478 -164 478 -164 457 -188 c 128,-1,74
 436 -212 436 -212 420 -212 c 1,75,-1
 421.5 -212.5 l 2,76,77
 423 -213 423 -213 425.5 -213.5 c 128,-1,78
 428 -214 428 -214 431 -215 c 128,-1,79
 434 -216 434 -216 439 -216.5 c 128,-1,80
 444 -217 444 -217 449 -217 c 0,81,82
 505 -217 505 -217 545.5 -175.5 c 128,-1,83
 586 -134 586 -134 598 -66 c 2,84,-1
 600 -55 l 1,85,-1
 669 -55 l 1,86,-1
 667 -66 l 2,87,88
 651 -158 651 -158 583.5 -218 c 128,-1,89
 516 -278 516 -278 430 -278 c 0,90,91
 369 -278 369 -278 328.5 -253 c 128,-1,92
 288 -228 288 -228 288 -178 c 0,93,94
 288 -132 288 -132 318 -95 c 128,-1,95
 348 -58 348 -58 401 -57 c 0,96,97
 437 -57 437 -57 457.5 -77 c 128,-1,98
 478 -97 478 -97 478 -127 c 0,72,73
374 -190 m 0,99,100
 397 -190 397 -190 412 -173 c 128,-1,101
 427 -156 427 -156 427 -136 c 0,102,103
 427 -104 427 -104 393 -104 c 0,104,105
 371 -104 371 -104 355.5 -121 c 128,-1,106
 340 -138 340 -138 340 -158 c 0,107,108
 340 -172 340 -172 349 -181 c 128,-1,109
 358 -190 358 -190 374 -190 c 0,99,100
EndSplineSet
Substitution2: "'ccmp' Pali-Sanskrit Descender Removal" uni0E0D.descless
Substitution2: "Thai Descender Removal Single Substitution" uni0E0D.descless
EndChar

StartChar: uni0E0E
Encoding: 3598 3598 141
Width: 668
Flags: W
HStem: -303 61<82.0498 173.253> -163 61<92.157 212.75> -28 20G<315 387> -3 50<105.554 186.24> 139 50<116.644 196.231> 532 61<353.092 552.771>
VStem: 9 72<-239.711 -176.24> 51 52<50.2067 126.134> 318 69<-64.3968 -8> 579 71<386.281 506.47>
DStem2: 98.7217 -317 167.364 -317 0.207912 0.978148<511.17 729.082> 360 -225 338 -317 0.764803 0.644264<0 118.279> 419.141 -317 489.054 -317 0.207912 0.978148<172.999 783.949>
AnchorPoint: "BelowBase" 488 -311 basechar 0
LayerCount: 3
Fore
SplineSet
51 71 m 0xfdc0
 51 133 103 189 169 189 c 0
 190 189 205 183 205 183 c 1
 234 322 l 2
 249 394 312 425 313 426 c 1
 286 463 211 484 193 487 c 1
 217 513 338 593 474 593 c 0
 592 593 650 542 650 461 c 0
 650 447 648 433 645 418 c 2
 522 -162 l 1
 338 -317 l 1
 317 -280 286 -236 261 -218 c 1
 236 -242 172 -303 96 -303 c 0
 62 -303 9 -288 9 -234 c 0xfec0
 9 -175 66 -102 166 -102 c 0
 220 -102 255 -130 257 -132 c 1
 285 -98 312 -36 318 -8 c 1
 387 -8 l 1
 373 -76 301 -164 301 -164 c 1
 360 -225 l 1
 454 -153 l 1
 575 415 l 2
 578 428 579 440 579 451 c 0
 579 508 541 532 468 532 c 0
 376 532 331 499 328 498 c 1
 349 498 426 423 426 423 c 1
 420 423 321 405 300 308 c 2
 256 100 l 2
 245 48 206 -3 132 -3 c 0
 86 -3 51 24 51 71 c 0xfdc0
161 139 m 0
 125 139 103 109 103 83 c 0xfdc0
 103 64 115 47 141 47 c 0
 177 47 199 77 199 103 c 0
 199 122 187 139 161 139 c 0
145 -163 m 0
 99 -163 81 -193 81 -214 c 0xfec0
 81 -231 94 -242 115 -242 c 0
 163 -242 212 -191 213 -179 c 0
 213 -178 180 -163 145 -163 c 0
EndSplineSet
Validated: 1
Layer: 2
SplineSet
51 71 m 0,0,1
 51 118 51 118 85.5 153.5 c 128,-1,2
 120 189 120 189 169 189 c 0,3,4
 178 189 178 189 187 187.5 c 128,-1,5
 196 186 196 186 200.5 184.5 c 2,6,-1
 205 183 l 1,7,-1
 234 322 l 2,8,9
 236 334 236 334 240.5 344.5 c 128,-1,10
 245 355 245 355 250 364 c 128,-1,11
 255 373 255 373 261 381 c 128,-1,12
 267 389 267 389 273 395 c 128,-1,13
 279 401 279 401 284.5 406 c 128,-1,14
 290 411 290 411 295.5 414.5 c 128,-1,15
 301 418 301 418 304.5 420.5 c 128,-1,16
 308 423 308 423 310.5 424.5 c 2,17,-1
 313 426 l 1,18,19
 296 450 296 450 256.5 466.5 c 128,-1,20
 217 483 217 483 193 487 c 1,21,22
 221 517 221 517 303 555 c 128,-1,23
 385 593 385 593 474 593 c 0,24,25
 561 593 561 593 605.5 558 c 128,-1,26
 650 523 650 523 650 461 c 0,27,28
 650 443 650 443 645 418 c 2,29,-1
 522 -162 l 1,30,-1
 338 -317 l 1,31,32
 296 -243 296 -243 261 -218 c 1,33,34
 172 -303 172 -303 96 -303 c 0,35,36
 63 -303 63 -303 36 -286.5 c 128,-1,37
 9 -270 9 -270 9 -234 c 0,38,39
 9 -185 9 -185 52.5 -143.5 c 128,-1,40
 96 -102 96 -102 166 -102 c 0,41,42
 190 -102 190 -102 213 -109.5 c 128,-1,43
 236 -117 236 -117 245 -123 c 128,-1,44
 254 -129 254 -129 257 -132 c 1,45,46
 277 -108 277 -108 295 -69.5 c 128,-1,47
 313 -31 313 -31 318 -8 c 1,48,-1
 387 -8 l 1,49,50
 381 -38 381 -38 359.5 -77 c 128,-1,51
 338 -116 338 -116 319.5 -140 c 2,52,-1
 301 -164 l 1,53,-1
 360 -225 l 1,54,-1
 454 -153 l 1,55,-1
 575 415 l 2,56,57
 579 432 579 432 579 451 c 0,58,59
 579 532 579 532 468 532 c 0,60,61
 449 532 449 532 431.5 530 c 128,-1,62
 414 528 414 528 400.5 525 c 128,-1,63
 387 522 387 522 375.5 518.5 c 128,-1,64
 364 515 364 515 355.5 511.5 c 128,-1,65
 347 508 347 508 341 505 c 128,-1,66
 335 502 335 502 331.5 500 c 2,67,-1
 328 498 l 1,68,69
 337 498 337 498 361.5 479 c 128,-1,70
 386 460 386 460 406 441.5 c 2,71,-1
 426 423 l 2,72,73
 423 423 423 423 412.5 420.5 c 128,-1,74
 402 418 402 418 385 410 c 128,-1,75
 368 402 368 402 351.5 390.5 c 128,-1,76
 335 379 335 379 320.5 357 c 128,-1,77
 306 335 306 335 300 308 c 2,78,-1
 256 100 l 2,79,80
 247 57 247 57 215.5 27 c 128,-1,81
 184 -3 184 -3 132 -3 c 0,82,83
 97 -3 97 -3 74 17 c 128,-1,84
 51 37 51 37 51 71 c 0,0,1
161 139 m 0,85,86
 135 139 135 139 119 121.5 c 128,-1,87
 103 104 103 104 103 83 c 0,88,89
 103 68 103 68 113 57.5 c 128,-1,90
 123 47 123 47 141 47 c 0,91,92
 167 47 167 47 183 64.5 c 128,-1,93
 199 82 199 82 199 103 c 0,94,95
 199 118 199 118 189 128.5 c 128,-1,96
 179 139 179 139 161 139 c 0,85,86
145 -163 m 0,97,98
 114 -163 114 -163 97.5 -179 c 128,-1,99
 81 -195 81 -195 81 -214 c 0,100,101
 81 -242 81 -242 115 -242 c 0,102,103
 147 -242 147 -242 179.5 -216.5 c 128,-1,104
 212 -191 212 -191 213 -179 c 0,105,106
 213 -178 213 -178 203.5 -174.5 c 128,-1,107
 194 -171 194 -171 177.5 -167 c 128,-1,108
 161 -163 161 -163 145 -163 c 0,97,98
EndSplineSet
EndChar

StartChar: uni0E0F
Encoding: 3599 3599 142
Width: 663
Flags: W
HStem: -312 61<71.1957 130.919> -159 61<84.938 164.142> -29 20G<258 323> -3 50<106.668 185.855> 139 50<117.347 196.851> 532 61<354.208 558.114>
VStem: 13 57<-250.391 -173.572> 53 51<50.6739 125.312> 582 71<411.076 508.972>
DStem2: 100.785 -312 169.427 -312 0.207912 0.978148<506.059 721.46> 419.479 -312 488.479 -312 0.207912 0.978148<114.881 791.533>
AnchorPoint: "BelowBase" 484 -311 basechar 0
LayerCount: 3
Fore
SplineSet
53 72 m 0xfd80
 53 140 108 189 170 189 c 0
 192 189 206 183 206 183 c 1
 235 322 l 2
 250 391 315 426 315 426 c 1
 284 465 211 484 194 487 c 1
 219 513 339 593 475 593 c 0
 594 593 653 550 653 477 c 0
 653 466 652 455 649 443 c 2
 521 -159 l 1
 495 -210 443 -274 371 -310 c 1
 323 -216 l 1
 233 -311 l 1
 196 -238 l 1
 165 -281 121 -312 82 -312 c 0
 28 -312 13 -275 13 -240 c 0xfe80
 13 -166 74 -98 129 -98 c 0
 172 -98 202 -133 204 -138 c 1
 212 -126 254 -48 262 -9 c 1
 323 -9 l 1
 319 -29 275 -137 238 -178 c 1
 251 -213 l 1
 346 -106 l 1
 398 -222 l 1
 423 -209 446 -176 452 -159 c 1
 580 440 l 2
 582 448 582 456 582 463 c 0
 582 508 546 532 466 532 c 0
 380 532 330 498 330 498 c 1
 351 498 427 423 427 423 c 1
 415 423 321 400 301 308 c 2
 257 100 l 2
 246 48 207 -3 134 -3 c 0
 86 -3 53 25 53 72 c 0xfd80
162 139 m 0
 126 139 104 109 104 83 c 0xfd80
 104 64 116 47 142 47 c 0
 178 47 199 78 199 104 c 0
 199 123 188 139 162 139 c 0
121 -159 m 0
 90 -159 70 -198 70 -227 c 0xfe80
 70 -244 80 -251 94 -251 c 0
 125 -251 168 -184 168 -184 c 1
 168 -184 144 -159 121 -159 c 0
EndSplineSet
Validated: 1
Layer: 2
SplineSet
53 72 m 0,0,1
 53 122 53 122 87.5 155.5 c 128,-1,2
 122 189 122 189 170 189 c 0,3,4
 180 189 180 189 189 187.5 c 128,-1,5
 198 186 198 186 202 184.5 c 2,6,-1
 206 183 l 1,7,-1
 235 322 l 2,8,9
 242 353 242 353 262 379 c 128,-1,10
 282 405 282 405 298.5 415.5 c 2,11,-1
 315 426 l 1,12,13
 295 451 295 451 257 467 c 128,-1,14
 219 483 219 483 194 487 c 1,15,16
 223 517 223 517 304.5 555 c 128,-1,17
 386 593 386 593 475 593 c 0,18,19
 563 593 563 593 608 563 c 128,-1,20
 653 533 653 533 653 477 c 0,21,22
 653 459 653 459 649 443 c 2,23,-1
 521 -159 l 1,24,25
 499 -202 499 -202 460 -243.5 c 128,-1,26
 421 -285 421 -285 371 -310 c 1,27,-1
 323 -216 l 1,28,-1
 233 -311 l 1,29,-1
 196 -238 l 1,30,31
 172 -271 172 -271 141.5 -291.5 c 128,-1,32
 111 -312 111 -312 82 -312 c 0,33,34
 13 -312 13 -312 13 -240 c 0,35,36
 13 -186 13 -186 50 -142 c 128,-1,37
 87 -98 87 -98 129 -98 c 0,38,39
 148 -98 148 -98 166.5 -107.5 c 128,-1,40
 185 -117 185 -117 193.5 -125.5 c 128,-1,41
 202 -134 202 -134 204 -138 c 1,42,43
 214 -123 214 -123 235.5 -78.5 c 128,-1,44
 257 -34 257 -34 262 -9 c 1,45,-1
 323 -9 l 1,46,47
 319 -30 319 -30 290.5 -90.5 c 128,-1,48
 262 -151 262 -151 238 -178 c 1,49,-1
 251 -213 l 1,50,-1
 346 -106 l 1,51,-1
 398 -222 l 1,52,53
 415 -213 415 -213 431 -193.5 c 128,-1,54
 447 -174 447 -174 452 -159 c 2,55,-1
 580 440 l 2,56,57
 582 448 582 448 582 463 c 0,58,59
 582 532 582 532 466 532 c 0,60,61
 428 532 428 532 394 523.5 c 128,-1,62
 360 515 360 515 345 506.5 c 2,63,-1
 330 498 l 1,64,65
 339 498 339 498 363.5 479 c 128,-1,66
 388 460 388 460 407.5 441.5 c 2,67,-1
 427 423 l 1,68,69
 416 423 416 423 393 414.5 c 128,-1,70
 370 406 370 406 340 377.5 c 128,-1,71
 310 349 310 349 301 308 c 2,72,-1
 257 100 l 2,73,74
 248 57 248 57 216.5 27 c 128,-1,75
 185 -3 185 -3 134 -3 c 0,76,77
 97 -3 97 -3 75 17 c 128,-1,78
 53 37 53 37 53 72 c 0,0,1
162 139 m 0,79,80
 136 139 136 139 120 121.5 c 128,-1,81
 104 104 104 104 104 83 c 0,82,83
 104 68 104 68 114 57.5 c 128,-1,84
 124 47 124 47 142 47 c 0,85,86
 167 47 167 47 183 65 c 128,-1,87
 199 83 199 83 199 104 c 0,88,89
 199 139 199 139 162 139 c 0,79,80
121 -159 m 0,90,91
 99 -159 99 -159 84.5 -181 c 128,-1,92
 70 -203 70 -203 70 -227 c 256,93,94
 70 -251 70 -251 94 -251 c 0,95,96
 108 -251 108 -251 126.5 -234.5 c 128,-1,97
 145 -218 145 -218 156.5 -201 c 2,98,-1
 168 -184 l 1,99,100
 144 -159 144 -159 121 -159 c 0,90,91
EndSplineSet
EndChar

StartChar: uni0E10
Encoding: 3600 3600 143
Width: 530
Flags: W
HStem: -290 52<6.1834 57.2386> -180 43<296.739 335.653> -174 52<10.3448 67.7063> -76 42<299.684 356.523> -3 61<300.356 371.166> 157 50<184.402 242.875> 299 50<194.768 274.016> 504 61<424.746 592.378> 519 60<535.312 591> 532 61<270.172 477.227>
VStem: -46 52<-237.917 -175.922> 128 54<209.664 285.181> 225 73<59.8282 163.352> 249 47<-136.876 -79.6311> 277 56<220.342 295.918> 357 47<-156.233 -76.9637> 428 72<236.938 388.252>
DStem2: 272 -230 258 -296 0.862483 0.506085<0 67.0813> 295.915 -296 364.89 -296 0.207912 0.978148<361.853 645.376>
LayerCount: 3
Fore
SplineSet
128 230 m 0x9e7980
 128 296 184 349 250 349 c 0
 310 349 333 316 333 275 c 0x9e7380
 333 266 332 257 330 247 c 2
 300 107 l 2
 299 102 298 98 298 93 c 0
 298 75 307 58 332 58 c 0
 366 58 377 86 382 109 c 2
 426 317 l 2
 427 324 428 330 428 336 c 0
 428 383 387 413 327 430 c 0
 246 453 178 459 138 459 c 1
 183 520 247 593 371 593 c 0x9e7980
 430 593 483 565 534 565 c 0x9f3980
 562 565 589 579 591 579 c 1
 596 519 l 1x9eb980
 594 519 561 504 533 504 c 0x9f3980
 464 504 430 532 360 532 c 0
 290 532 256 501 256 501 c 1
 256 501 389 493 463 433 c 0
 486 414 500 387 500 353 c 0
 500 344 499 334 497 324 c 2
 448 95 l 2
 436 37 379 -3 313 -3 c 0
 260 -3 225 26 225 70 c 0
 225 76 226 83 227 89 c 2
 243 164 l 1
 243 164 226 157 204 157 c 0
 161 157 128 184 128 230 c 0x9e7980
240 299 m 0
 203 299 182 268 182 242 c 0
 182 223 193 207 220 207 c 0
 256 207 277 238 277 264 c 0
 277 283 266 299 240 299 c 0
249 -122 m 0xbe3580
 249 -73 292 -34 340 -34 c 0
 364 -34 404 -42 404 -96 c 0
 404 -105 403 -115 400 -127 c 2
 379 -225 l 1
 258 -296 l 1
 200 -250 l 1
 111 -296 l 1
 106 -274 101 -264 92 -247 c 1
 81 -259 47 -290 20 -290 c 0
 -24 -290 -46 -260 -46 -225 c 0
 -46 -165 10 -122 52 -122 c 0xbe3580
 76 -122 99 -132 108 -143 c 1
 126 -113 141 -74 152 -38 c 1
 210 -38 l 1
 198 -84 168 -152 138 -190 c 1
 148 -221 l 1
 215 -189 l 1
 272 -230 l 1
 331 -198 l 1
 336 -176 l 1
 326 -179 318 -180 309 -180 c 0xde3580
 272 -180 249 -155 249 -122 c 0xbe3580
320 -137 m 0xde3580
 338 -137 357 -123 357 -99 c 0
 357 -81 343 -76 333 -76 c 0xde3380
 316 -76 296 -89 296 -113 c 0
 296 -127 305 -137 320 -137 c 0xde3580
34 -174 m 0xbe3180
 17 -174 6 -199 6 -215 c 0
 6 -227 11 -238 24 -238 c 0
 54 -238 67 -197 68 -195 c 1
 67 -190 51 -174 34 -174 c 0xbe3180
EndSplineSet
Validated: 1
Layer: 2
SplineSet
128 230 m 0,0,1
 128 279 128 279 164 314 c 128,-1,2
 200 349 200 349 250 349 c 0,3,4
 293 349 293 349 313 328.5 c 128,-1,5
 333 308 333 308 333 275 c 0,6,7
 333 262 333 262 330 247 c 2,8,-1
 300 107 l 2,9,10
 298 97 298 97 298 93 c 0,11,12
 298 58 298 58 332 58 c 0,13,14
 371 58 371 58 382 109 c 2,15,-1
 426 317 l 2,16,17
 428 331 428 331 428 336 c 0,18,19
 428 401 428 401 327 430 c 0,20,21
 225 459 225 459 138 459 c 1,22,23
 166 497 166 497 191.5 522.5 c 128,-1,24
 217 548 217 548 265 570.5 c 128,-1,25
 313 593 313 593 371 593 c 0,26,27
 402 593 402 593 456 579 c 128,-1,28
 510 565 510 565 534 565 c 0,29,30
 546 565 546 565 560 568.5 c 128,-1,31
 574 572 574 572 582.5 575.5 c 2,32,-1
 591 579 l 1,33,-1
 596 519 l 1,34,-1
 586 515.5 l 2,35,36
 576 512 576 512 560.5 508 c 128,-1,37
 545 504 545 504 533 504 c 0,38,39
 499 504 499 504 447 518 c 128,-1,40
 395 532 395 532 360 532 c 0,41,42
 329 532 329 532 303 524 c 128,-1,43
 277 516 277 516 266.5 508.5 c 2,44,-1
 256 501 l 1,45,46
 271 500 271 500 295 497 c 128,-1,47
 319 494 319 494 374.5 477 c 128,-1,48
 430 460 430 460 463 433 c 0,49,50
 500 402 500 402 500 353 c 0,51,52
 500 339 500 339 497 324 c 2,53,-1
 448 95 l 2,54,55
 439 52 439 52 401 24.5 c 128,-1,56
 363 -3 363 -3 313 -3 c 0,57,58
 273 -3 273 -3 249 17 c 128,-1,59
 225 37 225 37 225 70 c 0,60,61
 225 77 225 77 227 89 c 2,62,-1
 243 164 l 1,63,64
 226 157 226 157 204 157 c 0,65,66
 171 157 171 157 149.5 176.5 c 128,-1,67
 128 196 128 196 128 230 c 0,0,1
240 299 m 0,68,69
 214 299 214 299 198 281 c 128,-1,70
 182 263 182 263 182 242 c 0,71,72
 182 207 182 207 220 207 c 0,73,74
 245 207 245 207 261 225 c 128,-1,75
 277 243 277 243 277 264 c 0,76,77
 277 299 277 299 240 299 c 0,68,69
249 -122 m 0,78,79
 249 -86 249 -86 276.5 -60 c 128,-1,80
 304 -34 304 -34 340 -34 c 0,81,82
 404 -34 404 -34 404 -96 c 0,83,84
 404 -111 404 -111 400 -127 c 2,85,-1
 379 -225 l 1,86,-1
 258 -296 l 1,87,-1
 200 -250 l 1,88,-1
 111 -296 l 1,89,90
 106 -273 106 -273 92 -247 c 1,91,92
 53 -290 53 -290 20 -290 c 0,93,94
 -12 -290 -12 -290 -29 -271.5 c 128,-1,95
 -46 -253 -46 -253 -46 -225 c 0,96,97
 -46 -183 -46 -183 -14 -152.5 c 128,-1,98
 18 -122 18 -122 52 -122 c 0,99,100
 91 -122 91 -122 108 -143 c 1,101,102
 132 -103 132 -103 152 -38 c 1,103,-1
 210 -38 l 1,104,105
 186 -129 186 -129 138 -190 c 1,106,-1
 148 -221 l 1,107,-1
 215 -189 l 1,108,-1
 272 -230 l 1,109,-1
 331 -198 l 1,110,-1
 336 -176 l 1,111,112
 323 -180 323 -180 309 -180 c 0,113,114
 282 -180 282 -180 265.5 -163.5 c 128,-1,115
 249 -147 249 -147 249 -122 c 0,78,79
320 -137 m 0,116,117
 334 -137 334 -137 345.5 -126.5 c 128,-1,118
 357 -116 357 -116 357 -99 c 0,119,120
 357 -76 357 -76 333 -76 c 0,121,122
 319 -76 319 -76 307.5 -86 c 128,-1,123
 296 -96 296 -96 296 -113 c 0,124,125
 296 -137 296 -137 320 -137 c 0,116,117
34 -174 m 0,126,127
 22 -174 22 -174 14 -187.5 c 128,-1,128
 6 -201 6 -201 6 -215 c 0,129,130
 6 -238 6 -238 24 -238 c 0,131,132
 29 -238 29 -238 34.5 -236 c 128,-1,133
 40 -234 40 -234 43.5 -231.5 c 128,-1,134
 47 -229 47 -229 50.5 -225 c 128,-1,135
 54 -221 54 -221 56.5 -217 c 128,-1,136
 59 -213 59 -213 61.5 -209 c 128,-1,137
 64 -205 64 -205 65 -202.5 c 128,-1,138
 66 -200 66 -200 67 -197.5 c 2,139,-1
 68 -195 l 2,140,141
 67 -190 67 -190 56 -182 c 128,-1,142
 45 -174 45 -174 34 -174 c 0,126,127
EndSplineSet
Substitution2: "'ccmp' Pali-Sanskrit Descender Removal" uni0E10.descless
Substitution2: "Thai Descender Removal Single Substitution" uni0E10.descless
EndChar

StartChar: uni0E11
Encoding: 3601 3601 144
Width: 815
Flags: W
HStem: 0 21G<296 372.5 633 706.238> 264 46<168.655 248.904> 406 46<186.632 260.008> 532 61<685.162 737.931>
VStem: 106 60<312.657 392.238> 263 46<323.352 402.646> 439 65<450.227 492> 739 72<416.664 531.067>
DStem2: 296 0 369 0 0.207912 0.978148<15.1776 162.763 254.606 460.676> 337 547 326 492 0.892457 0.451132<0 61.9014> 633 0 702 0 0.207912 0.978148<14.3459 514.842>
LayerCount: 3
Fore
SplineSet
309 382 m 0
 309 317 257 264 194 264 c 0
 149 264 106 291 106 358 c 0
 106 434 155 540 267 593 c 1
 337 547 l 1
 428 593 l 1
 488 553 511 492 511 492 c 1
 504 460 l 2
 504 458 472 429 453 415 c 1
 415 235 l 1
 439 282 494 359 545 426 c 0
 592 489 672 593 734 593 c 0
 770 593 811 567 811 522 c 0
 811 517 810 511 809 505 c 2
 702 0 l 1
 633 0 l 1
 738 492 l 2
 739 496 739 500 739 504 c 0
 739 520 730 532 715 532 c 0
 700 532 680 504 670 492 c 0
 659 480 423 174 392 84 c 0
 381 52 376 32 369 0 c 1
 296 0 l 1
 386 425 l 2
 387 430 439 457 439 483 c 0
 439 507 408 529 406 529 c 2
 326 492 l 1
 265 529 l 1
 246 521 195 486 186 443 c 1
 202 449 218 452 232 452 c 0
 293 452 309 415 309 382 c 0
224 406 m 0
 188 406 166 375 166 346 c 0
 166 326 177 310 204 310 c 0
 241 310 263 342 263 369 c 0
 263 389 251 406 224 406 c 0
EndSplineSet
Validated: 1
Layer: 2
SplineSet
309 382 m 0,0,1
 309 333 309 333 275 298.5 c 128,-1,2
 241 264 241 264 194 264 c 0,3,4
 157 264 157 264 131.5 287.5 c 128,-1,5
 106 311 106 311 106 358 c 0,6,7
 106 422 106 422 147.5 489 c 128,-1,8
 189 556 189 556 267 593 c 1,9,-1
 337 547 l 1,10,-1
 428 593 l 1,11,12
 455 575 455 575 475.5 550 c 128,-1,13
 496 525 496 525 503.5 508.5 c 2,14,-1
 511 492 l 1,15,-1
 504 460 l 2,16,17
 504 458 504 458 485 441.5 c 128,-1,18
 466 425 466 425 453 415 c 1,19,-1
 415 235 l 1,20,21
 446 296 446 296 545 426 c 0,22,23
 569 458 569 458 587 480 c 128,-1,24
 605 502 605 502 632.5 531.5 c 128,-1,25
 660 561 660 561 686 577 c 128,-1,26
 712 593 712 593 734 593 c 0,27,28
 763 593 763 593 787 573.5 c 128,-1,29
 811 554 811 554 811 522 c 0,30,31
 811 517 811 517 809 505 c 2,32,-1
 702 0 l 1,33,-1
 633 0 l 1,34,-1
 738 492 l 2,35,36
 739 496 739 496 739 504 c 0,37,38
 739 532 739 532 715 532 c 0,39,40
 703 532 703 532 670 492 c 0,41,42
 643 463 643 463 527.5 302 c 128,-1,43
 412 141 412 141 392 84 c 0,44,45
 379 47 379 47 369 0 c 1,46,-1
 296 0 l 1,47,-1
 386 425 l 2,48,49
 386 426 386 426 399.5 435.5 c 128,-1,50
 413 445 413 445 426 458.5 c 128,-1,51
 439 472 439 472 439 483 c 256,52,53
 439 494 439 494 431 505.5 c 128,-1,54
 423 517 423 517 415.5 523 c 128,-1,55
 408 529 408 529 406 529 c 2,56,-1
 326 492 l 1,57,-1
 265 529 l 1,58,59
 245 520 245 520 218.5 495.5 c 128,-1,60
 192 471 192 471 186 443 c 1,61,62
 210 452 210 452 232 452 c 0,63,64
 274 452 274 452 291.5 431.5 c 128,-1,65
 309 411 309 411 309 382 c 0,0,1
224 406 m 0,66,67
 198 406 198 406 182 387.5 c 128,-1,68
 166 369 166 369 166 346 c 0,69,70
 166 310 166 310 204 310 c 0,71,72
 230 310 230 310 246.5 328.5 c 128,-1,73
 263 347 263 347 263 369 c 0,74,75
 263 385 263 385 253 395.5 c 128,-1,76
 243 406 243 406 224 406 c 0,66,67
EndSplineSet
EndChar

StartChar: uni0E12
Encoding: 3602 3602 145
Width: 820
Flags: W
HStem: -3 61<398.851 444.929 610.233 649.104> 236 45<254.834 280> 379 45<265.427 347.354> 575 15G<275 349 455 499.5 753.783 827>
VStem: 90 70<191.819 411.529> 135 73<0 37.9285> 201 50<285.768 365.029> 341 56<58.0945 164.973> 351 50<293.131 374.811> 522 69<397.78 513.611>
DStem2: 393 535 378 468 0.845079 0.534642<0 78.5184> 427.064 -3 494.058 -3 0.207912 0.978148<58.3696 171.413 252.768 467.362> 631.954 -3 701.807 -3 0.207912 0.978148<59.7885 606.248>
LayerCount: 3
Fore
SplineSet
137 39 m 0xf4c0
 137 167 90 213 90 303 c 0
 90 319 91 336 95 355 c 0
 126 503 223 556 327 595 c 1
 393 535 l 1
 486 595 l 1
 513 583 591 539 591 457 c 0
 591 448 590 438 588 428 c 2
 546 230 l 2
 546 228 567 216 579 182 c 0
 603 113 605 58 632 58 c 0
 643 58 647 66 653 92 c 2
 758 590 l 1
 827 590 l 1
 722 92 l 2
 711 38 689 -3 627 -3 c 0
 580 -3 564 48 551 89 c 0
 535 140 533 132 527 151 c 1
 510 72 l 2
 504 46 478 -3 416 -3 c 0
 368 -3 341 36 341 88 c 0
 341 179 409 247 481 251 c 1
 519 428 l 2
 521 438 522 447 522 455 c 0
 522 502 493 525 476 530 c 1
 378 468 l 1
 305 530 l 1
 183 477 160 371 160 307 c 0
 160 274 167 240 176 205 c 0
 189 155 194 113 195 110 c 1
 201 125 260 209 280 236 c 1
 271 236 l 2
 231 236 201 262 201 305 c 0xfb40
 201 360 249 424 320 424 c 0
 373 424 401 389 401 349 c 0
 401 271 292 189 234 72 c 0
 218 38 217 32 208 0 c 1
 135 0 l 1
 135 2 137 16 137 39 c 0xf4c0
293 281 m 0
 331 281 351 312 351 340 c 0xf2c0
 351 363 336 379 311 379 c 0
 278 379 251 353 251 320 c 0
 251 297 268 281 293 281 c 0
470 199 m 1
 414 184 397 133 397 97 c 0xf140
 397 75 404 58 420 58 c 0
 437 58 443 68 445 79 c 2
 470 199 l 1
EndSplineSet
Validated: 1
Layer: 2
SplineSet
137 39 m 0,0,1
 137 108 137 108 113.5 185.5 c 128,-1,2
 90 263 90 263 90 303 c 0,3,4
 90 331 90 331 95 355 c 0,5,6
 106 408 106 408 128.5 448.5 c 128,-1,7
 151 489 151 489 184.5 516.5 c 128,-1,8
 218 544 218 544 250 561 c 128,-1,9
 282 578 282 578 327 595 c 1,10,-1
 393 535 l 1,11,-1
 486 595 l 1,12,13
 500 589 500 589 514.5 579.5 c 128,-1,14
 529 570 529 570 548 553 c 128,-1,15
 567 536 567 536 579 511 c 128,-1,16
 591 486 591 486 591 457 c 0,17,18
 591 443 591 443 588 428 c 2,19,-1
 546 230 l 1,20,-1
 551.5 225 l 2,21,22
 557 220 557 220 565.5 208.5 c 128,-1,23
 574 197 574 197 579 182 c 0,24,25
 585 165 585 165 591 143.5 c 128,-1,26
 597 122 597 122 600.5 108.5 c 128,-1,27
 604 95 604 95 608.5 82.5 c 128,-1,28
 613 70 613 70 618.5 64 c 128,-1,29
 624 58 624 58 632 58 c 256,30,31
 640 58 640 58 644 65 c 128,-1,32
 648 72 648 72 653 92 c 2,33,-1
 758 590 l 1,34,-1
 827 590 l 1,35,-1
 722 92 l 2,36,37
 713 46 713 46 691.5 21.5 c 128,-1,38
 670 -3 670 -3 627 -3 c 0,39,40
 610 -3 610 -3 597.5 4.5 c 128,-1,41
 585 12 585 12 576 28.5 c 128,-1,42
 567 45 567 45 562.5 56.5 c 128,-1,43
 558 68 558 68 551 89 c 0,44,45
 542 119 542 119 535.5 132.5 c 128,-1,46
 529 146 529 146 527 151 c 2,47,-1
 510 72 l 2,48,49
 504 45 504 45 480.5 21 c 128,-1,50
 457 -3 457 -3 416 -3 c 0,51,52
 381 -3 381 -3 361 22.5 c 128,-1,53
 341 48 341 48 341 88 c 0,54,55
 341 154 341 154 383 201 c 128,-1,56
 425 248 425 248 481 251 c 1,57,-1
 519 428 l 2,58,59
 522 443 522 443 522 455 c 0,60,61
 522 487 522 487 507 506 c 128,-1,62
 492 525 492 525 476 530 c 1,63,-1
 378 468 l 1,64,-1
 305 530 l 1,65,66
 248 505 248 505 213.5 462 c 128,-1,67
 179 419 179 419 169.5 382.5 c 128,-1,68
 160 346 160 346 160 307 c 0,69,70
 160 267 160 267 176 205 c 0,71,72
 182 183 182 183 186.5 160 c 128,-1,73
 191 137 191 137 193 124 c 128,-1,74
 195 111 195 111 195 110 c 1,75,76
 205 134 205 134 280 236 c 1,77,-1
 271 236 l 2,78,79
 240 236 240 236 220.5 254.5 c 128,-1,80
 201 273 201 273 201 305 c 0,81,82
 201 349 201 349 235 386.5 c 128,-1,83
 269 424 269 424 320 424 c 0,84,85
 358 424 358 424 379.5 402.5 c 128,-1,86
 401 381 401 381 401 349 c 0,87,88
 401 315 401 315 373 273 c 128,-1,89
 345 231 345 231 301 174.5 c 128,-1,90
 257 118 257 118 234 72 c 0,91,92
 220 42 220 42 208 0 c 1,93,-1
 135 0 l 1,94,-1
 135.5 5 l 2,95,96
 136 10 136 10 136.5 19.5 c 128,-1,97
 137 29 137 29 137 39 c 0,0,1
293 281 m 0,98,99
 320 281 320 281 335.5 299 c 128,-1,100
 351 317 351 317 351 340 c 0,101,102
 351 358 351 358 340.5 368.5 c 128,-1,103
 330 379 330 379 311 379 c 0,104,105
 286 379 286 379 268.5 362 c 128,-1,106
 251 345 251 345 251 320 c 0,107,108
 251 303 251 303 262.5 292 c 128,-1,109
 274 281 274 281 293 281 c 0,98,99
470 199 m 1,110,111
 432 189 432 189 414.5 159.5 c 128,-1,112
 397 130 397 130 397 97 c 0,113,114
 397 58 397 58 420 58 c 0,115,116
 441 58 441 58 445 79 c 2,117,-1
 470 199 l 1,110,111
EndSplineSet
EndChar

StartChar: uni0E13
Encoding: 3603 3603 146
Width: 818
Flags: W
HStem: -3 61<713.423 771.717> -3 50<165.188 245.037> 139 50<194.306 255.11> 195 61<748 784.344> 532 61<273.447 477.454>
VStem: 104 59<49.6616 125.173> 258 52<60.5632 135.715> 501 71<359.008 508.539> 644 69<58.1789 176.125> 791 60<75.9127 188.269>
DStem2: 85.1067 -3 154.464 -3 0.207912 0.978148<204.576 405.686> 404.362 -3 472.918 -3 0.207912 0.978148<134.89 475.633> 627.082 -3 693.169 -3 0.207912 0.978148<104.078 189.257 278.48 605.598>
AnchorPoint: "AboveBase" 841 659 basechar 0
LayerCount: 3
Fore
SplineSet
310 119 m 0xbfc0
 310 59 260 -3 186 -3 c 0x7fc0
 126 -3 104 31 104 72 c 0
 104 81 105 90 107 100 c 2
 154 322 l 2
 168 389 235 426 235 426 c 1
 206 460 139 483 113 487 c 1
 139 513 258 593 394 593 c 0
 517 593 572 547 572 478 c 0
 572 468 571 457 569 446 c 2
 498 115 l 1
 500 118 543 169 590 202 c 0
 634 233 675 250 678 250 c 1
 750 590 l 1
 819 590 l 1
 748 256 l 1
 796 256 851 236 851 162 c 0
 851 87 804 -3 716 -3 c 1
 662 -2 644 29 644 63 c 0
 644 71 644 78 646 86 c 2
 667 182 l 1
 540 111 479 0 472 0 c 2
 405 0 l 1
 499 443 l 2
 500 450 501 457 501 463 c 0
 501 505 467 532 384 532 c 0
 298 532 250 498 250 498 c 1
 269 498 348 423 348 423 c 1
 335 423 240 400 220 308 c 2
 194 183 l 1
 194 183 210 189 232 189 c 0
 261 189 310 173 310 119 c 0xbfc0
737 58 m 0xbfc0
 774 58 791 110 791 146 c 0
 791 193 757 195 735 195 c 1
 714 95 l 2
 713 91 713 88 713 85 c 0
 713 68 723 58 737 58 c 0xbfc0
220 139 m 0
 184 139 163 108 163 82 c 0
 163 63 174 47 200 47 c 0x7fc0
 236 47 258 77 258 103 c 0
 258 122 246 139 220 139 c 0
EndSplineSet
Validated: 1
Layer: 2
SplineSet
310 119 m 0,0,1
 310 72 310 72 274.5 34.5 c 128,-1,2
 239 -3 239 -3 186 -3 c 0,3,4
 144 -3 144 -3 124 18 c 128,-1,5
 104 39 104 39 104 72 c 0,6,7
 104 85 104 85 107 100 c 2,8,-1
 154 322 l 2,9,10
 160 352 160 352 180.5 378 c 128,-1,11
 201 404 201 404 218 415 c 2,12,-1
 235 426 l 1,13,14
 216 449 216 449 177 466 c 128,-1,15
 138 483 138 483 113 487 c 1,16,17
 144 518 144 518 224.5 555.5 c 128,-1,18
 305 593 305 593 394 593 c 256,19,20
 483 593 483 593 527.5 562.5 c 128,-1,21
 572 532 572 532 572 478 c 0,22,23
 572 462 572 462 569 446 c 2,24,-1
 498 115 l 2,25,26
 500 118 500 118 511.5 131 c 128,-1,27
 523 144 523 144 546 165.5 c 128,-1,28
 569 187 569 187 590 202 c 0,29,30
 610 216 610 216 631 228 c 128,-1,31
 652 240 652 240 664 245 c 128,-1,32
 676 250 676 250 678 250 c 2,33,-1
 750 590 l 1,34,-1
 819 590 l 1,35,-1
 748 256 l 1,36,37
 791 256 791 256 821 234.5 c 128,-1,38
 851 213 851 213 851 162 c 0,39,40
 851 100 851 100 814.5 48.5 c 128,-1,41
 778 -3 778 -3 716 -3 c 0,42,43
 678 -2 678 -2 661 16.5 c 128,-1,44
 644 35 644 35 644 63 c 0,45,46
 644 78 644 78 646 86 c 2,47,-1
 667 182 l 1,48,49
 611 151 611 151 564 105 c 128,-1,50
 517 59 517 59 495 29.5 c 128,-1,51
 473 0 473 0 472 0 c 2,52,-1
 405 0 l 1,53,-1
 499 443 l 2,54,55
 501 457 501 457 501 463 c 0,56,57
 501 532 501 532 384 532 c 0,58,59
 346 532 346 532 312.5 523.5 c 128,-1,60
 279 515 279 515 264.5 506.5 c 2,61,-1
 250 498 l 1,62,63
 258 498 258 498 282.5 479 c 128,-1,64
 307 460 307 460 327.5 441.5 c 2,65,-1
 348 423 l 1,66,67
 341 423 341 423 325 417.5 c 128,-1,68
 309 412 309 412 287 400.5 c 128,-1,69
 265 389 265 389 246 364.5 c 128,-1,70
 227 340 227 340 220 308 c 2,71,-1
 194 183 l 1,72,73
 210 189 210 189 232 189 c 0,74,75
 260 189 260 189 285 172 c 128,-1,76
 310 155 310 155 310 119 c 0,0,1
737 58 m 0,77,78
 762 58 762 58 776.5 86 c 128,-1,79
 791 114 791 114 791 146 c 0,80,81
 791 195 791 195 735 195 c 1,82,-1
 714 95 l 2,83,84
 713 91 713 91 713 85 c 0,85,86
 713 58 713 58 737 58 c 0,77,78
220 139 m 0,87,88
 195 139 195 139 179 121 c 128,-1,89
 163 103 163 103 163 82 c 0,90,91
 163 47 163 47 200 47 c 0,92,93
 226 47 226 47 242 64.5 c 128,-1,94
 258 82 258 82 258 103 c 0,95,96
 258 118 258 118 248 128.5 c 128,-1,97
 238 139 238 139 220 139 c 0,87,88
EndSplineSet
EndChar

StartChar: uni0E14
Encoding: 3604 3604 147
Width: 614
Flags: W
HStem: 0 21G<152 217.5 433 506.234> 381 50<292.258 376.695> 532 61<297.75 477.107>
VStem: 109 67<203.959 406.884> 225 51<284.265 365.001> 380 51<295.508 377.385> 522 71<379.385 489.764>
DStem2: 433 0 502 0 0.207912 0.978148<14.3459 439.718>
LayerCount: 3
Fore
SplineSet
109 307 m 0
 109 485 270 593 397 593 c 0
 526 593 593 529 593 446 c 0
 593 435 592 423 589 411 c 2
 502 0 l 1
 433 0 l 1
 519 405 l 2
 521 414 522 423 522 431 c 0
 522 492 471 532 387 532 c 0
 252 531 176 416 176 307 c 0
 176 277 183 249 194 216 c 0
 212 160 216 123 219 123 c 0
 222 123 263 185 302 230 c 1
 266 232 225 261 225 310 c 0
 225 364 276 431 349 431 c 0
 397 431 431 399 431 353 c 0
 431 312 403 268 368 225 c 2
 256 87 l 2
 234 61 223 34 212 0 c 1
 152 0 l 1
 159 31 165 37 165 62 c 0
 165 126 109 203 109 307 c 0
339 381 m 0
 301 381 276 349 276 319 c 0
 276 298 289 280 318 280 c 0
 358 280 380 314 380 343 c 0
 380 363 368 381 339 381 c 0
EndSplineSet
Validated: 1
Layer: 2
SplineSet
109 307 m 0,0,1
 109 391 109 391 155 458.5 c 128,-1,2
 201 526 201 526 266 559.5 c 128,-1,3
 331 593 331 593 397 593 c 0,4,5
 491 593 491 593 542 552 c 128,-1,6
 593 511 593 511 593 446 c 0,7,8
 593 427 593 427 589 411 c 2,9,-1
 502 0 l 1,10,-1
 433 0 l 1,11,-1
 519 405 l 2,12,13
 522 418 522 418 522 431 c 0,14,15
 522 477 522 477 486 504.5 c 128,-1,16
 450 532 450 532 387 532 c 0,17,18
 291 532 291 532 233.5 463.5 c 128,-1,19
 176 395 176 395 176 307 c 0,20,21
 176 270 176 270 194 216 c 0,22,23
 202 192 202 192 207.5 168 c 128,-1,24
 213 144 213 144 215.5 133.5 c 128,-1,25
 218 123 218 123 219 123 c 128,-1,26
 220 123 220 123 232 139.5 c 128,-1,27
 244 156 244 156 264.5 183.5 c 128,-1,28
 285 211 285 211 302 230 c 1,29,30
 272 232 272 232 248.5 253.5 c 128,-1,31
 225 275 225 275 225 310 c 0,32,33
 225 354 225 354 261 392.5 c 128,-1,34
 297 431 297 431 349 431 c 0,35,36
 385 431 385 431 408 409 c 128,-1,37
 431 387 431 387 431 353 c 0,38,39
 431 302 431 302 368 225 c 2,40,-1
 256 87 l 2,41,42
 230 57 230 57 212 0 c 1,43,-1
 152 0 l 1,44,45
 154 11 154 11 158 23 c 128,-1,46
 162 35 162 35 163.5 43 c 128,-1,47
 165 51 165 51 165 62 c 0,48,49
 165 89 165 89 137 169.5 c 128,-1,50
 109 250 109 250 109 307 c 0,0,1
339 381 m 0,51,52
 312 381 312 381 294 362 c 128,-1,53
 276 343 276 343 276 319 c 0,54,55
 276 302 276 302 286.5 291 c 128,-1,56
 297 280 297 280 318 280 c 0,57,58
 346 280 346 280 363 299.5 c 128,-1,59
 380 319 380 319 380 343 c 0,60,61
 380 359 380 359 369.5 370 c 128,-1,62
 359 381 359 381 339 381 c 0,51,52
EndSplineSet
EndChar

StartChar: uni0E15
Encoding: 3605 3605 148
Width: 645
Flags: W
HStem: 0 21G<176 254.5 464 537.241> 230 50<301.067 333> 381 50<311.871 397.683> 575 20G<291 400.538 487.923 542>
VStem: 128 65<212.97 409.628> 246 50<283.969 364.402> 401 52<295.514 376.704> 557 70<384.096 518.422>
DStem2: 435 543 423 474 0.845926 0.533301<0 71.866> 464 0 533 0 0.207912 0.978148<14.3459 466.684>
LayerCount: 3
Fore
SplineSet
246 312 m 0
 246 372 302 431 372 431 c 0
 421 431 453 401 453 356 c 0
 453 280 356 184 295 84 c 0
 278 57 259 40 250 0 c 1
 176 0 l 1
 179 26 181 41 181 62 c 0
 181 182 128 220 128 321 c 0
 128 430 203 551 379 595 c 1
 435 543 l 1
 521 595 l 1
 563 586 627 551 627 462 c 0
 627 448 625 432 621 415 c 2
 533 0 l 1
 464 0 l 1
 551 409 l 2
 555 428 557 444 557 458 c 0
 557 500 540 521 515 532 c 1
 423 474 l 1
 352 532 l 1
 244 495 213 424 199 357 c 0
 195 338 193 321 193 305 c 0
 193 275 200 247 212 216 c 0
 234 162 238 107 241 107 c 0
 242 107 308 203 333 230 c 1
 262 233 246 279 246 312 c 0
360 381 m 0
 320 381 296 348 296 319 c 0
 296 298 309 280 339 280 c 0
 377 280 401 312 401 342 c 0
 401 363 389 381 360 381 c 0
EndSplineSet
Validated: 1
Layer: 2
SplineSet
246 312 m 0,0,1
 246 358 246 358 283.5 394.5 c 128,-1,2
 321 431 321 431 372 431 c 0,3,4
 409 431 409 431 431 410.5 c 128,-1,5
 453 390 453 390 453 356 c 128,-1,6
 453 322 453 322 429 279.5 c 128,-1,7
 405 237 405 237 360 176.5 c 128,-1,8
 315 116 315 116 295 84 c 0,9,10
 291 77 291 77 282.5 65.5 c 128,-1,11
 274 54 274 54 269 46.5 c 128,-1,12
 264 39 264 39 258.5 26.5 c 128,-1,13
 253 14 253 14 250 0 c 1,14,-1
 176 0 l 1,15,16
 181 43 181 43 181 62 c 0,17,18
 181 124 181 124 154.5 198.5 c 128,-1,19
 128 273 128 273 128 321 c 0,20,21
 128 410 128 410 191.5 487 c 128,-1,22
 255 564 255 564 379 595 c 1,23,-1
 435 543 l 1,24,-1
 521 595 l 1,25,26
 562 586 562 586 594.5 554 c 128,-1,27
 627 522 627 522 627 462 c 0,28,29
 627 440 627 440 621 415 c 2,30,-1
 533 0 l 1,31,-1
 464 0 l 1,32,-1
 551 409 l 2,33,34
 557 438 557 438 557 458 c 0,35,36
 557 514 557 514 515 532 c 1,37,-1
 423 474 l 1,38,-1
 352 532 l 1,39,40
 278 507 278 507 245 462.5 c 128,-1,41
 212 418 212 418 199 357 c 0,42,43
 193 328 193 328 193 305 c 0,44,45
 193 265 193 265 212 216 c 0,46,47
 222 193 222 193 228.5 165 c 128,-1,48
 235 137 235 137 237.5 122 c 128,-1,49
 240 107 240 107 241 107 c 2,50,-1
 258.5 131.5 l 2,51,52
 276 156 276 156 299 187 c 128,-1,53
 322 218 322 218 333 230 c 1,54,55
 285 232 285 232 265.5 256.5 c 128,-1,56
 246 281 246 281 246 312 c 0,0,1
360 381 m 0,57,58
 332 381 332 381 314 362 c 128,-1,59
 296 343 296 343 296 319 c 0,60,61
 296 302 296 302 307 291 c 128,-1,62
 318 280 318 280 339 280 c 0,63,64
 366 280 366 280 383.5 299 c 128,-1,65
 401 318 401 318 401 342 c 0,66,67
 401 381 401 381 360 381 c 0,57,58
EndSplineSet
EndChar

StartChar: uni0E16
Encoding: 3606 3606 149
Width: 628
Flags: W
HStem: -3 50<181.607 259.985> 139 50<209.319 270.884> 532 61<294.949 509.742>
VStem: 119 59<49.7311 125.062> 273 52<60.3699 136.184> 544 71<341.25 499.73>
DStem2: 100.107 -3 169.464 -3 0.207912 0.978148<204.576 403.596> 451.362 -3 520.362 -3 0.207912 0.978148<17.4129 458.08>
LayerCount: 3
Fore
SplineSet
325 118 m 0
 325 58 274 -3 201 -3 c 0
 141 -3 119 31 119 72 c 0
 119 81 120 91 122 100 c 2
 169 322 l 2
 183 387 250 426 250 426 c 1
 218 465 146 484 129 487 c 1
 153 512 282 593 419 593 c 0
 541 593 615 544 615 458 c 0
 615 447 614 435 611 422 c 2
 521 0 l 1
 452 0 l 1
 541 418 l 2
 543 428 544 438 544 446 c 0
 544 508 490 532 413 532 c 0
 330 532 265 498 265 498 c 1
 274 498 363 430 363 423 c 1
 351 423 255 400 235 308 c 2
 209 183 l 1
 209 183 225 189 247 189 c 0
 292 189 325 163 325 118 c 0
235 139 m 0
 202 139 178 110 178 83 c 0
 178 64 190 47 215 47 c 0
 252 47 273 78 273 104 c 0
 273 123 262 139 235 139 c 0
EndSplineSet
Validated: 1
Layer: 2
SplineSet
325 118 m 0,0,1
 325 71 325 71 289.5 34 c 128,-1,2
 254 -3 254 -3 201 -3 c 0,3,4
 159 -3 159 -3 139 18 c 128,-1,5
 119 39 119 39 119 72 c 0,6,7
 119 86 119 86 122 100 c 2,8,-1
 169 322 l 2,9,10
 175 351 175 351 195.5 377 c 128,-1,11
 216 403 216 403 233 414.5 c 2,12,-1
 250 426 l 1,13,14
 229 451 229 451 191 467 c 128,-1,15
 153 483 153 483 129 487 c 1,16,17
 157 516 157 516 243 554.5 c 128,-1,18
 329 593 329 593 419 593 c 0,19,20
 511 593 511 593 563 557.5 c 128,-1,21
 615 522 615 522 615 458 c 0,22,23
 615 439 615 439 611 422 c 2,24,-1
 521 0 l 1,25,-1
 452 0 l 1,26,-1
 541 418 l 2,27,28
 544 433 544 433 544 446 c 0,29,30
 544 532 544 532 413 532 c 0,31,32
 376 532 376 532 339 523.5 c 128,-1,33
 302 515 302 515 283.5 506.5 c 2,34,-1
 265 498 l 2,35,36
 272 498 272 498 317.5 463 c 128,-1,37
 363 428 363 428 363 423 c 1,38,39
 352 423 352 423 328.5 414.5 c 128,-1,40
 305 406 305 406 274.5 377.5 c 128,-1,41
 244 349 244 349 235 308 c 2,42,-1
 209 183 l 1,43,44
 225 189 225 189 247 189 c 0,45,46
 282 189 282 189 303.5 170 c 128,-1,47
 325 151 325 151 325 118 c 0,0,1
235 139 m 0,48,49
 211 139 211 139 194.5 121.5 c 128,-1,50
 178 104 178 104 178 83 c 0,51,52
 178 68 178 68 187.5 57.5 c 128,-1,53
 197 47 197 47 215 47 c 0,54,55
 241 47 241 47 257 65 c 128,-1,56
 273 83 273 83 273 104 c 0,57,58
 273 139 273 139 235 139 c 0,48,49
EndSplineSet
EndChar

StartChar: uni0E17
Encoding: 3607 3607 150
Width: 691
Flags: W
HStem: 0 21G<176 258 512 585.267> 401 50<200.749 262.681> 532 61<544.156 614.342> 543 50<210.568 291.009>
VStem: 146 52<454.207 530.145> 294 58<465.203 540.097> 616 69<387 530.962>
DStem2: 176 0 245 0 0.207912 0.978148<14.3459 206.865 321.097 416.194> 512 0 581 0 0.207912 0.978148<14.3459 513.033>
LayerCount: 3
Fore
SplineSet
146 471 m 0xee
 146 535 201 593 270 593 c 0xde
 330 593 352 559 352 518 c 0
 352 509 351 500 349 490 c 2
 309 300 l 1
 444 495 521 593 601 593 c 0
 669 593 685 552 685 511 c 0
 685 489 680 466 677 450 c 2
 581 0 l 1
 512 0 l 1
 610 459 l 2
 613 475 616 490 616 503 c 0
 616 520 610 532 591 532 c 0
 576 532 556 524 539 505 c 0
 292 221 271 120 245 0 c 1
 176 0 l 1
 263 407 l 1
 263 407 246 401 224 401 c 0
 195 401 146 417 146 471 c 0xee
256 543 m 0
 219 543 198 512 198 486 c 0
 198 467 210 451 237 451 c 0
 270 451 294 480 294 507 c 0
 294 526 281 543 256 543 c 0
EndSplineSet
Validated: 1
Layer: 2
SplineSet
146 471 m 0,0,1
 146 520 146 520 182.5 556.5 c 128,-1,2
 219 593 219 593 270 593 c 0,3,4
 312 593 312 593 332 572 c 128,-1,5
 352 551 352 551 352 518 c 0,6,7
 352 505 352 505 349 490 c 2,8,-1
 309 300 l 1,9,10
 421 462 421 462 483 527.5 c 128,-1,11
 545 593 545 593 601 593 c 0,12,13
 685 593 685 593 685 511 c 0,14,15
 685 493 685 493 677 450 c 2,16,-1
 581 0 l 1,17,-1
 512 0 l 1,18,-1
 610 459 l 2,19,20
 616 491 616 491 616 503 c 0,21,22
 616 532 616 532 591 532 c 0,23,24
 563 532 563 532 539 505 c 0,25,26
 467 423 467 423 416 354 c 128,-1,27
 365 285 365 285 336.5 240.5 c 128,-1,28
 308 196 308 196 288.5 146.5 c 128,-1,29
 269 97 269 97 262 72.5 c 128,-1,30
 255 48 255 48 245 0 c 1,31,-1
 176 0 l 1,32,-1
 263 407 l 1,33,34
 246 401 246 401 224 401 c 0,35,36
 196 401 196 401 171 418 c 128,-1,37
 146 435 146 435 146 471 c 0,0,1
256 543 m 0,38,39
 230 543 230 543 214 525 c 128,-1,40
 198 507 198 507 198 486 c 0,41,42
 198 471 198 471 208 461 c 128,-1,43
 218 451 218 451 237 451 c 0,44,45
 261 451 261 451 277.5 468.5 c 128,-1,46
 294 486 294 486 294 507 c 0,47,48
 294 522 294 522 284 532.5 c 128,-1,49
 274 543 274 543 256 543 c 0,38,39
EndSplineSet
EndChar

